<?xml version="1.0" encoding="UTF-8"?>
<svg id="Layer_2" data-name="Layer 2" xmlns="http://www.w3.org/2000/svg" viewBox="0 0 1505.65 472.91">
  <defs>
    <style>
      .cls-1 {
        fill: #231f20;
      }
    </style>
  </defs>
  <g id="Layer_1-2" data-name="Layer 1">
    <g>
      <g>
        <path class="cls-1" d="M561.9,46.88c-.1-.84-.58-1.28-1.15-1.42-.04,0-.08-.03-.13-.04-16.63-1.93-34.18,3.39-46.35,15.05-.94.87-3.53,3.46-5.54,6.12-.12-1.28-.22-2.57-.31-3.89-.33-3.74-.59-7.34-.91-11.18.03-5.19-2.1-8.88-7.65-9.13-7.67-.87-15.39-.49-23.08-.3-9.87.34-19.77.32-29.61,1.17-5.04.79-11.01.64-15.11,4.02-.58.69-1.13,1.88-1.04,2.89-.07.72.04,1.48-.04,2.21-2.11,25.37-1.82,50.87-1.89,76.32-.1,19.98-.21,39.95.55,59.92-.18,11.71-.23,23.43.81,35.11.73,5.46-.13,11.82,3.61,16.32.4.48.89.63,1.35.58,1.45.6,3.97.02,5.34.25,12.7.09,25.4.62,38.11.6,10.9,0,21.97.01,32.82-1.14.09.02.18.04.27.06.31-.01.57-.07.78-.17h.04c.57-.32.84-.78.88-1.26.27-1.07.08-2.52.22-3.49.13-5.44.04-10.84.07-16.28.4-15.61.3-31.48.36-47.2,1.2-12.89-2.15-35.69,8.63-44.47,10.06-7.15,23.37-1.6,32.31,4.99,1.8,1.03,4.97,6.03,6.6,2.38.04-.16.05-.33.03-.5.67-2.01.24-5.64.52-7.06.62-9.3.88-18.48.89-27.82,0-17.35,1-35.26-1.38-52.64ZM503.26,134.99c2.85,10.07-4.37,17.58-13.59,17.58-1.41,0-2.87-.17-4.34-.55-3.12-.77-6.07-2.33-8.19-4.78-4-4.88-3.29-12.87,1.03-17.32,5.09-5.05,14.63-6.3,20.04-1.17,2.32,1.45,4.24,3.6,5.05,6.24ZM475.6,64.11c6.06-6.17,16.6-5.2,20.24,3.03,5.09,9.53-6.23,20.87-15.9,17.2-7.94-2.87-10.21-14.33-4.34-20.23ZM474.57,94.85c6.75-10.1,24.73-5.05,22.89,7.74-.67,6.81-6.48,13.93-13.88,12.6-10.19-1.25-14.42-12-9.01-20.34ZM462.95,58.56c2.24-.03,3.94,1.76,4.06,3.94.45,8.26.75,16.52.92,24.79.12,8.24.09,16.51-.61,24.73.15,4.03-4.49,6.4-7.26,3.16-.77-.97-1-2.17-.76-3.29-.02.08-.03.17-.05.25,1.43-16.45.57-33.05-.24-49.52-.12-2.18,1.83-4.03,3.94-4.06ZM449.98,62.07c.63,11.75.86,23.51,1.03,35.27.04,4.02-.08,8.04-.04,12.07.74,3.88-2.62,7.46-6.35,5.04-1.02-.69-1.65-2.13-1.63-3.23,0-3.64-.01-7.29.04-10.93-.06-8.17-.28-16.34-.45-24.5-.14-4.54-.47-9.07-.6-13.6.03-5.23,7.77-5.38,8-.12ZM443.17,129.56c5.09-5.05,14.62-6.3,20.04-1.17,2.32,1.45,4.24,3.59,5.04,6.24,2.86,10.07-4.37,17.58-13.58,17.58-1.41,0-2.87-.17-4.34-.55-3.13-.77-6.07-2.33-8.19-4.78-4-4.88-3.3-12.87,1.03-17.32ZM440.47,200.59c.27-3.8-2.36-9.62,2.35-11.46,2.04-.76,4.38.57,5.03,2.57.32,1.87.26,3.7.48,5.6.16,4.31.43,8.62,1.04,12.89.27,2.43-1.94,4.21-4.12,4.21-.92,0-1.84-.32-2.56-1.04-.8-.72-1.16-1.66-1.29-2.72-.4-3.34-.78-6.68-.93-10.05ZM495.3,231.46c-5.83-.18-11.55-.16-17.25-.14-5.65.03-11.27.05-16.96-.12-3.77-.09-7.54-.31-11.23-.35-2.29-.18-4.92.36-6.54-1.56-1.44-1.72-1.12-4.17.48-5.63,1.18-1.08,2.7-.96,4.2-.84.63.05,1.25.1,1.84.06,15.06.67,30.13.3,45.01.6,5.24-.2,5.67,7.64.45,7.98ZM467.15,195.06c.56,5.33.78,10.68,1.24,16.02.16,2.17-1.61,4.09-3.76,4.21-.08.01-.15.01-.23.01-2.08,0-3.83-1.68-3.98-3.77-.4-5.14-.7-10.28-1.19-15.41-1.39-6.86,8.21-7.86,7.92-1.06ZM480.17,190.99c3.8.46,3.67,3.72,3.92,6.71.3,4.9.49,9.8.62,14.71.06,2.73-2,4.15-4.05,4.15-1.88,0-3.74-1.2-3.92-3.7-.17-5.18-.29-10.36-.71-15.52-.73-3.03.51-6.56,4.14-6.35ZM497.95,216.76c-.09,0-.17,0-.26-.01-2.29-.17-3.78-2.16-3.69-4.25-.15-4.09-.34-8.26-.23-12.31-.39-3.56.53-7.69,4.98-7.03,2.11.53,3.56,2.53,3.1,4.72-.27,1.43-.06,3.25-.14,4.23-.06,3.65.26,7.3.25,10.95-.04,2.08-2.01,3.7-4.01,3.7ZM498.19,179.13c-8.87.12-17.73.59-26.6.88-7.72.21-15.45.96-23.18.96-1.72,0-3.43-.04-5.14-.12-3.47-.2-4.84-5.1-2.06-7.12,1.04-.85,2.35-.92,3.63-.8,2.55.1,5.12.02,7.68-.03,15.5-.64,31.04-1.66,46.53-1.73,5.2.69,4.43,8.31-.86,7.96ZM501.57,163.32c-6.64.2-13.29.37-19.93.2-5.79-.04-11.59.04-17.38.11-4.77.06-9.54.12-14.31.12-1.17,0-2.33,0-3.51,0-1.78-.09-3.62.08-5.33-.47-4.05-1.52-2.88-7.73,1.35-7.78,5.09.4,10.21.3,15.34.21,2.93-.05,5.86-.11,8.79-.07,5.07-.14,10.14-.11,15.21-.09,4.86.03,9.72.05,14.58-.07,1.66-.04,3.33-.14,4.99-.15,5.23.01,5.46,7.75.2,8ZM507.04,80.92c1.02-.94,2.3-1.32,3.66-1.32,2.72,0,4.87,2.65,4.73,5.27-.07,1.29-.65,2.53-1.6,3.41-1.02.94-2.3,1.32-3.66,1.32-2.72,0-4.87-2.65-4.73-5.27.07-1.29.66-2.53,1.6-3.41ZM514.69,108.34c-1.02.94-2.29,1.32-3.65,1.32-2.73,0-4.87-2.65-4.73-5.26.07-1.29.65-2.53,1.6-3.41,1.02-.94,2.3-1.32,3.66-1.32,2.72,0,4.87,2.65,4.73,5.26-.07,1.29-.66,2.53-1.61,3.41ZM530.15,111.6c-2.41-.17-4.23-2.53-3.64-4.91.09-5.31.04-10.63.05-15.95.09-6.2-.32-12.39-.51-18.58-.13-2.15,1.56-4.16,3.73-4.25,2.1-.15,4.23,1.55,4.26,3.73.24,6.51.6,13.02.51,19.55.02,5.23,0,10.45-.06,15.68.26,2.49-1.74,4.98-4.34,4.73ZM545.4,112.59c-1.84-.91-2.75-3.08-2.04-5,.12-1.86.11-3.74.11-5.1-.06-10.92-.2-21.84-.14-32.75-.13-5.27,7.5-5.77,7.98-.53.06,3.4-.02,6.8-.03,10.2.03,6.64.11,13.27.16,19.9-.25,4.56,1.88,15.84-6.04,13.28Z"/>
        <path class="cls-1" d="M460.9,138.44c.06,1.44-.48,2.97-1.34,4.07-1.07,1.19-2.79,1.43-4.29,1.67-5.54.25-7.88-2.63-7.77-5.51.12-2.76,2.49-5.53,6.46-5.53.87.01,1.81.13,2.82.43.85.2,1.68.59,2.34,1.17.07.06.14.13.2.21.09.07.16.14.23.22h.01s.01.02.01.02c.01.01.02.02.03.04,0,0,.01,0,.01.01.01,0,.02.02.02.03.21.2.42.4.59.65.1.15.2.29.28.45.06.12.1.25.13.37.01,0,.01.02.01.03,0,.02,0,.03.02.05.07.2.11.4.16.61,0,.02,0,.03.01.04.06.33.09.64.07.97Z"/>
        <path class="cls-1" d="M488.95,73.2c.03-.08.05-.17.07-.25-.02.24-.04.22-.15.53.01-.02.01-.05.02-.07-.7,1.95-2.96,3.39-4.97,3.61-3.29.09-5.45-3.85-3.2-6.55.11-.17.22-.34.35-.49,1.16-1.24,2.4-2.11,4.57-1.96,2.39.27,3.82,2.94,3.31,5.18Z"/>
        <path class="cls-1" d="M485.86,107.28s-.01.01-.02.01c-.1.01-.19.03-.29.04-1.69-.18-3.76-.7-4.77-2.18-.94-2.06-.65-4.85.99-6.49,2.14-2,6.58-1.58,7.68,1.32.41,2.75-.92,6.26-3.59,7.3Z"/>
        <path class="cls-1" d="M495.9,138.8c.06,1.44-.48,2.97-1.34,4.07-1.07,1.19-2.79,1.43-4.29,1.67-5.54.25-7.88-2.63-7.76-5.51.11-2.76,2.48-5.52,6.45-5.52.87,0,1.81.12,2.82.42.86.2,1.68.59,2.34,1.17.07.07.14.13.2.21.09.07.16.14.23.22.01,0,.01.01.01.01h.01s.02.03.03.05h.01s.01.03.03.04c.21.2.41.4.58.65.1.15.2.29.28.46.06.13.1.26.15.4h0c.08.22.12.43.17.65,0,.02,0,.03.01.04.06.33.09.64.07.97Z"/>
      </g>
      <path class="cls-1" d="M184.04,157.57c-7.88-21.26-29.84-33.4-51.08-37.8-7.07-2.75-46.34-6.36-40.25-17.62,3.41-5.71,10.49-7.77,16.62-9.1,16.08-2.91,32.01,3.16,47.12,8.23,2.91,1.06,5.65,1.84,8.59,2.95,1.14.38,2.73,1.17,3.66,0,.34-.57.41-1.05.29-1.44.07-6.26.4-12.49.5-18.74.34-6.17-.33-12.35-.02-18.52-.02-.77-.52-1.23-1.12-1.39-.17-.12-.37-.21-.61-.27-2.14-.58-4.03-1.71-6.19-2.44-11.36-4.49-23.28-7.12-35.22-9.46-15.28-3.25-31.13-5.47-46.73-3.09-13.52,1.38-26.72,6.06-38.58,12.95-15.23,8.2-28.59,20.56-35.42,36.69-12.31,24.33-3.75,51.22,20.1,64.28,13.25,8.3,29.22,9.09,44.19,12.01,11.21,2.12,41.03,9.88,33.42,26.11-9.38,11.55-31.33,5.42-43.85,2.29-13.18-3.87-26.46-7.65-39.19-12.84-.96-.22-2.5-1.34-3.83-1.66-.5-.26-1.12-.27-1.64.15-1.09.9-.8,2.51-.98,3.77-.46,5.57-.99,11.15-1.03,16.74-.31,8.21-.75,16.43-.32,24.65.01.19.06.37.14.53.04.23.13.45.3.66.8.92,2.15.81,3.24,1.09,3.37.47,6.57,1.33,9.99,1.86.11.02.21.02.32.01,20.76,4.36,41.96,6.45,63.19,7.02,23.55.04,48.42-3.95,68.2-17.45,22.38-15.88,35.39-43.18,26.19-70.17ZM26.32,222.06c-.16-3.32-.32-6.63-.63-9.94-.09-2.94-1.19-6.16.07-8.96,2.01-3.76,7.97-1.87,7.49,2.37.11,5.56,1.03,10.77,1.07,16.3.04,5.24-7.7,5.48-8,.23ZM43.88,205.11c6.79,1.97,13.62,3.78,20.44,5.63,5.06,1.43,3.13,8.94-1.98,7.75-6.74-1.9-13.69-3.53-20.34-5.67-4.35-1.64-2.77-8.29,1.88-7.71ZM63.98,233.33c-5.19-1.4-10.47-2.43-15.6-4.04-1.98-.84-4.38-.76-6.04-2.22-2.54-2.37-.69-6.9,2.78-6.85,3.51.45,6.87,2.02,10.35,2.76,3.5.88,7.01,1.67,10.49,2.59,5.06,1.44,3.12,8.95-1.98,7.76ZM75.53,233.31c-.83-5.31-1.61-10.65-1.98-16.02-.11-2.42,2.02-4.63,4.49-4.3,2.47.27,3.85,2.59,3.56,4.93.45,4.72,1.07,9.42,1.83,14.1.72,5.19-6.91,6.46-7.9,1.29ZM95.71,234.02c-2.08.35-4.32-1.14-4.59-3.3-.4-3.18-.74-6.37-1.26-9.54-.31-2.74-1.87-6.09.29-8.43,2.42-2.69,7.2-.58,6.88,3,.81,4.54,1.5,9.1,1.99,13.68.27,2.16-1.1,4.23-3.31,4.59ZM121.55,158.64c1.09-1.97,3.7-2.64,5.62-1.46,3.13,1.3,6.1,3.03,8.55,5.41,4.14,3.83,6.83,8.93,9.45,13.85,2.69,5.67,4.07,11.86,4.61,18.08.48,2.32-.76,4.78-3.24,5.17-2.07.34-4.34-1.14-4.59-3.31-.55-8.92-3.56-17.43-8.8-24.67-1.95-2.67-4.46-4.99-7.45-6.43-2.97-.92-5.9-3.27-4.15-6.64ZM138.88,152c5.01-5.88,13.77,6.24,16.39,10.12,3.86,5.34,5.32,11.81,7,18.06,1.37,5.05-6.03,7.31-7.67,2.3-1.57-5.75-2.76-11.77-6.46-16.62-2.28-3.26-4.72-6.54-8.42-8.26-1.81-1.22-2.09-3.91-.84-5.6ZM154.84,90.01c-.43,0-.9-.08-1.39-.23-9.07-2.76-18.07-5.03-27.29-7.06-2.5-.82-5.4-.55-7.59-2.08-1.82-1.56-1.72-4.52.08-6.04,1.73-1.46,3.82-.8,5.78-.4,10.65,2.2,21.22,4.91,31.64,8.03,4.43,1.57,2.81,7.78-1.23,7.78ZM119.59,59.33c9.18,1.26,18.24,3.46,27.19,5.83,3.52,1.15,10.29,1.81,8.77,7.06-.55,1.61-2.16,2.68-3.8,2.68-.43,0-.86-.07-1.28-.23-9.63-3.22-20.04-5.44-29.95-7.18-1.86-.26-3.76-.24-5.13-1.76-2.67-3.04.72-7.56,4.2-6.4ZM105.86,57.13c1.93,1.32,1.66,3.62,2.19,5.6,1.18,5.76,1.98,11.58,3.14,17.34.48,2.92-1.76,4.65-3.99,4.65-1.7,0-3.38-1-3.87-3.22-1.32-6.64-2.28-13.35-3.65-20-.93-3.47,3.21-6.53,6.18-4.37ZM81.47,55.27c3.23-.21,4.03,2.97,5.26,5.25,3.87,7.85,7.22,15.97,10.74,23.98,2.15,4.79-4.82,8.18-7.19,3.5-3.16-7.29-6.32-14.57-9.64-21.79-.91-2.25-2.67-4.27-2.96-6.73-.05-2.18,1.57-4.09,3.79-4.21ZM64.96,62.43c5.18,6.21,9.95,12.85,14.8,19.28,1.47,2.44,4.48,4.41,4.44,7.47-.15,3.39-4.92,5-7.02,2.28-5.01-6.48-9.82-13.11-14.86-19.57-1.26-1.71-2.68-3.29-3.98-4.97-2.77-4.41,3.54-8.65,6.62-4.49ZM70.68,112.69c.33,4.14,1.67,8.47,4.89,11.26,1.34,1.2,3.28,1.91,3.75,3.82,1.05,3.27-2.98,6.43-5.87,4.52-10.18-5.98-12.56-19.25-9.67-29.96.81-2.7,1.25-5.99,3.75-7.67,1.84-1.17,4.41-.39,5.48,1.43,1.13,1.81.26,3.5-.57,5.1-1.23,3.7-2.03,7.59-1.76,11.5ZM33.65,147.42c-13.7-7.84-17.91-25.48-14.39-40.07,3.6-13.69,11.47-26.19,23.04-34.48,1.7-1.12,2.9-3.15,5.15-3.13,2.18,0,4,1.82,4,4,.05,1.87-1.32,3.24-2.74,4.24-3.53,2.86-7.18,5.62-10.18,9.05-11.08,12.96-18.03,34.07-6.5,48.82,1.38,1.53,2.99,2.84,4.69,4.01,1.19.76,2.44,1.57,2.81,3.04,1.05,3.26-2.98,6.44-5.88,4.52ZM42.07,111.85c.14-8.66,3.57-16.7,7.76-24.12.57-1.83,1.97-3.43,4.07-3.4,3.18-.03,5,3.63,3.42,6.26-3.47,6.48-6.94,13.15-7.22,20.67-.47,8.96,2.48,19.46,11.27,23.45,4.48,2.72.56,9.43-4.04,6.91-11-5.29-15.7-18.17-15.26-29.77ZM56.11,157.63c-2.15.65-4.26,2.35-6.55,1.25-2.77-1.15-3.06-5.33-.55-6.93,4.73-2.22,9.76-3.83,14.59-5.87,11.27-4.47,22.34-9.47,33.58-14.02,3.94-1.62,7.92-3.17,11.92-4.64,4.93-1.69,7.66,5.56,2.76,7.51-18.81,6.98-36.98,15.59-55.75,22.7ZM92.98,157.81c-4.45,2.29-8.94,4.51-13.55,6.48-1.28.55-2.61,1.21-4.03,1.07-4.47-.51-4.78-6.94-.41-7.88,5.46-2.19,10.69-4.92,15.92-7.59,5.38-2.75,10.76-5.49,16.15-8.21,1.95-.98,4.42.09,5.28,2.01.93,2.06-.07,4.31-2.01,5.29-5.79,2.92-11.58,5.87-17.35,8.83ZM118.38,204.17c4.12-7.1,3.68-16.04-.55-22.99-1.91-3.17-4.39-6.2-7.76-7.88-3.91-.71-4.3-6.47-.49-7.7,6.4-1.13,13.33,8.01,15.98,13.06,5.2,9.42,4.93,21.34-.82,30.45-1.6,2.59-3.67,4.77-5.62,7.09-1.4,1.67-4.02,1.81-5.64.4-4.4-4.57,3.25-8.41,4.9-12.43ZM166.93,196.86c-3.22,6.81-9.03,11.89-14.66,16.7-7.32,6.21-16.02,10.23-24.58,14.4-2.57,1.25-5.2,2.36-7.83,3.46-1.02.42-2.04.57-3.08.2-3.25-.96-3.66-6-.5-7.36,1.64-.68,3.28-1.35,4.89-2.08,8.35-4.11,17.08-7.7,24.43-13.52,4.91-4.09,10.08-8.25,13.37-13.82,1.5-2.12,1.4-5.55,4.22-6.46,1.97-.67,4.5.4,5.08,2.51.65,2.08-.53,4.1-1.34,5.97ZM168.81,179.68c-.1-12.39-6.8-24.89-17.87-30.8-5.72-3.11-11.33-5.62-17.36-7.71-1.31-.13-2.51-.86-3.15-2.15-1.35-2.97.63-5.63,3.42-5.81,2.59.04,4.98,1.47,7.39,2.33,3.29,1.33,6.55,2.71,9.72,4.3,6.51,3.19,12.67,7.36,16.9,13.35,5.49,7.53,8.84,16.68,8.93,26.02.17,5.24-7.55,5.72-7.98.47Z"/>
      <path class="cls-1" d="M788.91,179.2c-.95-.91-2.95-1.17-4.06-1.72-6.44-2.17-13.09-3.68-19.74-5.02-20.33-4.24-41.15-1.04-61.11,3.63-7.08,1.54-14.11,3.31-21.19,4.79-8.44,1.78-21.91,4.46-25.48-6.07-.47-8.13,8.92-12.45,15.48-14.75,15.55-5.31,32.31-4.37,48.39-6.86,13.39-2.14,26.77-5.76,38.89-11.9,14.13-7.29,24.71-21.04,26.2-37.15,2.62-14.25-3.92-28.88-13.97-38.87-4.88-4.57-10.53-8.4-16.68-11.05-.42-.12-.89-.37-1.37-.63,3.66-3.55,6.68-7.72,9.85-11.7,2.21-2.81,4.48-5.59,6.64-8.45.28-.42.51-.9.41-1.43-.17-1.03-.96-1.59-1.75-1.66-.06-.28-.2-.54-.42-.74-2.39-2.17-4.79-4.33-7.24-6.44-8.38-6.93-15.96-14.7-24.51-21.47-2.89-3.53-4.5-.93-6.44,1.77-3.96,5.16-8.25,9.88-12.43,14.88l-.03.03s-.02.03-.06.07c-3,3.54-6.15,7.03-9.12,10.71-1.29,1.59-2.5,3.23-3.77,4.83-.87.06-1.76.31-2.63.27-13.43.37-26.89-.34-40.2,2.08-19.63,3.31-41.43,6.37-55.78,21.53-12.01,12.2-16.7,30.24-15.17,47.01,1.61,16.91,12.17,32.02,26.51,40.78-11.46,8.22-22.21,18.36-28.2,31.33-4.88,12.72-8.42,26.95-5.51,40.56,7.88,30.21,39.46,33.31,65.84,33.52,17.19.45,34.09-3.32,51.13-4.91,20.86-1.58,42.28-1.61,62.75,3.19h.05s0,.01.01.01c1.37.56,2.24-.87,2.6-1.99,1.71-4.45,3.02-9.05,4.76-13.5,5.08-12.48,9.87-25.08,14.07-37.89,1.5-5.04,3.34-10.13,4.58-15.25,0-.76-.58-1.4-1.3-1.54ZM663.86,151.2c-2.13,2.88-6.35,4.9-8.55.95-1.02-2.16-.07-4.4,1.92-5.58,5.58-6.13,11.62-11.83,17.18-17.97-5.46-5.15-11.03-10.17-16.25-15.57-1.54-1.54-1.24-4.26.32-5.65,1.6-1.48,4.2-1.29,5.64.31,3.67,3.69,7.36,7.35,11.24,10.83,10.73,9.86,11.55,8.62,1.05,19.64-4.23,4.3-8.43,8.64-12.55,13.04ZM654.11,128.25c.11-2.66,2.35-4.55,4.94-4.55s4.66,2.43,4.56,4.93c-.11,2.67-2.36,4.56-4.94,4.56s-4.66-2.43-4.56-4.94ZM688.88,146.93c-1.13,1.16-1.91,2.71-3.44,3.34.04-.01.09-.02.13-.04-2.7,1.28-6.03-1.2-5.55-4.21.22-1.39,1.13-2.31,1.98-3.34,2.7-3.21,5.43-6.4,8.2-9.55,3.64-4.14,7.35-8.21,11.02-12.32,2.31-2.56,6.97-.58,6.83,2.83,0,1.1-.46,2.02-1.17,2.83-3.45,3.86-6.92,7.7-10.36,11.56-2.58,2.94-5.13,5.91-7.64,8.9ZM750.46,95.24c-9.01,1.11-18.05,1.9-27.05,3.06-2.94.33-5.87.84-8.81,1.16-.72.09-1.44-.02-2.12-.34-3.43-1.47-2.79-6.82.83-7.54,6.09-.84,12.2-1.64,18.31-2.31,6.05-.64,12.09-1.26,18.13-2,5.21-.37,5.94,7.34.71,7.97ZM752.84,111.5c-9.58.56-19.11,1.62-28.66,2.53-2.93.31-5.88.53-8.81.89-1.15.2-2.36-.07-3.25-.89-2.48-2.07-1.4-6.29,1.74-6.96,1.8-.34,3.67-.37,5.48-.6,7.48-.69,14.94-1.5,22.41-2.2,3.45-.31,6.92-.52,10.38-.74,5.23-.31,5.94,7.4.71,7.97ZM711.62,79.6c-1.67-3.92-3.87-7.94-8.21-9.29-.62-.18-1.7-.84-1.97-1.25-3.12-3.56,1.35-8.25,4.93-6.15,6.05,2.06,10.1,7.25,12.37,13.04,2.26,4.73-4.63,8.27-7.12,3.65ZM708.61,146.14c-2.17,2.91-7.21,1.16-7.1-2.5.17-3.18,3.52-4.77,5.4-6.95,5.27-5.27,10.11-10.94,14.85-16.68,3.33-4.06,9.47.68,6.34,4.89-2.05,2.46-4.09,4.92-6.19,7.34-4.18,4.88-8.61,9.52-13.3,13.9ZM729.11,142.09c-2.59,0-4.65-2.43-4.55-4.94.1-2.67,2.35-4.56,4.94-4.56s4.65,2.43,4.55,4.94c-.1,2.66-2.35,4.56-4.94,4.56ZM768.1,114.37c-4.47,7.02-10.85,13.13-18.59,16.35-3.55.94-9.08,4.51-11.23-.3-.76-1.97.23-4.48,2.29-5.17,3.5-1.23,6.29-1.75,9.31-3.61,9.99-6.31,17.28-18.02,15.28-30.09-1.03-8.79-7.89-15.94-14.55-20.99-1.58-1.28-3.37-2.13-5.1-3.11-1.62-1.33-2.02-4.02-.55-5.62,2.17-2.71,5.67-1.17,7.93.57,18.52,12.02,27.01,31.85,15.21,51.97ZM751.89,31.09c-2.82,3.4-5.4,6.99-8.12,10.47-2.68,3.45-5.48,6.8-8.25,10.18-1.4,1.7-3.81,2.16-5.6.83-1.69-1.25-2.21-3.92-.83-5.6,2.93-3.56,5.87-7.12,8.7-10.76,2.81-3.53,5.36-7.28,8.34-10.68,3.71-3.69,9.3,1.67,5.76,5.56ZM719.97,32.67c2.21-2.64,4.33-5.36,6.46-8.06,2.16-2.74,4.43-5.39,6.62-7.94,1.04-1.09,1.77-2.61,3.23-3.2,3.94-1.67,7.46,3.39,4.47,6.42-3.87,4.55-7.67,9.15-11.33,13.86-2.38,2.98-4.86,5.87-7.34,8.76-1.42,1.65-4.16,1.55-5.66.1-3.51-3.6,1.44-7.15,3.55-9.94ZM710.05,48.06c9.92,3.76,18.63,11.02,24.11,20.11,1.43,2.41,2.66,4.94,3.93,7.43,2.27,4.7-4.59,8.27-7.12,3.64-3.93-8.9-10.2-16.75-18.83-21.46-3.26-1.7-6.72-3.18-10.38-3.72-.77-.13-1.49.15-2.26.13-2.38-.11-3.95-2.12-3.83-4.12.83-6.78,10.22-3.5,14.38-2.01ZM689.84,45.45c.45,5.87,1.46,11.67,2.31,17.48.45,5.21-7.25,6.06-7.96.83-.89-5.92-1.81-11.83-2.34-17.8-.84-6.39,8.36-6.89,7.99-.51ZM693.77,76.23c7.8,4.77,8.32,14.95,8.77,23.2.03,1.66-.03,3.41-.23,5.23-.67,6.37-6.06,12.9-12.78,13.05-5.26.15-9.76-3.88-12.06-8.35-2.04-4.38-2.38-9.38-3.16-14.07-.42-6.18.41-13.31,5.46-17.59,3.88-2.84,9.63-3.85,14-1.47ZM674.04,48.06c2.73,0,5,2.28,5,5s-2.27,5-5,5-5-2.27-5-5,2.27-5,5-5ZM674.59,63.55c2.16.31,3.69,2.4,3.38,4.54-.25,1.87-1.75,2.99-3.4,3.46-2.59,1.12-4.59,3.15-6.17,5.45-2.71,3.6-3.37,8.96-3.09,13.16-.15,2.73,1.14,5.91-.58,8.3-2.04,2.72-6.88,1.36-7.08-2.08-.45-6.56-.97-13.35,1.71-19.54,2.71-5.9,8.32-12.86,15.23-13.29ZM662.83,46.47c.44,5.23,1.08,10.48,1.64,15.72.56,5.22-7.11,6.28-7.92,1.09-.47-4.73-1.05-9.45-1.52-14.18-1.18-5.44,5.84-7.95,7.8-2.63ZM652.69,79.43c-8.35.2-16.71.27-25.06.6-1.09.26-2.26.25-3.23-.43-3.51-2.14-1.86-7.52,2.21-7.51,8.73-.41,17.48-.44,26.22-.66,5.24.22,5.15,7.87-.14,8ZM646.76,95.95c-8.46-.03-16.91.37-25.37.51-4.94-.18-5.27-7.4-.34-7.98,8.61-.17,17.23-.54,25.84-.53,5.24.19,5.13,7.94-.13,8ZM645.24,181.79c-2.68-.93-2.74-3.87-2.75-6.26-.36-4.09-.54-8.19-.67-12.3-.79-19.01-.85-38.02-1.25-57.04-.03-2.18,1.65-4.06,3.86-4.13,2.15-.07,4.1,1.69,4.13,3.87.1,8.26.31,16.51.44,24.76.11,12.11.51,24.21.96,36.32.14,3.44.38,6.9.69,10.33.51,2.93-2.6,5.59-5.41,4.45ZM629.62,181.48c-4.01-1.07-2.94-4.8-2.79-7.91.33-23-1.23-45.98-1.5-68.97.01-5.24,7.67-5.54,8-.26.05,3.94.19,7.88.3,11.82.25,12.73.69,25.46,1.13,38.19.2,6.15.21,12.29.08,18.44.07,3.71-.09,9.58-5.22,8.69ZM643.84,47.2c2.13,0,4.08,1.82,4,4,.48,4.06,1.18,8.11,1.52,12.21.56,5.21-7.11,6.27-7.93,1.08-.36-3.25-.66-6.51-1.19-9.75-.83-3.14-.54-7.41,3.6-7.54ZM614.55,126.77c-17.77-14.57-15.12-43.08-2.23-60.02,3.34-4.3,7.46-7.89,11.68-11.29.81-.67,1.74-1.09,2.82-1.06,3.44-.03,5.28,4.71,2.61,6.94-2.67,2.2-5.31,4.41-7.77,6.85-11.06,11.03-15.73,32.27-7.57,46.09,1.67,3.06,4.68,5.1,6.76,7.74,2.12,3.92-3.11,7.89-6.3,4.75ZM596.11,190.71c1.49-4.88,3.52-9.58,5.92-14.08,3.15-6.02,7.31-11.43,11.52-16.74,3.32-4.05,9.44.69,6.31,4.91-6.44,7.84-12.06,16.4-15.39,26.04-1.38,3.15-.53,7.58-5.14,7.78-4.24-.17-4.51-4.82-3.22-7.91ZM627.05,239.79c-3.2-.69-5.56-3.54-8.27-5.26-4.95-3.73-9.76-7.66-14.3-11.87-9.38-7.78-1.83-14.46,4.89-20.42,5.1-4.33,10.46-8.32,15.51-12.7,4.13-3.21,9.03,2.79,5.04,6.21-7.13,6.49-15.79,11.52-21.71,19.22,4.48,4.91,9.89,8.89,15.11,12.97,2.12,1.57,4.16,3.26,6.44,4.6,3.3,2.32,1.3,7.63-2.71,7.25ZM648.14,238.08c-6.44-4.83-12.79-9.85-18.97-15.02-5.1-4.12-9.23-8.1-3.8-14.19,7.02-7.63,15.85-13.36,23.91-19.83,4.16-3.18,9.05,2.82,5.04,6.21-7.73,6.23-16.21,11.73-23.01,18.99,7,6.41,14.64,12.19,22.25,17.82,3.65,3.7-1.27,9.13-5.42,6.02ZM647.47,218.07c-3.72-5.36,4.34-11.02,8.57-6.52,4.86,5.58-4.39,12.04-8.57,6.52ZM723.53,181.67c1.21-.85,2.78-.86,4.2-.98,2.78-.25,5.57-.39,8.36-.54,5.27-.32,6.03,7.3.81,7.96-3.2.17-6.45.25-9.64.64-1.33.54-2.85.36-4.01-.56-2.21-1.81-1.86-5.04.28-6.52ZM663.48,193.6c1.79-1.83,4.13-.63,6.28-.87,9.66-.08,18.87-3.06,27.88-6.27,3.78-1.29,7.61-2.4,11.43-3.52,3.29-.95,6.21,3.14,4.34,5.96-1.7,2.53-6.09,2.55-8.35,3.56-12.59,4.2-25.4,9.17-38.92,8.16-3.42-.22-5.26-4.64-2.66-7.02ZM672.62,218.58c-.52,6.11-.61,12.24-.85,18.36-.08,2.19-1.91,3.96-4.1,3.9-2.15-.06-3.97-1.92-3.89-4.1.15-3.87.25-7.74.42-11.61.17-4,.54-7.97.95-11.95-.04-3.19.84-6.73,4.8-6.32,5.48,1.17,2.64,7.85,2.67,11.72ZM686.08,207.76c-.63,7.96-.28,15.93-.06,23.89.06,2.18-2.02,3.95-4.11,3.9-2.17-.02-3.94-1.95-3.89-4.11-.24-8.28-.7-16.64.16-24.9.85-5.15,8.61-4,7.9,1.22ZM722.01,231.73c-6.81.34-13.6.69-20.34,1.73-3.41.52-6.68,2.77-8.72-1.49-1.64-4.92,4.44-6.04,7.99-6.48,6.7-1.07,13.48-1.43,20.25-1.72,5.24-.44,6.02,7.38.82,7.96ZM722.65,218.19c-8.08.59-16.42,1-23.99,4.15.4-.19.61-.28.91-.54-1.46,1.1-3.5,1.15-4.95-.02-1.67-1.34-2.03-3.95-.62-5.62.66-.83,1.44-1.13,2.36-1.53,3.31-1.37,6.82-2.13,10.32-2.82,5-.93,10.09-1.24,15.16-1.58,2.17-.14,4.16,1.35,4.38,3.57.22,2.12-1.39,4.25-3.57,4.39ZM742.33,209.61c-.55,3.8-.87,7.63-1.68,11.39-.71,3.79-1.47,7.56-2.2,11.34-.39,2.16-2.42,3.69-4.56,3.34-2.1-.32-3.75-2.43-3.34-4.56.76-3.97,1.55-7.92,2.3-11.89.58-3.04,1.01-6.1,1.35-9.18.18-1.46.23-3.3,1.27-4.45,1.35-1.67,3.95-2.02,5.62-.62,1.33,1.06,1.88,3.06,1.24,4.63ZM763.03,214.11c-.8,3.03-1.7,6.04-2.57,9.06-1.1,3.78-2.1,7.59-3.11,11.39-.56,2.12-2.92,3.33-4.96,2.73-2.13-.62-3.29-2.85-2.73-4.96,1.08-4.04,2.14-8.07,3.31-12.08.84-2.92,1.73-5.82,2.47-8.77.43-3.76,3.25-6.83,6.98-4.35,2.34,1.85,1.23,4.64.61,6.98ZM768.59,202.27c-.63,2.17-2.85,3.23-4.96,2.73-10.31-2.66-20.99-3.71-31.63-3.41-7.87.44-15.7,1.6-23.28,3.82-3.31,1.03-6.56,2.2-9.73,3.6-1.77,1.34-4.31,1.65-5.94-.11-4.79-6.6,7.12-8.68,11.29-10.49,11.94-3.85,24.59-5.3,37.1-4.75,8.24.42,16.44,1.55,24.42,3.65,2.12.51,3.31,2.94,2.73,4.96ZM766.31,190.52c-4.39-.51-8.78-1.04-13.18-1.46-.73-.06-1.46-.14-2.18-.16h-.01c-4.22.38-6.18-6.01-1.69-7.74,6.04-.62,12.22,1.02,18.28,1.45,5.18.9,3.98,8.56-1.22,7.91Z"/>
      <path class="cls-1" d="M887.8,50.36c0-.09,0-.17-.01-.26-.01-.17-.03-.34-.04-.5-.05-.1-.11-.18-.17-.26-.36-.85-1.08-1.66-1.78-2.02-3.6-1.57-7.8-1.17-11.65-1.54-6.81-.37-13.58-.46-20.41-.5-14.63-.16-29.81.48-44.34,2.82-.94.02-1.7.72-1.84,1.52-.56,1.64.45,4.68.23,6.25-.05,3.33-.32,6.82-.24,10.19-.16,16.65-.15,33.22.33,49.88.17,10.66.15,21.3.41,32-.16,16.64,1.18,33.62,2.13,50.32.71,13.44.39,26.95,1.89,40.37.03.31.13.56.26.77.05.61.43,1.2,1.22,1.39,7.02.7,14.12.84,21.18.99,17.71-.12,35.59-.58,53.16-2.41.87-.09,1.31-.76,1.35-1.47.06-.15.11-.3.12-.48.09-1.95.16-3.9.22-5.84,0-33.3.98-66.62,1.32-99.95.1-27.1-1.45-54.31-3.34-81.27ZM876.5,142.11c-.13,2.82-2.5,4.78-5.22,4.78s-4.89-2.59-4.78-5.21c.13-2.82,2.5-4.78,5.22-4.78s4.89,2.58,4.78,5.21ZM818.69,58.52c.7-.59,1.66-.86,2.6-.83,1.92-.17,3.83-.37,5.76-.44,13.05-.18,26.06-1.28,39.1-1.64,3.51-.02,9.43-1.11,9.67,3.92.02,2.11-1.79,4.12-3.97,4.04-9.67-.13-19.34.74-29,1.1-7.44.36-14.9.48-22.31.99-3.43-.4-4.58-5.08-1.85-7.14ZM876.4,95.96c-.13,2.81-2.5,4.78-5.22,4.78s-4.89-2.59-4.78-5.22c.13-2.81,2.5-4.77,5.22-4.77s4.89,2.58,4.78,5.21ZM830.97,185.9c6.23,4.93,11.99,10.41,18.09,15.5,1.47,1.25,2.94,2.55,4.5,3.7,1.16.6,2.03,1.78,2.2,3.1.32,2.41-1.67,4.46-4.03,4.51-1.78,0-3.24-1.42-4.57-2.47-7.29-5.93-14.1-12.44-21.44-18.32-5.9-4.31-3.7-7.69.11-12.48,5.48-5.98,11.92-11.01,18.18-16.15-5.97-6.27-12.38-11.45-18.6-17.07-3.82-2.64-2.32-6.82,0-9.93,4.87-6.88,11.64-12.2,18.02-17.63-5.03-5.46-10.48-10.53-15.5-16-3.63-3.85-9.86-8.41-3.4-13.08,7.57-5.49,13.99-12.34,21.47-17.94,4.28-3.03,8.92,3.16,4.79,6.42-6.91,5.05-12.71,11.43-19.63,16.47,6.39,6.84,13.28,13.22,19.46,20.25,5.17,5.67-.65,8.81-4.8,12.24-4.84,4.53-10.4,8.57-14.05,14.18,32.99,29.73,24.03,17.7-.8,44.7ZM818.98,76.24c.12-2.81,2.49-4.78,5.21-4.78s4.9,2.59,4.78,5.22c-.12,2.81-2.49,4.77-5.21,4.77s-4.9-2.58-4.78-5.21ZM818.14,118.94c.12-2.82,2.49-4.78,5.21-4.78s4.9,2.58,4.78,5.21c-.12,2.82-2.49,4.78-5.21,4.78s-4.9-2.59-4.78-5.21ZM825.83,159.36c2.73,0,4.9,2.59,4.78,5.22-.12,2.81-2.49,4.77-5.21,4.77s-4.9-2.58-4.78-5.21c.12-2.81,2.49-4.78,5.21-4.78ZM826.73,203.58c2.73,0,4.89,2.59,4.78,5.22-.13,2.81-2.5,4.77-5.22,4.77s-4.89-2.58-4.78-5.21c.13-2.81,2.5-4.78,5.22-4.78ZM870.43,229.42c-14.96-.06-29.98.89-44.92.47-5.43-1.11-3.65-9.17,1.78-7.83,14.41-.1,28.82-.57,43.24-.64,8.21-1.11,8.14,9.17-.1,8ZM878.17,210.04c-.53,3.61-4.76,4.55-7.3,2.18-7.61-5.87-14.22-12.96-21.07-19.68-1.56-1.83-3.51-3.57-4.21-5.93-.75-6.41,6.19-10.24,10.62-13.55,4.13-3.02,8-6.37,11.99-9.58-4.95-4.81-10.23-9.26-15.27-13.98-2.18-2.13-4.84-4.02-6.2-6.82-1.63-4.96,4.32-10.32,7.57-13.43,3.79-3.57,7.29-7.45,11.32-10.74-5.8-5.46-11.79-10.72-17.08-16.69-3.32-2.87-4.98-5.97-1.52-9.61,6.45-7.13,13.77-13.4,21.28-19.37,1.75-1.52,4.51-1.33,5.91.57,1.29,1.72.96,4.33-.81,5.6-6.76,5.29-13.25,10.94-19.18,17.17,4.24,4.82,8.94,9.15,13.64,13.5,3.51,3.43,10.75,7.95,5.2,13-4.7,3.75-8.86,8.1-13.16,12.29-1.78,1.7-3.75,3.28-4.94,5.48,5.12,5,10.59,9.6,15.82,14.47,3.91,4.04,11.36,8.01,4.25,13.31-3.71,3.08-7.49,6.07-11.21,9.14-3.18,2.72-7.12,4.58-9.87,7.79,5.37,5.92,11.26,11.38,17.1,16.84,1.46,1.31,2.94,2.61,4.52,3.75,1.7.64,2.88,2.43,2.6,4.29ZM876.87,186.53c-.12,2.81-2.49,4.78-5.21,4.78s-4.9-2.59-4.78-5.22c.12-2.81,2.49-4.77,5.21-4.77s4.9,2.58,4.78,5.21Z"/>
      <g>
        <path class="cls-1" d="M1102.31,91.01c-7.68-12.92-17.12-25.29-29.1-34.57-17.91-11.69-39.82-16.29-60.98-17-12.1-.8-24.59-.08-36.51,2.47-13.76,3.75-27.15,10.08-37.66,19.98-26.4,26.66-33.63,68.17-24.62,103.82,4.74,17.45,13.74,34.78,27.64,46.69,17.19,13.65,38.58,21.96,60.22,25.15,4.35.56,8.73.84,13.11.84,20.14,0,40.25-5.93,56.47-18.15,21.97-16.93,38.21-42.43,42.07-70.1,3.02-20-1.81-41.1-10.64-59.13ZM1091.37,115.96c-1.56.1-3.11.03-4.67-.02-11.19-.3-22.39-.52-33.59-.57-3.28-.13-8.16,1.04-8.76-3.53-.22-6.2,7.4-4.16,11.37-4.46,11.6.04,23.19.4,34.78.63,5.22-.41,6.08,7.29.87,7.95ZM1050.23,143.55c-6.84-4.14-8.24-14.18-1.83-19.36,6.03-6.15,15.92-5.08,20.28,2.41,7.26,13.27-5.83,25.12-18.45,16.95ZM1085.23,92c3.46.35,4.62,5.32,1.74,7.21-.86.61-1.84.8-2.58.73-4.11-.33-8.23-.4-12.35-.35-9.28.03-18.56-.16-27.83-.23-1.94.04-3.98.8-5.72-.28-1.89-1.17-2.39-3.63-1.29-5.51,1.73-3.78,15.92-1.65,20.12-2.06,9.3.22,18.64-.27,27.91.49ZM1035.67,73.35c2.28-2.6,4.65-5.13,6.94-7.73,1.84-2.09,3.62-4.24,5.53-6.27,1.05-1.12,2.18-2.04,3.84-1.95,1.61.09,2.99,1.16,3.55,2.65,3.97,4.38,8.3,8.59,11.88,13.18,3.43,3.97-2.26,9.21-5.9,5.41-3.1-3.9-6.51-7.52-9.99-11.09-3.3,3.93-6.85,7.63-10.2,11.51-1.34,2.82-5.73,2.89-7.12.03-1.1-2.03-.01-4.24,1.47-5.74ZM1011.22,80.01c.21-3.32.28-6.66.38-9.99.2-6.3.05-12.6.04-18.9.18-5.24,7.92-5.17,8,.09.16,9.55.06,19.1-.4,28.64-.28,1.92-.05,3.89-.27,5.79-.51,1.99-2.65,3.26-4.64,2.84h-.08c-3.78-.81-3.4-5.42-3.03-8.47ZM1002.43,53.13c.24,8.27.2,16.55.62,24.82,0,3.61.9,7.3.58,10.88-.66,2.1-2.83,3.4-4.92,2.79-2.36-.61-3.1-3.02-3.07-5.19-.44-5.33-.77-10.67-.86-16.02-.13-5.79-.18-11.58-.35-17.37.19-5.24,7.85-5.2,8,.09ZM996.06,115.65c2.06-7.14,7.11-14.76,14.7-16.91,1.58-.3,3.25-.48,4.93-.48,4.37,0,8.8,1.21,11.84,4.53,6.12,6.35,6.35,15.73,7.32,24.14,1.09,16.45-1.37,41.13-22.75,41.36-9.61-.04-14.01-10.72-16.25-18.64-1.43-4.56-1.74-9.72-1.5-14.6-.6-6.52.01-12.98,1.71-19.4ZM927.02,117.46c.09-2.79,2.44-4.84,5.16-4.84s4.92,2.51,4.84,5.16c-.09,2.79-2.45,4.84-5.17,4.84s-4.92-2.51-4.83-5.16ZM929.99,166.2c.09-2.79,2.44-4.84,5.16-4.84s4.92,2.51,4.84,5.17c-.09,2.79-2.44,4.83-5.17,4.83s-4.92-2.5-4.83-5.16ZM953.46,207.37c-1.63-.99-2.9-2.55-4.22-3.91-3.97-4.26-8.53-7.96-12.41-12.28-3.93-5.31,2.84-7.79,5.95-11.01,5.08-4.1,9.85-8.58,14.18-13.47-4.48-4.88-9.4-9.32-14.16-13.93-2.14-2.12-4.25-4.3-6.22-6.58-2.2-2.13-2.49-5.26-.3-7.51,7.17-8.4,15.94-15.27,23.35-23.45-4.23-3.93-8.82-7.43-13.36-10.99-2.43-1.95-4.95-3.8-7.46-5.66-3.29-1.92-3.88-5.87-.77-8.28,6.71-7.14,14.21-13.82,21.18-20.35-1.46-1.48-2.84-3.04-4.2-4.61-3.23-4.13,2.77-9.03,6.21-5.05,1.27,1.46,2.54,2.92,3.92,4.28,1.91,1.59,4.05,3.47,3.43,6.23-.6,2.4-2.87,3.89-4.53,5.57-6.17,5.71-12.41,11.37-18.27,17.4,6.91,5.27,13.82,10.55,20.21,16.44,3.03,2.19,3.85,5.77,1.1,8.58-7.07,8.48-15.9,15.31-23.33,23.46,4.91,5.35,10.37,10.13,15.48,15.28,2.26,2.67,5.59,4.82,6.65,8.26.59,2.81-1.81,4.94-3.51,6.81-5.16,5.86-11.06,10.95-17.08,15.89,4.3,3.9,8.3,8.09,12.43,12.15,0,.01.01.01.01.01,3.87,2.81.1,9.06-4.28,6.72ZM968.13,189.42c5.41,6.44,10.26,13.31,15.54,19.83,1.72,1.05,2.63,3.03,1.94,5.05-1.85,4.2-6.17,2.89-8.39-.26-4.46-5.39-8.35-11.23-12.88-16.58-7.77-8.31-5.08-10.41,1.77-17.82,4.23-4.53,8.94-9.64,12.87-14.13-5.56-6.59-11.84-12.52-17.48-19.04-2.17-2.16-3.6-5.47-1.37-8.14,5.38-8.39,13.33-14.69,19.28-22.66-24.72-31.21-20.3-15.36,3.54-46.67-2.67-3.59-5.73-6.88-9-9.93-3.73-3.68,1.58-9.32,5.5-5.81,3.35,3.51,13.03,11.93,11.91,16.86-1.43,4.03-4.91,6.99-7.51,10.3-3.81,4.65-7.97,8.98-12.11,13.34,4.24,5.27,8.8,10.25,12.9,15.63,3.16,3.68,5.15,6.5,1.39,10.75-5.46,7.64-12.92,13.6-18.34,21.26,26.3,29.87,26.51,17.99.44,48.02ZM989.84,184.23c-.22-2.03,1.28-4.03,3.32-4.32,1.72-.33,3.18.71,4.26,1.89,4.33,2.66,9.19,4.8,14.32,5.04,7.86.36,14.45-4.77,19.16-10.59,1.93-2.62,3.99-5.72,7.56-3.4,1.77,1.31,2.11,3.83.84,5.6-2.06,2.88-4.45,5.6-7.04,8.01-5.8,5.51-13.71,9.03-21.81,8.32-4.79-.08-20.3-5.14-20.61-10.55ZM1006.97,213.48c-1.97-.09-3.91-.11-5.79-.68.13.02.26.05.38.08.05,0,.11,0,.16.01-6.35-1.03-3.69-10,2.1-7.63,5.88.48,11.98.76,17.63-1.19,8.83-3.08,17.16-8.17,22.3-16.17,2.42-3,4.15-9.97,9.2-7.38,1.87,1.11,2.53,3.62,1.41,5.48-2.07,3.43-4.16,6.82-6.65,9.97-9.6,11.69-25.6,18.86-40.74,17.51ZM1073.57,192.17c-1.67,3.33-3.42,6.62-5.65,9.61-6.74,8.8-23.52,21.95-34.8,22.27-2.13-.48-3.43-2.88-2.86-4.96.38-1.72,2.03-2.85,3.72-2.93,2.44-.66,4.77-1.67,7.05-2.74,10.79-5.67,20.66-13.99,25.65-25.32,1.59-3.04,6.57-2.31,7.31.99.29,1.08.08,2.11-.42,3.08ZM1087.04,175.88c-11.43.11-22.88.38-34.31.03-4.55.04-5.43-6.75-1.01-7.86,11.74-.06,23.53.1,35.29-.17,5.23.1,5.29,7.84.03,8ZM1094.31,160.13c-12.18-.39-24.36-.21-36.54-.46-3.64-.09-7.31-.09-10.92-.55-2.16-.27-3.68-2.44-3.36-4.55.41-2.73,3.19-3.84,5.65-3.23,15.09.76,30.22.31,45.33.79,5.23.23,5.09,7.98-.16,8ZM1083.95,143.05c-8.87-3.81-11.29-16.55-2.78-22.12,2.54-2.21,6.02-2.25,9.18-1.71,4.16.73,7.38,3.95,9.07,7.69,4.99,9.79-5.53,20.55-15.47,16.14Z"/>
        <path class="cls-1" d="M1088.52,136.03c-5.03-.36-6.83-8.66-.87-9.07,5.38-.12,7.27,9,.87,9.07Z"/>
        <path class="cls-1" d="M1058.57,138.19c-3.05-.08-6.7-2.43-6.34-5.82,7.18-12.21,15.9,5.66,6.34,5.82Z"/>
      </g>
      <g>
        <path class="cls-1" d="M1494.76,333.86c-7.25-12.19-16.15-23.86-27.46-32.62-16.9-11.03-37.57-15.37-57.54-16.04-11.42-.75-23.2-.08-34.45,2.33-12.98,3.54-25.62,9.51-35.53,18.85-24.91,25.15-31.73,64.32-23.23,97.96,4.47,16.46,12.96,32.82,26.08,44.05,16.22,12.88,36.4,20.72,56.82,23.73,4.1.53,8.24.79,12.37.79,19,0,37.98-5.6,53.28-17.13,20.73-15.97,36.05-40.03,39.69-66.14,2.85-18.87-1.71-38.78-10.04-55.79ZM1484.44,357.4c-1.47.09-2.93.03-4.41-.02-10.56-.28-21.13-.49-31.69-.54-3.09-.12-7.7.98-8.27-3.33-.21-5.85,6.98-3.93,10.73-4.21,10.94.04,21.88.38,32.82.59,4.93-.39,5.74,6.88.82,7.5ZM1445.62,383.43c-6.45-3.91-7.77-13.38-1.73-18.27,5.69-5.8,15.02-4.79,19.13,2.27,6.85,12.52-5.5,23.7-17.41,15.99ZM1478.64,334.79c3.26.33,4.36,5.02,1.64,6.8-.81.58-1.74.75-2.43.69-3.88-.31-7.77-.38-11.65-.33-8.76.03-17.51-.15-26.26-.22-1.83.04-3.76.75-5.4-.26-1.78-1.1-2.26-3.43-1.22-5.2,1.63-3.57,15.02-1.56,18.98-1.94,8.77.21,17.59-.25,26.33.46ZM1431.88,317.19c2.15-2.45,4.39-4.84,6.55-7.29,1.74-1.97,3.42-4,5.22-5.92.99-1.06,2.06-1.92,3.62-1.84,1.52.08,2.82,1.09,3.35,2.5,3.75,4.13,7.83,8.11,11.21,12.44,3.24,3.75-2.13,8.69-5.57,5.1-2.92-3.68-6.14-7.1-9.43-10.46-3.11,3.71-6.46,7.2-9.62,10.86-1.26,2.66-5.41,2.73-6.72.03-1.04-1.92,0-4,1.39-5.42ZM1408.81,323.48c.2-3.13.26-6.28.36-9.43.19-5.94.05-11.89.04-17.83.17-4.94,7.47-4.88,7.55.09.15,9.01.06,18.02-.38,27.02-.26,1.81-.05,3.67-.25,5.46-.48,1.88-2.5,3.08-4.38,2.68h-.08c-3.57-.76-3.21-5.11-2.86-7.99ZM1400.52,298.12c.23,7.8.19,15.62.58,23.42,0,3.41.85,6.89.55,10.27-.62,1.98-2.67,3.21-4.64,2.63-2.23-.58-2.92-2.85-2.9-4.9-.42-5.03-.73-10.07-.81-15.12-.12-5.46-.17-10.93-.33-16.39.18-4.94,7.41-4.91,7.55.09ZM1394.51,357.11c1.94-6.74,6.71-13.93,13.87-15.96,1.49-.28,3.07-.45,4.65-.45,4.12,0,8.3,1.14,11.17,4.27,5.77,5.99,5.99,14.84,6.91,22.78,1.03,15.52-1.29,38.81-21.47,39.02-9.07-.04-13.22-10.11-15.33-17.59-1.35-4.3-1.64-9.17-1.42-13.78-.57-6.15,0-12.25,1.61-18.3ZM1329.37,358.81c.08-2.63,2.3-4.57,4.87-4.57s4.64,2.37,4.57,4.87c-.08,2.63-2.31,4.57-4.88,4.57s-4.64-2.37-4.56-4.87ZM1332.17,404.8c.08-2.63,2.3-4.57,4.87-4.57s4.64,2.37,4.57,4.88c-.08,2.63-2.3,4.56-4.88,4.56s-4.64-2.36-4.56-4.87ZM1354.31,443.65c-1.54-.93-2.74-2.41-3.98-3.69-3.75-4.02-8.05-7.51-11.71-11.59-3.71-5.01,2.68-7.35,5.61-10.39,4.79-3.87,9.29-8.1,13.38-12.71-4.23-4.6-8.87-8.79-13.36-13.14-2.02-2-4.01-4.06-5.87-6.21-2.08-2.01-2.35-4.96-.28-7.09,6.77-7.93,15.04-14.41,22.03-22.13-3.99-3.71-8.32-7.01-12.61-10.37-2.29-1.84-4.67-3.59-7.04-5.34-3.1-1.81-3.66-5.54-.73-7.81,6.33-6.74,13.41-13.04,19.98-19.2-1.38-1.4-2.68-2.87-3.96-4.35-3.05-3.9,2.61-8.52,5.86-4.76,1.2,1.38,2.4,2.76,3.7,4.04,1.8,1.5,3.82,3.27,3.24,5.88-.57,2.26-2.71,3.67-4.27,5.26-5.82,5.39-11.71,10.73-17.24,16.42,6.52,4.97,13.04,9.95,19.07,15.51,2.86,2.07,3.63,5.44,1.04,8.1-6.67,8-15,14.45-22.01,22.14,4.63,5.05,9.78,9.56,14.61,14.42,2.13,2.52,5.27,4.55,6.27,7.79.56,2.65-1.71,4.66-3.31,6.43-4.87,5.53-10.44,10.33-16.12,14.99,4.06,3.68,7.83,7.63,11.73,11.46,0,0,0,0,0,0,3.65,2.65.09,8.55-4.04,6.34ZM1368.16,426.71c5.1,6.08,9.68,12.56,14.66,18.71,1.62.99,2.48,2.86,1.83,4.76-1.75,3.96-5.82,2.73-7.92-.25-4.21-5.09-7.88-10.6-12.15-15.64-7.33-7.84-4.79-9.82,1.67-16.81,3.99-4.27,8.44-9.1,12.14-13.33-5.25-6.22-11.17-11.81-16.49-17.96-2.05-2.04-3.4-5.16-1.29-7.68,5.08-7.92,12.58-13.86,18.19-21.38-23.32-29.45-19.15-14.49,3.34-44.03-2.52-3.39-5.41-6.49-8.49-9.37-3.52-3.47,1.49-8.79,5.19-5.48,3.16,3.31,12.29,11.26,11.24,15.91-1.35,3.8-4.63,6.6-7.09,9.72-3.59,4.39-7.52,8.47-11.43,12.59,4,4.97,8.3,9.67,12.17,14.75,2.98,3.47,4.86,6.13,1.31,10.14-5.15,7.21-12.19,12.83-17.3,20.06,24.81,28.18,25.01,16.97.42,45.31ZM1388.64,421.81c-.21-1.92,1.21-3.8,3.13-4.08,1.62-.31,3,.67,4.02,1.78,4.09,2.51,8.67,4.53,13.51,4.76,7.42.34,13.63-4.5,18.08-9.99,1.82-2.47,3.76-5.4,7.13-3.21,1.67,1.24,1.99,3.61.79,5.28-1.94,2.72-4.2,5.28-6.64,7.56-5.47,5.2-12.94,8.52-20.58,7.85-4.52-.08-19.15-4.85-19.45-9.95ZM1404.8,449.41c-1.86-.09-3.69-.1-5.46-.64.12.02.25.05.36.08.05,0,.1,0,.15,0-5.99-.97-3.48-9.44,1.98-7.2,5.55.45,11.3.72,16.63-1.12,8.33-2.91,16.19-7.71,21.04-15.26,2.28-2.83,3.92-9.41,8.68-6.96,1.76,1.05,2.39,3.42,1.33,5.17-1.95,3.24-3.93,6.43-6.27,9.41-9.06,11.03-24.15,17.8-38.44,16.52ZM1467.64,429.3c-1.58,3.14-3.23,6.25-5.33,9.07-6.36,8.3-22.19,20.71-32.83,21.01-2.01-.45-3.24-2.72-2.7-4.68.36-1.62,1.92-2.69,3.51-2.76,2.3-.62,4.5-1.58,6.65-2.59,10.18-5.35,19.49-13.2,24.2-23.89,1.5-2.87,6.2-2.18,6.9.93.27,1.02.08,1.99-.4,2.91ZM1480.35,413.93c-10.78.1-21.59.36-32.37.03-4.29.04-5.12-6.37-.95-7.42,11.08-.06,22.2.09,33.3-.16,4.93.09,4.99,7.4.03,7.55ZM1487.21,399.07c-11.49-.37-22.98-.2-34.48-.43-3.43-.09-6.9-.09-10.3-.52-2.04-.25-3.47-2.3-3.17-4.29.39-2.58,3.01-3.62,5.33-3.05,14.24.72,28.51.29,42.77.75,4.93.22,4.8,7.53-.15,7.55ZM1477.44,382.96c-8.37-3.59-10.65-15.62-2.62-20.87,2.4-2.09,5.68-2.12,8.66-1.61,3.93.69,6.96,3.73,8.56,7.26,4.71,9.24-5.22,19.39-14.6,15.23Z"/>
        <path class="cls-1" d="M1481.75,376.33c-4.75-.34-6.44-8.17-.82-8.56,5.08-.11,6.86,8.49.82,8.56Z"/>
        <path class="cls-1" d="M1453.49,378.37c-2.88-.08-6.32-2.29-5.98-5.49,6.77-11.52,15,5.34,5.98,5.49Z"/>
      </g>
      <g>
        <path class="cls-1" d="M1320.8,290.44c-.24-.25-.54-.39-.86-.43-.19-.09-.42-.16-.69-.16-5.26-.36-10.54-.58-15.81-.91-16.73-.95-33.54-1.71-50.31-2.01-.67-.07-1.17.32-1.42.85-.08.1-.14.22-.19.35-5.38,10.86-11.81,21.33-18.07,31.74-1.98,3.17-3.68,6.5-5.58,9.73-2.56-3.73-5.13-7.44-7.73-11.13-7.76-10.82-15.79-21.46-23.6-32.25-.28-.45-.65-.69-1.04-.76-.15-.07-.32-.1-.51-.11-25.52-.92-51.14-.89-76.63.53-3.01.13-6,.42-9.01.59-.41,0-.92-.03-1.36.39-.22.19-.34.42-.42.67-.34.59-.31,1.48.49,2.42,23.73,36.95,46.09,74.74,69.77,111.72-11.06,23.18-23.64,45.86-35.36,68.68,0,.58.28,1,.7,1.25.26.26.62.43,1.03.47,6.01.52,12.05.81,18.08.87,19.78-.19,39.49-.19,59.26-1.11,1.27-.07,2.54-.21,3.8-.39.61.06,1.19-.35,1.44-.89.87-1.55,1.87-3,2.73-4.55,5.3-9.15,9.87-18.63,14.8-28.02,8.01-15.3,15.77-30.88,23.74-46.24,5.79-10.85,11.7-21.57,17.36-32.51,11.74-21.16,24.28-41.92,34.22-64.02.42-1.49,2.36-3.26,1.15-4.75ZM1280.13,301.69c.47-.92,1.12-1.64,2.1-2.02,2.93-1.26,6.28,2.13,4.81,5.03-.86,1.68-1.6,3.42-2.39,5.12-2.67,5.76-5.3,11.53-7.74,17.39-.71,1.74-1.47,3.45-2.32,5.12-.37.98-1.13,1.81-2.17,2.21-1.89.74-4.14-.24-4.88-2.17-.78-1.92.46-3.66,1.25-5.35,1.39-3.19,2.71-6.43,4.12-9.61,1.39-3.21,2.87-6.38,4.34-9.55.95-2.06,1.83-4.15,2.87-6.17ZM1273.05,305.59c-2.92,7.22-6.67,14.07-9.98,21.12,0,0,0,.02,0,.03-1.04,3.13-5.94,3.38-7.08.08-.92-2.89,1.75-5.68,2.67-8.34,2.59-5.26,5.32-10.44,7.48-15.9,2.08-4.48,8.78-1.58,6.92,3.02ZM1247.32,315.04c2.12-4.5,4.38-8.94,6.75-13.33,2.48-4.27,8.9-.76,6.61,3.63-2.31,4.29-4.53,8.63-6.59,13-1.32,2.63-2.42,7.13-6.27,6.12-5.09-1.98-2.02-6.05-.5-9.43ZM1232.55,367.85c-3.36,6.21-6.77,12.4-9.8,18.78-2.66,5.18-5.1,10.63-7.5,15.76-1.25,2.78-2.84,7.33-6.74,5.87-2.09-.78-3.09-3.47-1.94-5.4,1.18-1.84,2.01-4.13,2.93-5.96,5.11-11.24,10.47-21.9,16.43-32.66,2.44-4.27,8.89-.82,6.62,3.61ZM1237.72,370.21c2.48-4.27,8.91-.8,6.63,3.6-1.88,3.26-3.55,6.63-5.19,10-3.93,8.03-7.65,16.13-11.42,24.22-1.11,2.1-2.07,5.23-4,6.6-1.39.8-3.4.74-4.55-.49-1.28-1.31-1.59-3.37-.51-4.91,1.87-3.25,3.08-6.34,4.57-9.39,4.69-9.94,9.12-20.03,14.46-29.64ZM1202.7,317.77c2.57,0,4.79,1.89,4.9,4.53.09,2.49-1.96,4.9-4.53,4.9s-4.8-1.89-4.91-4.53c-.09-2.49,1.96-4.9,4.54-4.9ZM1162.46,294.05c.92-1.92,3.15-2.56,5.04-1.75,5.12,2.27,10.31,4.32,15.68,5.96,3.14,1.22,6.65,1.87,9.38,3.96,3.44,2.77.83,7.28-.2,10.63-2.08,6.02-4.79,11.85-7.28,17.67,5.56,1.51,11.06,3.21,16.59,4.79,3.46.93,7.72,1.75,10.93,3.02,4.87,1.03,3.41,8.3-1.43,7.41-8.24-2.52-16.67-4.46-24.91-7.05-3.4-.96-7.99-1.68-9.02-5.66-.61-2.72.88-5.31,1.91-7.74,2.6-5.9,5.16-11.81,7.14-17.96-6.02-2.23-12.26-3.85-18.08-6.58-3.13-1.35-7.43-2.25-5.74-6.72ZM1149.92,328.57c-2.57,0-4.79-1.89-4.9-4.53-.09-2.49,1.96-4.91,4.53-4.91s4.8,1.89,4.91,4.54c.09,2.49-1.96,4.9-4.54,4.9ZM1173.02,367.94c-2.57,0-4.79-1.89-4.9-4.53-.09-2.49,1.96-4.9,4.53-4.9s4.79,1.89,4.9,4.53c.1,2.49-1.95,4.9-4.53,4.9ZM1169.75,347.81c-3.51-1.57-8.26-2.14-10.34-5.71-1.18-2.73-.05-5.75.53-8.49,1.42-5.33,2.93-10.64,4.56-15.92-3.16-1.29-5.9-2.63-8.98-3.91-4.93-1.98-10.11-3.32-14.77-5.95-.61-.26-1.23-.49-1.86-.7-3.12-1.02-3.16-5.84-.12-6.99,3.24-1.05,6.27,1.69,9.16,2.82,7.06,2.44,13.48,5.02,20.29,8.12,5.75,2.06,5.03,4.78,3.2,9.71-1.68,5.87-3.55,11.71-4.84,17.69,5.6,2.18,11.18,4.36,16.67,6.79,2.64,1.08,5.26,2.22,7.92,3.24,1.97.86,4.24,1.48,5.75,3.09,1.57,1.94.61,4.4,0,6.5-1.06,3.61-2.25,7.17-3.35,10.67-1.33,4.1-2.32,7.71-3.59,11.7-.61,1.86-1,4.04-3,4.92-1.85.82-4.15-.1-4.95-1.99-.42-.97-.38-2.02,0-2.93,2.68-8.11,5.07-16.56,7.66-24.42-6.72-2.55-13.26-5.56-19.93-8.24ZM1168.36,457.12c-3.29-1.37-2.55-4.9-1.09-7.4,2.42-4.8,4.71-9.66,7.06-14.51,6.3-12.29,12.6-24.61,19.14-36.79,8.05-14.8,14.83-30.36,23.55-44.77,3.24-3.27,8.29.92,5.89,4.65.05-.07.08-.12.12-.19-6.73,11.48-12.24,23.61-18.48,35.35-6.62,12.71-13.4,25.34-19.88,38.13-3.22,5.96-6.01,12.14-9.02,18.21-1.94,3.02-2.47,8.86-7.29,7.31ZM1205.4,452.71c-1.89,7.01-10.27,11.77-16.96,8.11-6.19-2.92-7.8-11.95-3.89-17.31,3.29-4.93,10.58-7.09,15.73-3.83,4.16,2.66,6.32,8.25,5.12,13.03ZM1203.26,436.82c-9.3-5.43-7.61-19.23,2.95-22.09,7.38-2.53,15.48,4.2,13.62,11.92-.68,8.5-8.57,14.21-16.57,10.17ZM1260.25,377.32c-.86,1.96-1.97,3.8-2.94,5.7-9.78,18.42-19.13,37.04-28.44,55.72-2.42,5.24-5.09,10.36-7.64,15.54-.85,1.88-2.02,4.23-4.41,4.22,0,0,.02,0,.03-.02-3.08.3-5.14-3.7-3.17-6.04,2.01-3.87,3.88-7.82,5.89-11.69,6.88-14.35,14.06-28.57,21.39-42.69,3.98-7.84,8.1-15.61,12.22-23.36,1.86-4.51,8.67-2.04,7.08,2.63ZM1265.86,364.82c-7.39-3.59-14.53-7.7-22.02-11.1-4.2-2.07-8.7-3.72-12.54-6.42-.04-.03-.07-.05-.1-.08-.06-.04-.11-.08-.17-.12-2.79-2.08-1.13-7.04,2.53-6.74,1.6.11,2.63,1.31,4,1.96,2.96,1.59,6.09,2.93,9.12,4.38,7.61,3.45,14.87,7.61,22.38,11.27,4.43,2.28,1.35,8.82-3.2,6.84ZM1272.03,350.26c-5.57-2.78-11.32-5.17-16.96-7.82-5.58-2.76-11.46-5.26-16.58-8.78-3.04-3.72,1.74-8.32,5.44-5.34,10.08,5.75,20.88,10.02,31.29,15.12,4.42,2.27,1.35,8.81-3.2,6.83ZM1298.86,304.97c-.89,1.75-1.67,3.55-2.5,5.32-1.42,3.01-2.79,6.05-4.18,9.07-2.75,5.93-5.71,11.75-8.46,17.65-.65,2.02-3.16,3.09-5.09,2.21-4.93-2.46-.29-7.77.99-11.17,4.46-8.83,8.38-17.92,12.69-26.82,1.53-2.91,6.28-2.12,6.92,1.06.24.99.02,1.93-.37,2.68Z"/>
        <path class="cls-1" d="M1212.38,425.18c-.13,2.09-.91,5.09-3.35,5.38-2.67.37-4.41-2.2-4.33-4.63.14-2.59,2.9-4.26,5.31-4.13,1.56.19,2.89,1.85,2.37,3.39Z"/>
        <path class="cls-1" d="M1193.87,454.54c-3.95-.06-3.65-2.75-3.66-5.76.92-2.34,4.19-4.12,6.41-2.47,3.03,2.84,1.19,7.56-2.75,8.23Z"/>
      </g>
      <g>
        <path class="cls-1" d="M176.99,340.36c-6.11-39.41-50.72-51.93-84.99-54.99-20.87-2.16-41.93-2.74-62.86-.81-6.44.55-12.93.84-19.28,2.11-1.1-.37-2.15.73-1.89,1.81.06.26.17.48.32.66,0,.05,0,.1,0,.15.44,4.59.51,9.19.43,13.79-.52,29.53.9,59.07,1.71,88.59.71,26.32.35,52.65,2.09,78.93.03.21.08.38.16.54-.04.42.08.87.41,1.2,1.13.83,2.76.38,4.1.58,20.67-.11,41.36.11,62.02-.89h.04s.02,0,.02,0c1.64-.38,4.81.57,5.09-1.75,0-.04,0-.07,0-.1.17-.28.26-.62.26-.98.51-7.44.75-15.04.77-22.52-.14-4.48,0-8.96.08-13.45,2.27-.1,4.55-.18,6.82-.31,14.14-.8,28.32-2.99,41.72-7.69,24.81-8.22,40.46-33.11,44.37-58.11,1.06-8.89.18-17.94-1.41-26.75ZM160.98,336.2c-3.15-.61-7.5.66-9.65-2.27-.89-1.39-.71-3.29.35-4.48,1.02-1.15,2.6-1.6,4.02-1.15,1.96.19,3.94.22,5.91.39,4.93.52,4.31,7.81-.62,7.52ZM120.3,305.18c4.12-5.19,10.95.64,7.8,5.28-1.16,1.87-3.52,2.76-5.6,2-2.91-1.01-4.1-4.81-2.21-7.28ZM97.01,294.11c2.02-.09,3.89,1.54,3.94,3.59.23,7.55.38,15.1.71,22.64.1,2.35.18,4.71.36,7.05.52,2.55-1.98,4.95-4.51,4.37-3.29-.64-3.08-4.3-3.18-6.94-.19-3.15-.31-6.31-.42-9.46-.2-5.77-.35-11.54-.5-17.3-.06-2.06,1.51-3.84,3.59-3.94ZM25.39,386.74c-.14,0-.28-.02-.42-.03,14.56-.07,29.11-1,43.66-1.32,4.95.15,4.96,7.38-.03,7.56-14.92.16-29.88,1.56-44.79,1.16-2-.47-3.16-2.74-2.62-4.65.56-1.98,2.53-3.03,4.47-2.66-.09-.02-.19-.04-.27-.06ZM68.41,377.4c-13.78-.22-27.57.99-41.3,1.26-.68,0-1.36-.02-2.03,0-3.25.46-5.8-3.9-3.07-6.46,1.34-1.32,3.21-1.08,4.93-1.07,2.29,0,4.58-.05,6.87-.18,11.52-.66,23.08-1.17,34.63-1.1,4.93.13,4.94,7.44-.03,7.55ZM40.46,363.51c-2.69,1.4-5.88,1.82-8.89,1.43-10.5-1.26-15.03-12.14-7.87-20.16,4.04-4.61,11.56-5.23,16.79-2.42,2.54,1.19,5.19,2.94,5.93,5.8,1.94,5.52-.92,12.47-5.97,15.34ZM24.59,404c5.24-.34,10.48-.54,15.24-.81,5.64-.35,11.29-.61,16.46-.93,4.4-.28,8.79-.47,13.19-.64,4.94.14,4.97,7.37-.02,7.56-11.45.37-22.87,1.21-34.31,1.82-2.61.11-5.23.21-7.83.36-2.96.56-6.3.09-6.47-3.59,0-2.07,1.75-3.76,3.75-3.76ZM57.33,364.48c-7.86-3.06-10.13-13.9-4.28-19.91,4.06-3.63,10.77-3.97,15.06-.56,3.43,2.53,6.5,6.58,5.69,11.08-1.32,7.19-9.57,12.1-16.46,9.39ZM73.66,332.16c.05,2.06-1.61,3.81-3.67,3.88-2.68.09-5.34.25-8.01.44-9.75.62-19.51,1.16-29.28.79-3.05-.18-6.3.38-9.29-.3h-.04s-.05,0-.08-.02c-.02,0-.03,0-.05,0-.45-.11-.9-.25-1.33-.42-3.08-1.59-2.2-6.57,1.24-7.03,10.21.5,20.52.49,30.76-.1,5.29-.24,10.57-.72,15.86-.9,2.06-.06,3.82,1.61,3.89,3.67ZM25.26,299.76c10.9-.25,21.75-1.4,32.66-1.67,3.14-.19,6.26-.39,9.4-.31,1.38,0,2.82.05,3.85,1.09,2.38,2.12.73,6.57-2.52,6.48-10.28,0-20.56.68-30.81,1.38-4.75.23-9.68.81-14.41.41-4.84-1.33-3.08-8.32,1.83-7.38ZM19.92,316.58c.58-2.38,3-3.23,5.19-2.74,10.36.18,20.72-.42,31.08-.56,3.25-.1,6.47-.25,9.71-.21,2.77-.19,6.13.23,6.29,3.69.06,2-1.61,3.9-3.67,3.89-2.83-.02-5.65-.06-8.48.05-10.26.31-20.5.59-30.76.75-3.69-.09-10.23.77-9.36-4.87ZM23.8,415.97c2.57,0,4.71,2.17,4.7,4.73,0,2.59-2.16,4.71-4.73,4.71s-4.72-2.17-4.71-4.74c0-2.58,2.17-4.7,4.74-4.7ZM25.64,464.28c-2.57,0-4.71-2.17-4.7-4.73,0-2.58,2.16-4.71,4.74-4.71s4.71,2.17,4.7,4.74c0,2.58-2.16,4.7-4.74,4.7ZM41.89,462.73c-4.59-4.27-9-8.74-13.45-12.81-3.43-3.26-10.93-8-6.98-13.34,3.38-4.04,8.21-6.47,12.13-9.92,3.01-2.65,5.81-5.51,8.61-8.36,2.19-1.82,5.89-.44,6.2,2.45.33,2.88-2.68,4.39-4.27,6.35-4.6,4.94-10.19,8.71-15.46,12.85,6.05,5.54,12.1,11.1,17.92,16.87,3.8,3.19-.76,8.91-4.7,5.91ZM62.54,462.85c-3.91-2.77-7.44-6.02-10.94-9.27-3.13-3.31-9.66-6.78-9.04-11.95.36-2.22,1.78-3.75,3.42-5.15,3.26-2.68,6.54-5.36,9.75-8.11,3.68-2.99,6.5-6.83,9.68-10.27,1.63-1.25,4.08-.86,5.29.76,2.27,3.1-1.21,5.73-2.93,8.06-5.08,5.96-11.28,10.58-17.18,15.55,5.45,4.99,10.7,10.11,16.64,14.45,3.81,3.16-.74,8.89-4.7,5.91ZM64.88,442.54c.21-6.23,9.5-6.22,9.65.03-.24,6.23-9.48,6.24-9.65-.03ZM86.14,298.9c.86,8.75,1.39,17.51,1.38,26.32.62,4.4-5.61,6.09-7.27,1.89-.65-4.05-.12-8.26-.46-12.36-.23-5.04-.74-10.07-1.15-15.09-.39-4.93,6.89-5.68,7.51-.75ZM86.23,423.04c-1.94.57-4.09-.62-4.65-2.61-1.44-9.91-2.12-19.94-2.46-29.95-.05-1.14-.04-2.3-.12-3.45-.64-1.93.74-4.1,2.62-4.62,1.97-.58,4.1.66,4.66,2.61.86,9.8.7,19.7,2.12,29.3.23,3.06,1.85,7.52-2.17,8.73ZM94.46,419.91c-1.09-11.28-1.61-22.67-2.49-34-.11-4.69,6.72-5.37,7.52-.7.66,11.2,1.64,21.7,2.25,32.66,1.15,4.83-5.8,6.78-7.27,2.04ZM104.44,366.92c-4.56,7.45-12.93,8.95-20.97,8.09.16-1.25-.28-2.93-.11-3.98-.1-5.62-.14-11.26-.11-16.88,0-5.61-.1-11.24-.36-16.85,6.19.3,12.83,0,18.3,3.46,7.84,5.78,9.09,18.49,3.26,26.16ZM115.65,301.32c.03,5.12.12,10.26.4,15.38,0,1.63.42,3.35-.08,4.93-1.22,3.36-6.09,3.27-7.16-.14-.57-6.57-.61-13.22-.7-19.82-.03-4.97,7.18-5.3,7.55-.35ZM109.11,406.49c-.6-2.15-.15-4.45-.31-6.65-.09-3.24-.34-6.47-.59-9.7-.3-4.93,6.98-5.58,7.53-.65.39,4.89.69,9.78.62,14.69.3,1.52-.08,3.23-1.47,4.1-1.98,1.47-4.96.52-5.77-1.79ZM132.15,410.85c-3.43,2.86-6.68,5.38-9.77,8.4-1.41,2.11-4.4,3.09-6.35,1.1-1.57-1.53-1.42-4.28.3-5.63,1.72-1.96,3.77-3.61,5.75-5.3,3.8-3.38,8.05-6.27,11.57-9.96-6.75-7.29-13.53-14.6-20.25-21.92-1.79-1.62-1.35-4.5.42-5.94,5.98-6.5,13.06-11.74,20.12-16.97-6.86-6.82-14.67-12.97-20.52-20.68-1.99-4.3,7.43-11.43,10.27-14.24,3.9-3.44,8.01-6.65,11.93-10.06,1.43-1.06,2.49-2.66,4.24-3.24,3.4-.99,6.16,3.23,3.97,5.98-7.13,6.81-15.63,12.36-22.16,19.82,4.9,5.26,10.32,10,15.44,15.04,4.16,4.08,9.47,7.08,2.8,12.14-6.17,5.23-13.14,9.49-18.67,15.47,5.21,5.76,10.43,11.44,15.77,17.07,9.42,8.32,2.37,12.95-4.83,18.92ZM114.7,354.39c-.11-2.47,1.92-4.93,4.5-4.93,1.27,0,2.46.38,3.43,1.25.9.84,1.44,2.02,1.5,3.25.12,2.48-1.92,4.93-4.49,4.93-1.28,0-2.47-.37-3.42-1.25-.91-.83-1.45-2.01-1.51-3.25ZM153.69,400.21c-1.05-.12-1.88-.67-2.55-1.45-1.75-2.02-3.53-4.02-5.2-6.11-2.32-3.04-4.75-6.01-6.95-9.13-1.04-1.52-2-3.08-2.91-4.68-1.09-1.56-1.92-3.46-.85-5.26,4.94-6.78,12.23-11.44,17.82-17.62-5.15-6.95-12.11-12.45-16.5-19.97-1.36-1.49-2.09-3.55-.89-5.36,4.36-6.32,11.13-10.42,15.85-16.45,3.26-3.37,8.56,1.05,5.76,4.86-4.03,5.15-9.43,8.94-13.78,13.77,3.6,6,9.18,10.45,13.45,15.96,3.93,4.34,5.99,7.72,1.42,12.64-4.76,5.15-10.65,9.14-15.25,14.48,2.43,4.29,5.72,8.02,8.67,11.95,1.7,2.18,3.56,4.24,5.36,6.33,2.1,2.45-.3,6.56-3.45,6.03ZM161.69,381.23c-1.94-.04-3.89-.14-5.83-.25-2.17,0-4.93-.15-5.88-2.45-1.38-2.84,1.52-6.2,4.53-5.17,2.59.19,5.2.27,7.79.35,4.91.44,4.35,7.85-.61,7.52Z"/>
        <path class="cls-1" d="M38.07,355.81c-.9,1.35-2.61,1.59-4.09,1.73-5.46.14-8.49-4.16-4.07-8.32,1.09-.68,2.29-.97,3.52-.97,2.08,0,4.2.85,5.8,2.14.83,1.84-.24,3.83-1.16,5.43Z"/>
        <path class="cls-1" d="M61.55,357.69c-1.88.11-3.66-1.57-4.14-3.3-.23-1.76-.06-4.26,1.92-4.88,2.84-1.23,5.53,1.08,6.88,3.42.61,2.47-2.39,4.67-4.66,4.76Z"/>
      </g>
      <g>
        <path class="cls-1" d="M547.09,340.36c-6.11-39.41-50.72-51.93-84.99-54.99-20.87-2.16-41.93-2.74-62.86-.81-6.44.55-12.93.84-19.28,2.11-1.1-.37-2.15.73-1.89,1.81.06.26.17.48.32.66,0,.05,0,.1,0,.15.44,4.59.51,9.19.43,13.79-.52,29.53.9,59.07,1.71,88.59.71,26.32.35,52.65,2.09,78.93.03.21.08.38.16.54-.04.42.08.87.41,1.2,1.13.83,2.76.38,4.1.58,20.67-.11,41.36.11,62.02-.89h.04s.02,0,.02,0c1.64-.38,4.81.57,5.09-1.75,0-.04,0-.07,0-.1.17-.28.26-.62.26-.98.51-7.44.75-15.04.77-22.52-.14-4.48,0-8.96.08-13.45,2.27-.1,4.55-.18,6.82-.31,14.14-.8,28.32-2.99,41.72-7.69,24.81-8.22,40.46-33.11,44.37-58.11,1.06-8.89.18-17.94-1.41-26.75ZM531.08,336.2c-3.15-.61-7.5.66-9.65-2.27-.89-1.39-.71-3.29.35-4.48,1.02-1.15,2.6-1.6,4.02-1.15,1.96.19,3.94.22,5.91.39,4.93.52,4.31,7.81-.62,7.52ZM490.4,305.18c4.12-5.19,10.95.64,7.8,5.28-1.16,1.87-3.52,2.76-5.6,2-2.91-1.01-4.1-4.81-2.21-7.28ZM467.11,294.11c2.02-.09,3.89,1.54,3.94,3.59.23,7.55.38,15.1.71,22.64.1,2.35.18,4.71.36,7.05.52,2.55-1.98,4.95-4.51,4.37-3.29-.64-3.08-4.3-3.18-6.94-.19-3.15-.31-6.31-.42-9.46-.2-5.77-.35-11.54-.5-17.3-.06-2.06,1.51-3.84,3.59-3.94ZM395.49,386.74c-.14,0-.28-.02-.42-.03,14.56-.07,29.11-1,43.66-1.32,4.95.15,4.96,7.38-.03,7.56-14.92.16-29.88,1.56-44.79,1.16-2-.47-3.16-2.74-2.62-4.65.56-1.98,2.53-3.03,4.47-2.66-.09-.02-.19-.04-.27-.06ZM438.52,377.4c-13.78-.22-27.57.99-41.3,1.26-.68,0-1.36-.02-2.03,0-3.25.46-5.8-3.9-3.07-6.46,1.34-1.32,3.21-1.08,4.93-1.07,2.29,0,4.58-.05,6.87-.18,11.52-.66,23.08-1.17,34.63-1.1,4.93.13,4.94,7.44-.03,7.55ZM410.56,363.51c-2.69,1.4-5.88,1.82-8.89,1.43-10.5-1.26-15.03-12.14-7.87-20.16,4.04-4.61,11.56-5.23,16.79-2.42,2.54,1.19,5.19,2.94,5.93,5.8,1.94,5.52-.92,12.47-5.97,15.34ZM394.69,404c5.24-.34,10.48-.54,15.24-.81,5.64-.35,11.29-.61,16.46-.93,4.4-.28,8.79-.47,13.19-.64,4.94.14,4.97,7.37-.02,7.56-11.45.37-22.87,1.21-34.31,1.82-2.61.11-5.23.21-7.83.36-2.96.56-6.3.09-6.47-3.59,0-2.07,1.75-3.76,3.75-3.76ZM427.43,364.48c-7.86-3.06-10.13-13.9-4.28-19.91,4.06-3.63,10.77-3.97,15.06-.56,3.43,2.53,6.5,6.58,5.69,11.08-1.32,7.19-9.57,12.1-16.46,9.39ZM443.76,332.16c.05,2.06-1.61,3.81-3.67,3.88-2.68.09-5.34.25-8.01.44-9.75.62-19.51,1.16-29.28.79-3.05-.18-6.3.38-9.29-.3h-.04s-.05,0-.08-.02c-.02,0-.03,0-.05,0-.45-.11-.9-.25-1.33-.42-3.08-1.59-2.2-6.57,1.24-7.03,10.21.5,20.52.49,30.76-.1,5.29-.24,10.57-.72,15.86-.9,2.06-.06,3.82,1.61,3.89,3.67ZM395.36,299.76c10.9-.25,21.75-1.4,32.66-1.67,3.14-.19,6.26-.39,9.4-.31,1.38,0,2.82.05,3.85,1.09,2.38,2.12.73,6.57-2.52,6.48-10.28,0-20.56.68-30.81,1.38-4.75.23-9.68.81-14.41.41-4.84-1.33-3.08-8.32,1.83-7.38ZM390.02,316.58c.58-2.38,3-3.23,5.19-2.74,10.36.18,20.72-.42,31.08-.56,3.25-.1,6.47-.25,9.71-.21,2.77-.19,6.13.23,6.29,3.69.06,2-1.61,3.9-3.67,3.89-2.83-.02-5.65-.06-8.48.05-10.26.31-20.5.59-30.76.75-3.69-.09-10.23.77-9.36-4.87ZM393.9,415.97c2.57,0,4.71,2.17,4.7,4.73,0,2.59-2.16,4.71-4.73,4.71s-4.72-2.17-4.71-4.74c0-2.58,2.17-4.7,4.74-4.7ZM395.74,464.28c-2.57,0-4.71-2.17-4.7-4.73,0-2.58,2.16-4.71,4.74-4.71s4.71,2.17,4.7,4.74c0,2.58-2.16,4.7-4.74,4.7ZM411.99,462.73c-4.59-4.27-9-8.74-13.45-12.81-3.43-3.26-10.93-8-6.98-13.34,3.38-4.04,8.21-6.47,12.13-9.92,3.01-2.65,5.81-5.51,8.61-8.36,2.19-1.82,5.89-.44,6.2,2.45.33,2.88-2.68,4.39-4.27,6.35-4.6,4.94-10.19,8.71-15.46,12.85,6.05,5.54,12.1,11.1,17.92,16.87,3.8,3.19-.76,8.91-4.7,5.91ZM432.64,462.85c-3.91-2.77-7.44-6.02-10.94-9.27-3.13-3.31-9.66-6.78-9.04-11.95.36-2.22,1.78-3.75,3.42-5.15,3.26-2.68,6.54-5.36,9.75-8.11,3.68-2.99,6.5-6.83,9.68-10.27,1.63-1.25,4.08-.86,5.29.76,2.27,3.1-1.21,5.73-2.93,8.06-5.08,5.96-11.28,10.58-17.18,15.55,5.45,4.99,10.7,10.11,16.64,14.45,3.81,3.16-.74,8.89-4.7,5.91ZM434.98,442.54c.21-6.23,9.5-6.22,9.65.03-.24,6.23-9.48,6.24-9.65-.03ZM456.25,298.9c.86,8.75,1.39,17.51,1.38,26.32.62,4.4-5.61,6.09-7.27,1.89-.65-4.05-.12-8.26-.46-12.36-.23-5.04-.74-10.07-1.15-15.09-.39-4.93,6.89-5.68,7.51-.75ZM456.33,423.04c-1.94.57-4.09-.62-4.65-2.61-1.44-9.91-2.12-19.94-2.46-29.95-.05-1.14-.04-2.3-.12-3.45-.64-1.93.74-4.1,2.62-4.62,1.97-.58,4.1.66,4.66,2.61.86,9.8.7,19.7,2.12,29.3.23,3.06,1.85,7.52-2.17,8.73ZM464.56,419.91c-1.09-11.28-1.61-22.67-2.49-34-.11-4.69,6.72-5.37,7.52-.7.66,11.2,1.64,21.7,2.25,32.66,1.15,4.83-5.8,6.78-7.27,2.04ZM474.54,366.92c-4.56,7.45-12.93,8.95-20.97,8.09.16-1.25-.28-2.93-.11-3.98-.1-5.62-.14-11.26-.11-16.88,0-5.61-.1-11.24-.36-16.85,6.19.3,12.83,0,18.3,3.46,7.84,5.78,9.09,18.49,3.26,26.16ZM485.75,301.32c.03,5.12.12,10.26.4,15.38,0,1.63.42,3.35-.08,4.93-1.22,3.36-6.09,3.27-7.16-.14-.57-6.57-.61-13.22-.7-19.82-.03-4.97,7.18-5.3,7.55-.35ZM479.21,406.49c-.6-2.15-.15-4.45-.31-6.65-.09-3.24-.34-6.47-.59-9.7-.3-4.93,6.98-5.58,7.53-.65.39,4.89.69,9.78.62,14.69.3,1.52-.08,3.23-1.47,4.1-1.98,1.47-4.96.52-5.77-1.79ZM502.25,410.85c-3.43,2.86-6.68,5.38-9.77,8.4-1.41,2.11-4.4,3.09-6.35,1.1-1.57-1.53-1.42-4.28.3-5.63,1.72-1.96,3.77-3.61,5.75-5.3,3.8-3.38,8.05-6.27,11.57-9.96-6.75-7.29-13.53-14.6-20.25-21.92-1.79-1.62-1.35-4.5.42-5.94,5.98-6.5,13.06-11.74,20.12-16.97-6.86-6.82-14.67-12.97-20.52-20.68-1.99-4.3,7.43-11.43,10.27-14.24,3.9-3.44,8.01-6.65,11.93-10.06,1.43-1.06,2.49-2.66,4.24-3.24,3.4-.99,6.16,3.23,3.97,5.98-7.13,6.81-15.63,12.36-22.16,19.82,4.9,5.26,10.32,10,15.44,15.04,4.16,4.08,9.47,7.08,2.8,12.14-6.17,5.23-13.14,9.49-18.67,15.47,5.21,5.76,10.43,11.44,15.77,17.07,9.42,8.32,2.37,12.95-4.83,18.92ZM484.81,354.39c-.11-2.47,1.92-4.93,4.5-4.93,1.27,0,2.46.38,3.43,1.25.9.84,1.44,2.02,1.5,3.25.12,2.48-1.92,4.93-4.49,4.93-1.28,0-2.47-.37-3.42-1.25-.91-.83-1.45-2.01-1.51-3.25ZM523.79,400.21c-1.05-.12-1.88-.67-2.55-1.45-1.75-2.02-3.53-4.02-5.2-6.11-2.32-3.04-4.75-6.01-6.95-9.13-1.04-1.52-2-3.08-2.91-4.68-1.09-1.56-1.92-3.46-.85-5.26,4.94-6.78,12.23-11.44,17.82-17.62-5.15-6.95-12.11-12.45-16.5-19.97-1.36-1.49-2.09-3.55-.89-5.36,4.36-6.32,11.13-10.42,15.85-16.45,3.26-3.37,8.56,1.05,5.76,4.86-4.03,5.15-9.43,8.94-13.78,13.77,3.6,6,9.18,10.45,13.45,15.96,3.93,4.34,5.99,7.72,1.42,12.64-4.76,5.15-10.65,9.14-15.25,14.48,2.43,4.29,5.72,8.02,8.67,11.95,1.7,2.18,3.56,4.24,5.36,6.33,2.1,2.45-.3,6.56-3.45,6.03ZM531.79,381.23c-1.94-.04-3.89-.14-5.83-.25-2.17,0-4.93-.15-5.88-2.45-1.38-2.84,1.52-6.2,4.53-5.17,2.59.19,5.2.27,7.79.35,4.91.44,4.35,7.85-.61,7.52Z"/>
        <path class="cls-1" d="M408.17,355.81c-.9,1.35-2.61,1.59-4.09,1.73-5.46.14-8.49-4.16-4.07-8.32,1.09-.68,2.29-.97,3.52-.97,2.08,0,4.2.85,5.8,2.14.83,1.84-.24,3.83-1.16,5.43Z"/>
        <path class="cls-1" d="M431.65,357.69c-1.88.11-3.66-1.57-4.14-3.3-.23-1.76-.06-4.26,1.92-4.88,2.84-1.23,5.53,1.08,6.88,3.42.61,2.47-2.39,4.67-4.66,4.76Z"/>
      </g>
      <g>
        <path class="cls-1" d="M370.77,467.99c-.38-1.48-.83-2.95-1.29-4.43-4.43-14.04-9.94-27.69-14.79-41.59-6.7-18.61-12.72-37.46-19.54-56.02-10.36-27.26-20.31-54.66-30.59-81.94-.19-.44-.29-.92-.51-1.35-.5-2.02-3.66-1.11-5.3-1.42-6.9-.15-13.76.21-20.68.29-12.01.25-24,.91-36.01,1.38-.97.18-2.53-.13-3.69.09-1.42-.13-1.96,1.88-2.66,2.98-10.78,22.66-20.99,45.64-31.39,68.52-8.68,18.28-17.68,36.33-25.83,54.88-6.56,14.03-12.93,28.08-19.57,42.08-2.71,4.99-4.56,10.34-7.21,15.36-.13.23-.2.49-.23.75-.47.99.44,2.3,1.56,2.15,22.29.5,44.56,2.55,66.86,3.05.39.02.85.03,1.29,0,.18.09.38.14.59.14,1.94-.21,1.9-2.89,2.74-4.26,1.49-3.87,3.01-7.74,4.64-11.55,1.68-3.9,3.21-7.86,4.78-11.8.18-.39.39-.86.53-1.33,1.46-.04,2.93-.06,4.4-.07,8.52-.31,17.05-.45,25.58-.26,3.74.04,7.48.11,11.23.2.32.03.7.06,1.08.07,3.98,9.06,8.49,17.86,12.95,26.69.08.15.18.27.28.39.1.45.39.87.84,1.06,18.53-.48,37.35-.08,55.96-.62,7.15-.15,14-.57,21.23-.96,1.08.04,2.43-.04,2.63-1.3.17-.35.22-.75.11-1.16ZM338.81,417.42c.24-.07.5-.08.53-.08,5.97-.89,7.57,8.01,1.71,9.27-2.53.77-5.33-1.01-5.87-3.58-.56-2.6,1.14-4.95,3.63-5.6ZM321.25,379.88c.08-1.25.65-2.42,1.59-3.26.96-.86,2.13-1.18,3.41-1.18,2.58,0,4.58,2.53,4.43,4.98-.08,1.25-.64,2.42-1.58,3.26-.97.86-2.14,1.18-3.42,1.18-2.57,0-4.58-2.54-4.43-4.98ZM306.49,338.6c.08-1.25.64-2.42,1.58-3.26.97-.86,2.13-1.18,3.41-1.18,2.58,0,4.58,2.54,4.43,4.98-.08,1.25-.64,2.42-1.58,3.26-.97.86-2.14,1.18-3.41,1.18-2.58,0-4.59-2.54-4.43-4.98ZM288.77,296.15c.07-1.25.65-2.45,1.59-3.27.96-.85,2.12-1.17,3.38-1.17,2.58,0,4.59,2.52,4.44,4.97-.07,1.25-.65,2.45-1.59,3.28-.96.85-2.12,1.17-3.38,1.17-2.58,0-4.59-2.52-4.44-4.98ZM241.69,309.94c4.33,10.42,8.93,20.71,13.22,31.16,1.26,3.03,2.63,6.02,3.81,9.09.48,1.28,1.17,2.6,1.17,4.01,0,2.06-1.95,3.69-3.93,3.6-2.06-.09-3.51-1.76-3.6-3.74,0,.42.08.81.22,1.2-5.66-14.35-12.02-28.44-17.96-42.69-1.63-4.66,5.21-7.24,7.08-2.63ZM270.66,406.56c.45,1.36.97,2.93,1.46,4.47-1.51.07-3.01.11-4.51.15-8.1.17-16.28-.35-24.38-.25,1.87-5.76,4.38-11.34,6.38-17.07,2.69-7.28,5.21-14.63,8.17-21.82,4.85,11.28,8.65,22.98,12.88,34.51ZM229.78,326.5c1.98-.74,4.07.32,4.85,2.22,2.45,5.94,4.76,11.94,7.26,17.87,2.45,5.82,4.63,11.75,6.84,17.36.29.71.39,1.1.37,1.66.05,3.51-4.95,5.07-6.86,2.09-2.66-5.91-4.64-12.18-7.27-18.13-2.53-6.05-4.9-12.16-7.41-18.22-.78-1.9.35-4.16,2.23-4.85ZM228.63,350.54c4.52,3.06.95,10.13-4.2,8.41-6.56-2.48-1.81-12.11,4.2-8.41ZM216.83,365.79c7.71,3.56,15.43,7.13,23.12,10.75,4.48,2.14,1.52,8.82-3.04,6.91-7.56-3.61-15.43-7.08-22.93-10.72-3.98-2.01-1.4-8.28,2.85-6.94ZM208.84,379.24c8.52,3.16,16.96,6.62,25.24,10.39,4.47,2.12,1.51,8.81-3.05,6.91-7.94-3.6-16.01-6.98-24.14-9.99-4.93-1.32-3.05-8.54,1.94-7.3ZM198.86,395.35c3.16-2.76,7.53-3.31,11.57-2.83,4.21.37,7.69,3.16,9.8,6.7,4.91,8.94-2.4,18.2-12.2,17.18-11.65-.74-18.88-12.31-9.17-21.05ZM180.08,448.07c-1.42,3.57-2.81,7.18-4.48,10.63-1.41,2.23-4.99,2.11-6.31-.16-.71-1.13-.78-2.7-.08-3.86,1.42-3.43,2.57-5.93,3.77-9.21,1.82-4.6,8.69-2.1,7.1,2.59ZM194.37,453.15c-.38.9-.75,1.8-1.09,2.71-.84,2.6-2.06,5.87-5.44,5.11-2.43-.52-3.72-3.43-2.45-5.57,1.28-3.01,2.26-8.61,6.75-7.1,1.86.67,3.06,2.95,2.25,4.84ZM212.31,458.79c-.07,1.25-.65,2.45-1.59,3.28-.96.85-2.12,1.17-3.38,1.17-2.58,0-4.59-2.52-4.44-4.98.07-1.25.65-2.45,1.59-3.27.96-.85,2.12-1.17,3.38-1.17,2.58,0,4.59,2.52,4.44,4.97ZM211.96,450.41l.13.06c-10.1-3.68-20.29-7.19-30.12-11.53t-.02,0c-.08-.04-.16-.07-.24-.1-.08-.04-.17-.09-.25-.12-.08-.05-.16-.09-.24-.14-.16-.1-.3-.22-.43-.35-.07-.06-.12-.12-.19-.19-.08-.07-.13-.13-.18-.21-.06-.07-.11-.14-.17-.22-.1-.15-.2-.3-.27-.47-.05-.09-.08-.18-.12-.26-.06-.14-.11-.28-.15-.43-.03-.11-.06-.23-.08-.34-.02-.08-.04-.18-.05-.26-.2-1.49.4-3.07,1.97-3.79,1.6-.82,3.23-.22,4.69.58,1.65.73,3.31,1.41,4.81,1.99,3.46,1.33,6.93,2.65,9.94,3.81,4.6,1.79,9.31,3.34,13.95,5.08,4.36,2.02,1.52,8.7-3,6.92ZM221.17,436.95c-10.99-4.5-21.47-8.09-32.1-12.52-4.45-1.78-2.09-8.44,2.51-7.11,3.09,1.41,6.43,2.59,9.56,3.78,7.93,3.11,15.41,5.87,23.19,9,4.44,2.1,1.4,8.86-3.16,6.85ZM232.6,413.33c-.86,2.46-1.64,4.96-2.4,7.45-.32,1.87-1.75,3.47-3.6,3.66-.08,0-.16,0-.25,0-.05,0-.09,0-.14,0h-.13c-2.7,0-4.55-3.26-3.18-5.57,1.37-4.54,3.02-9.41,4.69-13.73.35-.92.9-1.68,1.78-2.16,2.75-1.64,6.49,1.29,5.43,4.36-.72,2-1.48,3.97-2.21,5.96ZM239.27,434.61c-1.38-1.96-2.68-3.97-4.08-5.93-2.65-4.17,3.43-8.23,6.29-4.18,1.51,2.14,2.97,4.32,4.43,6.5,1.95,4.34-4.12,7.6-6.64,3.6ZM253.33,433.56c-1.56-2.41-3.19-4.77-4.72-7.2-2.63-4.19,3.45-8.24,6.29-4.17.95,1.47,1.91,2.95,2.88,4.41.75,1.21,1.89,2.6,2.42,3.86,1.76,4.48-4.7,7.4-6.87,3.1ZM268.06,433.2v.04c-1.54-3-3.39-5.74-5.13-8.6-2.64-4.19,3.44-8.25,6.28-4.18,2.03,3.26,4.19,6.48,5.83,9.94,1.39,4.43-4.91,6.97-6.98,2.79ZM272.67,375.93c.07-1.25.65-2.45,1.59-3.28.96-.85,2.12-1.17,3.38-1.17,2.58,0,4.59,2.52,4.44,4.98-.07,1.25-.65,2.45-1.59,3.27-.96.85-2.12,1.17-3.38,1.17-2.58,0-4.59-2.52-4.44-4.97ZM299.48,461.41c-2.95-1.75-3.96-6.14-5.62-8.92-4.81-9.68-10.1-19.13-14.97-28.77-1.84-4.59,4.89-7.46,6.95-2.93,6.18,11.62,12.12,23.41,18.27,35.06,0,0,0,0,0,.02.03.05.07.09.08.14,1.72,2.79-1.12,6.88-4.71,5.4ZM289.43,414.68c.07-1.25.65-2.45,1.59-3.27.96-.85,2.12-1.17,3.38-1.17,2.58,0,4.59,2.52,4.44,4.97-.07,1.25-.65,2.45-1.59,3.28-.96.85-2.12,1.17-3.38,1.17-2.58,0-4.59-2.52-4.44-4.98ZM328.89,455.19c-1.74,3.33-1.81,9.81-7.19,7.97-4.32-2.14-1.08-7.1,0-10.27-6.67-3.87-14.1-7-19.65-12.46-2.5-3.24-.41-8.34.17-11.64,1.2-6.07,2.39-12.15,4.82-17.88-32.93-14.8-22.38-11.28-14.83-41.63-19.15-10.43-25.82-11.06-25.82-17.02,0-4.04,3.07-10.54,7.37-24.21-6.12-4.33-20.38-9.54-23.5-15.76-.92-2.21-.05-4.6.48-6.8.51-2.09,1-4.2,1.71-6.24,1.38-3.36,2.74-8.22,7.29-5.98,3.39,2.08,1.04,5.63-.11,8.27-.92,2.62-1.53,5.39-2.14,8.09,5.47,4.12,11.75,7,17.64,10.44,7.12,3.38,7.33,7.17,4.71,14.07-1.95,5.74-4.39,11.4-5.78,17.2,19.3,10.98,25.99,11.18,25.99,16.95,0,4.09-3.37,10.98-7.98,26.54,5.89,4.2,12.56,6.34,18.89,9.61,5.77,2.42,4.94,5.3,2.72,10.22-2.65,6.91-3.83,14.29-5.24,21.51,5.6,4.22,11.9,7.36,17.89,10.67,4,1.73,4.52,4.7,2.57,8.36ZM349.33,452.79c-1.31,3.18-1.27,8.77-6.2,7.6-5.87-1.91-.12-11.28,1.17-15.05-7.04-2.69-13.74-6.16-20.26-9.92-2.09-.98-4.42-2.26-4.61-4.85-.15-2.88,1.03-5.7,1.58-8.46,1.25-6.31,3.02-12.43,5.45-18.38-6.72-3.56-13.6-6.9-19.84-11.28-3.28-2.22-1.35-6.93-.76-9.82,1.59-7.04,3.73-14.07,6.2-20.78-6.29-3.43-12.77-6.49-18.95-10.13-4.35-1.8-4.41-4.87-3.3-8.95,1.37-8.14,5-15.62,7.08-23.5-4.84-2.34-9.85-4.33-14.78-6.48-3.13-1.35-6.21-2.83-9.33-4.19-1.86-.81-3.4-2.17-3.7-4.27-.07-3.56,1.09-7.15,2.28-10.48.73-2.34,3.25-4.1,5.64-2.94,2.27,1,3.01,4.13,1.27,5.96-.76,1.94-1.07,3.58-1.45,5.29,7.84,3.69,15.96,6.77,23.76,10.54,5.73,1.99,4.08,7.66,2.59,12.11-2.37,6.73-4.97,13.4-6.18,20.47,33.22,18.55,22.88,6.1,15.5,42.08,3.95,2.61,8.15,4.87,12.34,7.04,2.95,1.94,8.58,3.23,9.6,6.86.33,3.94-2.03,7.58-3.21,11.24-1.77,5.33-2.66,10.72-4.03,16.12,6.56,3.7,13.23,7.22,20.28,9.92,8.99,2.59,3.96,8.42,1.86,14.29Z"/>
        <path class="cls-1" d="M209.18,408.88c-2.65-.06-6.43-1.14-7.23-3.96-.27-3.5,3.48-5.36,6.58-5-.09-.03-.17-.05-.26-.07,6.57-.1,8.73,9.18.92,9.03Z"/>
      </g>
      <g>
        <path class="cls-1" d="M744.72,467.99c-.38-1.48-.83-2.95-1.29-4.43-4.43-14.04-9.94-27.69-14.79-41.59-6.7-18.61-12.72-37.46-19.54-56.02-10.36-27.26-20.31-54.66-30.59-81.94-.19-.44-.29-.92-.51-1.35-.5-2.02-3.66-1.11-5.3-1.42-6.9-.15-13.76.21-20.68.29-12.01.25-24,.91-36.01,1.38-.97.18-2.53-.13-3.69.09-1.42-.13-1.96,1.88-2.66,2.98-10.78,22.66-20.99,45.64-31.39,68.52-8.68,18.28-17.68,36.33-25.83,54.88-6.56,14.03-12.93,28.08-19.57,42.08-2.71,4.99-4.56,10.34-7.21,15.36-.13.23-.2.49-.23.75-.47.99.44,2.3,1.56,2.15,22.29.5,44.56,2.55,66.86,3.05.39.02.85.03,1.29,0,.18.09.38.14.59.14,1.94-.21,1.9-2.89,2.74-4.26,1.49-3.87,3.01-7.74,4.64-11.55,1.68-3.9,3.21-7.86,4.78-11.8.18-.39.39-.86.53-1.33,1.46-.04,2.93-.06,4.4-.07,8.52-.31,17.05-.45,25.58-.26,3.74.04,7.48.11,11.23.2.32.03.7.06,1.08.07,3.98,9.06,8.49,17.86,12.95,26.69.08.15.18.27.28.39.1.45.39.87.84,1.06,18.53-.48,37.35-.08,55.96-.62,7.15-.15,14-.57,21.23-.96,1.08.04,2.43-.04,2.63-1.3.17-.35.22-.75.11-1.16ZM712.76,417.42c.24-.07.5-.08.53-.08,5.97-.89,7.57,8.01,1.71,9.27-2.53.77-5.33-1.01-5.87-3.58-.56-2.6,1.14-4.95,3.63-5.6ZM695.19,379.88c.08-1.25.65-2.42,1.59-3.26.96-.86,2.13-1.18,3.41-1.18,2.58,0,4.58,2.53,4.43,4.98-.08,1.25-.64,2.42-1.58,3.26-.97.86-2.14,1.18-3.42,1.18-2.57,0-4.58-2.54-4.43-4.98ZM680.44,338.6c.08-1.25.64-2.42,1.58-3.26.97-.86,2.13-1.18,3.41-1.18,2.58,0,4.58,2.54,4.43,4.98-.08,1.25-.64,2.42-1.58,3.26-.97.86-2.14,1.18-3.41,1.18-2.58,0-4.59-2.54-4.43-4.98ZM662.72,296.15c.07-1.25.65-2.45,1.59-3.27.96-.85,2.12-1.17,3.38-1.17,2.58,0,4.59,2.52,4.44,4.97-.07,1.25-.65,2.45-1.59,3.28-.96.85-2.12,1.17-3.38,1.17-2.58,0-4.59-2.52-4.44-4.98ZM615.64,309.94c4.33,10.42,8.93,20.71,13.22,31.16,1.26,3.03,2.63,6.02,3.81,9.09.48,1.28,1.17,2.6,1.17,4.01,0,2.06-1.95,3.69-3.93,3.6-2.06-.09-3.51-1.76-3.6-3.74,0,.42.08.81.22,1.2-5.66-14.35-12.02-28.44-17.96-42.69-1.63-4.66,5.21-7.24,7.08-2.63ZM644.61,406.56c.45,1.36.97,2.93,1.46,4.47-1.51.07-3.01.11-4.51.15-8.1.17-16.28-.35-24.38-.25,1.87-5.76,4.38-11.34,6.38-17.07,2.69-7.28,5.21-14.63,8.17-21.82,4.85,11.28,8.65,22.98,12.88,34.51ZM603.73,326.5c1.98-.74,4.07.32,4.85,2.22,2.45,5.94,4.76,11.94,7.26,17.87,2.45,5.82,4.63,11.75,6.84,17.36.29.71.39,1.1.37,1.66.05,3.51-4.95,5.07-6.86,2.09-2.66-5.91-4.64-12.18-7.27-18.13-2.53-6.05-4.9-12.16-7.41-18.22-.78-1.9.35-4.16,2.23-4.85ZM602.58,350.54c4.52,3.06.95,10.13-4.2,8.41-6.56-2.48-1.81-12.11,4.2-8.41ZM590.78,365.79c7.71,3.56,15.43,7.13,23.12,10.75,4.48,2.14,1.52,8.82-3.04,6.91-7.56-3.61-15.43-7.08-22.93-10.72-3.98-2.01-1.4-8.28,2.85-6.94ZM582.79,379.24c8.52,3.16,16.96,6.62,25.24,10.39,4.47,2.12,1.51,8.81-3.05,6.91-7.94-3.6-16.01-6.98-24.14-9.99-4.93-1.32-3.05-8.54,1.94-7.3ZM572.81,395.35c3.16-2.76,7.53-3.31,11.57-2.83,4.21.37,7.69,3.16,9.8,6.7,4.91,8.94-2.4,18.2-12.2,17.18-11.65-.74-18.88-12.31-9.17-21.05ZM554.03,448.07c-1.42,3.57-2.81,7.18-4.48,10.63-1.41,2.23-4.99,2.11-6.31-.16-.71-1.13-.78-2.7-.08-3.86,1.42-3.43,2.57-5.93,3.77-9.21,1.82-4.6,8.69-2.1,7.1,2.59ZM568.32,453.15c-.38.9-.75,1.8-1.09,2.71-.84,2.6-2.06,5.87-5.44,5.11-2.43-.52-3.72-3.43-2.45-5.57,1.28-3.01,2.26-8.61,6.75-7.1,1.86.67,3.06,2.95,2.25,4.84ZM586.25,458.79c-.07,1.25-.65,2.45-1.59,3.28-.96.85-2.12,1.17-3.38,1.17-2.58,0-4.59-2.52-4.44-4.98.07-1.25.65-2.45,1.59-3.27.96-.85,2.12-1.17,3.38-1.17,2.58,0,4.59,2.52,4.44,4.97ZM585.9,450.41l.13.06c-10.1-3.68-20.29-7.19-30.12-11.53t-.02,0c-.08-.04-.16-.07-.24-.1-.08-.04-.17-.09-.25-.12-.08-.05-.16-.09-.24-.14-.16-.1-.3-.22-.43-.35-.07-.06-.12-.12-.19-.19-.08-.07-.13-.13-.18-.21-.06-.07-.11-.14-.17-.22-.1-.15-.2-.3-.27-.47-.05-.09-.08-.18-.12-.26-.06-.14-.11-.28-.15-.43-.03-.11-.06-.23-.08-.34-.02-.08-.04-.18-.05-.26-.2-1.49.4-3.07,1.97-3.79,1.6-.82,3.23-.22,4.69.58,1.65.73,3.31,1.41,4.81,1.99,3.46,1.33,6.93,2.65,9.94,3.81,4.6,1.79,9.31,3.34,13.95,5.08,4.36,2.02,1.52,8.7-3,6.92ZM595.11,436.95c-10.99-4.5-21.47-8.09-32.1-12.52-4.45-1.78-2.09-8.44,2.51-7.11,3.09,1.41,6.43,2.59,9.56,3.78,7.93,3.11,15.41,5.87,23.19,9,4.44,2.1,1.4,8.86-3.16,6.85ZM606.55,413.33c-.86,2.46-1.64,4.96-2.4,7.45-.32,1.87-1.75,3.47-3.6,3.66-.08,0-.16,0-.25,0-.05,0-.09,0-.14,0h-.13c-2.7,0-4.55-3.26-3.18-5.57,1.37-4.54,3.02-9.41,4.69-13.73.35-.92.9-1.68,1.78-2.16,2.75-1.64,6.49,1.29,5.43,4.36-.72,2-1.48,3.97-2.21,5.96ZM613.22,434.61c-1.38-1.96-2.68-3.97-4.08-5.93-2.65-4.17,3.43-8.23,6.29-4.18,1.51,2.14,2.97,4.32,4.43,6.5,1.95,4.34-4.12,7.6-6.64,3.6ZM627.28,433.56c-1.56-2.41-3.19-4.77-4.72-7.2-2.63-4.19,3.45-8.24,6.29-4.17.95,1.47,1.91,2.95,2.88,4.41.75,1.21,1.89,2.6,2.42,3.86,1.76,4.48-4.7,7.4-6.87,3.1ZM642.01,433.2v.04c-1.54-3-3.39-5.74-5.13-8.6-2.64-4.19,3.44-8.25,6.28-4.18,2.03,3.26,4.19,6.48,5.83,9.94,1.39,4.43-4.91,6.97-6.98,2.79ZM646.62,375.93c.07-1.25.65-2.45,1.59-3.28.96-.85,2.12-1.17,3.38-1.17,2.58,0,4.59,2.52,4.44,4.98-.07,1.25-.65,2.45-1.59,3.27-.96.85-2.12,1.17-3.38,1.17-2.58,0-4.59-2.52-4.44-4.97ZM673.43,461.41c-2.95-1.75-3.96-6.14-5.62-8.92-4.81-9.68-10.1-19.13-14.97-28.77-1.84-4.59,4.89-7.46,6.95-2.93,6.18,11.62,12.12,23.41,18.27,35.06,0,0,0,0,0,.02.03.05.07.09.08.14,1.72,2.79-1.12,6.88-4.71,5.4ZM663.38,414.68c.07-1.25.65-2.45,1.59-3.27.96-.85,2.12-1.17,3.38-1.17,2.58,0,4.59,2.52,4.44,4.97-.07,1.25-.65,2.45-1.59,3.28-.96.85-2.12,1.17-3.38,1.17-2.58,0-4.59-2.52-4.44-4.98ZM702.84,455.19c-1.74,3.33-1.81,9.81-7.19,7.97-4.32-2.14-1.08-7.1,0-10.27-6.67-3.87-14.1-7-19.65-12.46-2.5-3.24-.41-8.34.17-11.64,1.2-6.07,2.39-12.15,4.82-17.88-32.93-14.8-22.38-11.28-14.83-41.63-19.15-10.43-25.82-11.06-25.82-17.02,0-4.04,3.07-10.54,7.37-24.21-6.12-4.33-20.38-9.54-23.5-15.76-.92-2.21-.05-4.6.48-6.8.51-2.09,1-4.2,1.71-6.24,1.38-3.36,2.74-8.22,7.29-5.98,3.39,2.08,1.04,5.63-.11,8.27-.92,2.62-1.53,5.39-2.14,8.09,5.47,4.12,11.75,7,17.64,10.44,7.12,3.38,7.33,7.17,4.71,14.07-1.95,5.74-4.39,11.4-5.78,17.2,19.3,10.98,25.99,11.18,25.99,16.95,0,4.09-3.37,10.98-7.98,26.54,5.89,4.2,12.56,6.34,18.89,9.61,5.77,2.42,4.94,5.3,2.72,10.22-2.65,6.91-3.83,14.29-5.24,21.51,5.6,4.22,11.9,7.36,17.89,10.67,4,1.73,4.52,4.7,2.57,8.36ZM723.28,452.79c-1.31,3.18-1.27,8.77-6.2,7.6-5.87-1.91-.12-11.28,1.17-15.05-7.04-2.69-13.74-6.16-20.26-9.92-2.09-.98-4.42-2.26-4.61-4.85-.15-2.88,1.03-5.7,1.58-8.46,1.25-6.31,3.02-12.43,5.45-18.38-6.72-3.56-13.6-6.9-19.84-11.28-3.28-2.22-1.35-6.93-.76-9.82,1.59-7.04,3.73-14.07,6.2-20.78-6.29-3.43-12.77-6.49-18.95-10.13-4.35-1.8-4.41-4.87-3.3-8.95,1.37-8.14,5-15.62,7.08-23.5-4.84-2.34-9.85-4.33-14.78-6.48-3.13-1.35-6.21-2.83-9.33-4.19-1.86-.81-3.4-2.17-3.7-4.27-.07-3.56,1.09-7.15,2.28-10.48.73-2.34,3.25-4.1,5.64-2.94,2.27,1,3.01,4.13,1.27,5.96-.76,1.94-1.07,3.58-1.45,5.29,7.84,3.69,15.96,6.77,23.76,10.54,5.73,1.99,4.08,7.66,2.59,12.11-2.37,6.73-4.97,13.4-6.18,20.47,33.22,18.55,22.88,6.1,15.5,42.08,3.95,2.61,8.15,4.87,12.34,7.04,2.95,1.94,8.58,3.23,9.6,6.86.33,3.94-2.03,7.58-3.21,11.24-1.77,5.33-2.66,10.72-4.03,16.12,6.56,3.7,13.23,7.22,20.28,9.92,8.99,2.59,3.96,8.42,1.86,14.29Z"/>
        <path class="cls-1" d="M583.13,408.88c-2.65-.06-6.43-1.14-7.23-3.96-.27-3.5,3.48-5.36,6.58-5-.09-.03-.17-.05-.26-.07,6.57-.1,8.73,9.18.92,9.03Z"/>
      </g>
      <g>
        <path class="cls-1" d="M1134.05,467.99c-.38-1.48-.83-2.95-1.29-4.43-4.43-14.04-9.94-27.69-14.79-41.59-6.7-18.61-12.72-37.46-19.54-56.02-10.36-27.26-20.31-54.66-30.59-81.94-.19-.44-.29-.92-.51-1.35-.5-2.02-3.66-1.11-5.3-1.42-6.9-.15-13.76.21-20.68.29-12.01.25-24,.91-36.01,1.38-.97.18-2.53-.13-3.69.09-1.42-.13-1.96,1.88-2.66,2.98-10.78,22.66-20.99,45.64-31.39,68.52-8.68,18.28-17.68,36.33-25.83,54.88-6.56,14.03-12.93,28.08-19.57,42.08-2.71,4.99-4.56,10.34-7.21,15.36-.13.23-.2.49-.23.75-.47.99.44,2.3,1.56,2.15,22.29.5,44.56,2.55,66.86,3.05.39.02.85.03,1.29,0,.18.09.38.14.59.14,1.94-.21,1.9-2.89,2.74-4.26,1.49-3.87,3.01-7.74,4.64-11.55,1.68-3.9,3.21-7.86,4.78-11.8.18-.39.39-.86.53-1.33,1.46-.04,2.93-.06,4.4-.07,8.52-.31,17.05-.45,25.58-.26,3.74.04,7.48.11,11.23.2.32.03.7.06,1.08.07,3.98,9.06,8.49,17.86,12.95,26.69.08.15.18.27.28.39.1.45.39.87.84,1.06,18.53-.48,37.35-.08,55.96-.62,7.15-.15,14-.57,21.23-.96,1.08.04,2.43-.04,2.63-1.3.17-.35.22-.75.11-1.16ZM1102.09,417.42c.24-.07.5-.08.53-.08,5.97-.89,7.57,8.01,1.71,9.27-2.53.77-5.33-1.01-5.87-3.58-.56-2.6,1.14-4.95,3.63-5.6ZM1084.52,379.88c.08-1.25.65-2.42,1.59-3.26.96-.86,2.13-1.18,3.41-1.18,2.58,0,4.58,2.53,4.43,4.98-.08,1.25-.64,2.42-1.58,3.26-.97.86-2.14,1.18-3.42,1.18-2.57,0-4.58-2.54-4.43-4.98ZM1069.77,338.6c.08-1.25.64-2.42,1.58-3.26.97-.86,2.13-1.18,3.41-1.18,2.58,0,4.58,2.54,4.43,4.98-.08,1.25-.64,2.42-1.58,3.26-.97.86-2.14,1.18-3.41,1.18-2.58,0-4.59-2.54-4.43-4.98ZM1052.05,296.15c.07-1.25.65-2.45,1.59-3.27.96-.85,2.12-1.17,3.38-1.17,2.58,0,4.59,2.52,4.44,4.97-.07,1.25-.65,2.45-1.59,3.28-.96.85-2.12,1.17-3.38,1.17-2.58,0-4.59-2.52-4.44-4.98ZM1004.97,309.94c4.33,10.42,8.93,20.71,13.22,31.16,1.26,3.03,2.63,6.02,3.81,9.09.48,1.28,1.17,2.6,1.17,4.01,0,2.06-1.95,3.69-3.93,3.6-2.06-.09-3.51-1.76-3.6-3.74,0,.42.08.81.22,1.2-5.66-14.35-12.02-28.44-17.96-42.69-1.63-4.66,5.21-7.24,7.08-2.63ZM1033.94,406.56c.45,1.36.97,2.93,1.46,4.47-1.51.07-3.01.11-4.51.15-8.1.17-16.28-.35-24.38-.25,1.87-5.76,4.38-11.34,6.38-17.07,2.69-7.28,5.21-14.63,8.17-21.82,4.85,11.28,8.65,22.98,12.88,34.51ZM993.06,326.5c1.98-.74,4.07.32,4.85,2.22,2.45,5.94,4.76,11.94,7.26,17.87,2.45,5.82,4.63,11.75,6.84,17.36.29.71.39,1.1.37,1.66.05,3.51-4.95,5.07-6.86,2.09-2.66-5.91-4.64-12.18-7.27-18.13-2.53-6.05-4.9-12.16-7.41-18.22-.78-1.9.35-4.16,2.23-4.85ZM991.91,350.54c4.52,3.06.95,10.13-4.2,8.41-6.56-2.48-1.81-12.11,4.2-8.41ZM980.11,365.79c7.71,3.56,15.43,7.13,23.12,10.75,4.48,2.14,1.52,8.82-3.04,6.91-7.56-3.61-15.43-7.08-22.93-10.72-3.98-2.01-1.4-8.28,2.85-6.94ZM972.12,379.24c8.52,3.16,16.96,6.62,25.24,10.39,4.47,2.12,1.51,8.81-3.05,6.91-7.94-3.6-16.01-6.98-24.14-9.99-4.93-1.32-3.05-8.54,1.94-7.3ZM962.14,395.35c3.16-2.76,7.53-3.31,11.57-2.83,4.21.37,7.69,3.16,9.8,6.7,4.91,8.94-2.4,18.2-12.2,17.18-11.65-.74-18.88-12.31-9.17-21.05ZM943.36,448.07c-1.42,3.57-2.81,7.18-4.48,10.63-1.41,2.23-4.99,2.11-6.31-.16-.71-1.13-.78-2.7-.08-3.86,1.42-3.43,2.57-5.93,3.77-9.21,1.82-4.6,8.69-2.1,7.1,2.59ZM957.65,453.15c-.38.9-.75,1.8-1.09,2.71-.84,2.6-2.06,5.87-5.44,5.11-2.43-.52-3.72-3.43-2.45-5.57,1.28-3.01,2.26-8.61,6.75-7.1,1.86.67,3.06,2.95,2.25,4.84ZM975.58,458.79c-.07,1.25-.65,2.45-1.59,3.28-.96.85-2.12,1.17-3.38,1.17-2.58,0-4.59-2.52-4.44-4.98.07-1.25.65-2.45,1.59-3.27.96-.85,2.12-1.17,3.38-1.17,2.58,0,4.59,2.52,4.44,4.97ZM975.24,450.41l.13.06c-10.1-3.68-20.29-7.19-30.12-11.53t-.02,0c-.08-.04-.16-.07-.24-.1-.08-.04-.17-.09-.25-.12-.08-.05-.16-.09-.24-.14-.16-.1-.3-.22-.43-.35-.07-.06-.12-.12-.19-.19-.08-.07-.13-.13-.18-.21-.06-.07-.11-.14-.17-.22-.1-.15-.2-.3-.27-.47-.05-.09-.08-.18-.12-.26-.06-.14-.11-.28-.15-.43-.03-.11-.06-.23-.08-.34-.02-.08-.04-.18-.05-.26-.2-1.49.4-3.07,1.97-3.79,1.6-.82,3.23-.22,4.69.58,1.65.73,3.31,1.41,4.81,1.99,3.46,1.33,6.93,2.65,9.94,3.81,4.6,1.79,9.31,3.34,13.95,5.08,4.36,2.02,1.52,8.7-3,6.92ZM984.44,436.95c-10.99-4.5-21.47-8.09-32.1-12.52-4.45-1.78-2.09-8.44,2.51-7.11,3.09,1.41,6.43,2.59,9.56,3.78,7.93,3.11,15.41,5.87,23.19,9,4.44,2.1,1.4,8.86-3.16,6.85ZM995.88,413.33c-.86,2.46-1.64,4.96-2.4,7.45-.32,1.87-1.75,3.47-3.6,3.66-.08,0-.16,0-.25,0-.05,0-.09,0-.14,0h-.13c-2.7,0-4.55-3.26-3.18-5.57,1.37-4.54,3.02-9.41,4.69-13.73.35-.92.9-1.68,1.78-2.16,2.75-1.64,6.49,1.29,5.43,4.36-.72,2-1.48,3.97-2.21,5.96ZM1002.55,434.61c-1.38-1.96-2.68-3.97-4.08-5.93-2.65-4.17,3.43-8.23,6.29-4.18,1.51,2.14,2.97,4.32,4.43,6.5,1.95,4.34-4.12,7.6-6.64,3.6ZM1016.61,433.56c-1.56-2.41-3.19-4.77-4.72-7.2-2.63-4.19,3.45-8.24,6.29-4.17.95,1.47,1.91,2.95,2.88,4.41.75,1.21,1.89,2.6,2.42,3.86,1.76,4.48-4.7,7.4-6.87,3.1ZM1031.34,433.2v.04c-1.54-3-3.39-5.74-5.13-8.6-2.64-4.19,3.44-8.25,6.28-4.18,2.03,3.26,4.19,6.48,5.83,9.94,1.39,4.43-4.91,6.97-6.98,2.79ZM1035.95,375.93c.07-1.25.65-2.45,1.59-3.28.96-.85,2.12-1.17,3.38-1.17,2.58,0,4.59,2.52,4.44,4.98-.07,1.25-.65,2.45-1.59,3.27-.96.85-2.12,1.17-3.38,1.17-2.58,0-4.59-2.52-4.44-4.97ZM1062.76,461.41c-2.95-1.75-3.96-6.14-5.62-8.92-4.81-9.68-10.1-19.13-14.97-28.77-1.84-4.59,4.89-7.46,6.95-2.93,6.18,11.62,12.12,23.41,18.27,35.06,0,0,0,0,0,.02.03.05.07.09.08.14,1.72,2.79-1.12,6.88-4.71,5.4ZM1052.71,414.68c.07-1.25.65-2.45,1.59-3.27.96-.85,2.12-1.17,3.38-1.17,2.58,0,4.59,2.52,4.44,4.97-.07,1.25-.65,2.45-1.59,3.28-.96.85-2.12,1.17-3.38,1.17-2.58,0-4.59-2.52-4.44-4.98ZM1092.17,455.19c-1.74,3.33-1.81,9.81-7.19,7.97-4.32-2.14-1.08-7.1,0-10.27-6.67-3.87-14.1-7-19.65-12.46-2.5-3.24-.41-8.34.17-11.64,1.2-6.07,2.39-12.15,4.82-17.88-32.93-14.8-22.38-11.28-14.83-41.63-19.15-10.43-25.82-11.06-25.82-17.02,0-4.04,3.07-10.54,7.37-24.21-6.12-4.33-20.38-9.54-23.5-15.76-.92-2.21-.05-4.6.48-6.8.51-2.09,1-4.2,1.71-6.24,1.38-3.36,2.74-8.22,7.29-5.98,3.39,2.08,1.04,5.63-.11,8.27-.92,2.62-1.53,5.39-2.14,8.09,5.47,4.12,11.75,7,17.64,10.44,7.12,3.38,7.33,7.17,4.71,14.07-1.95,5.74-4.39,11.4-5.78,17.2,19.3,10.98,25.99,11.18,25.99,16.95,0,4.09-3.37,10.98-7.98,26.54,5.89,4.2,12.56,6.34,18.89,9.61,5.77,2.42,4.94,5.3,2.72,10.22-2.65,6.91-3.83,14.29-5.24,21.51,5.6,4.22,11.9,7.36,17.89,10.67,4,1.73,4.52,4.7,2.57,8.36ZM1112.61,452.79c-1.31,3.18-1.27,8.77-6.2,7.6-5.87-1.91-.12-11.28,1.17-15.05-7.04-2.69-13.74-6.16-20.26-9.92-2.09-.98-4.42-2.26-4.61-4.85-.15-2.88,1.03-5.7,1.58-8.46,1.25-6.31,3.02-12.43,5.45-18.38-6.72-3.56-13.6-6.9-19.84-11.28-3.28-2.22-1.35-6.93-.76-9.82,1.59-7.04,3.73-14.07,6.2-20.78-6.29-3.43-12.77-6.49-18.95-10.13-4.35-1.8-4.41-4.87-3.3-8.95,1.37-8.14,5-15.62,7.08-23.5-4.84-2.34-9.85-4.33-14.78-6.48-3.13-1.35-6.21-2.83-9.33-4.19-1.86-.81-3.4-2.17-3.7-4.27-.07-3.56,1.09-7.15,2.28-10.48.73-2.34,3.25-4.1,5.64-2.94,2.27,1,3.01,4.13,1.27,5.96-.76,1.94-1.07,3.58-1.45,5.29,7.84,3.69,15.96,6.77,23.76,10.54,5.73,1.99,4.08,7.66,2.59,12.11-2.37,6.73-4.97,13.4-6.18,20.47,33.22,18.55,22.88,6.1,15.5,42.08,3.95,2.61,8.15,4.87,12.34,7.04,2.95,1.94,8.58,3.23,9.6,6.86.33,3.94-2.03,7.58-3.21,11.24-1.77,5.33-2.66,10.72-4.03,16.12,6.56,3.7,13.23,7.22,20.28,9.92,8.99,2.59,3.96,8.42,1.86,14.29Z"/>
        <path class="cls-1" d="M972.46,408.88c-2.65-.06-6.43-1.14-7.23-3.96-.27-3.5,3.48-5.36,6.58-5-.09-.03-.17-.05-.26-.07,6.57-.1,8.73,9.18.92,9.03Z"/>
      </g>
      <g>
        <path class="cls-1" d="M1503.4,234.45c-.16-2.69-.29-5.38-.45-8.06-.38-7.62-.49-15.24-.46-22.87.01-1.23.04-2.21.05-3.5,0-.2.01-.39.01-.58v-.36c.19-19.02,1.23-38.23.58-57.36-.72-12.25-2.64-24.39-4.97-36.42-2.97-15.6-9.32-30.81-20.7-42.16-9.8-11.63-24.1-18.81-39.16-20.64-23.32-3.73-48.53,6.35-62.08,25.9-.33.8-1.29,1.92-2.09,3.08-3.29-3.98-6.77-7.81-10.64-11.23-22.97-20.34-60.5-25.9-86.22-7.48-1.03.6-4.55,3.64-7.14,6.69-.02-1.21-.04-2.44-.02-3.69.1-2.87.21-5.75.2-8.63.17-1.01-.71-1.93-1.72-1.83-.14-.06-.29-.09-.45-.1-23-.71-46.08-.91-69,1.31-1.58.14-3.17.37-4.75.4-.62-.11-1.28.15-1.63.7-.11.16-.18.34-.22.52-.27.47-.29,1.05-.3,1.59-.07,4.39-.12,8.78-.41,13.15-1.29,16.43-1.82,33.05-1.61,49.56-.6,38.87-1.3,77.73.6,116.57.08,1.24.17,2.57.24,3.82.04.53.05,1.12.36,1.57-.09.95.68,2.02,2.3,1.88,11.19.26,22-.82,33.22-1.18,14.5-.59,29.02-.6,43.51-1.08.19.09.39.16.63.18.88,0,1.59-.75,1.59-1.62-.36-1.67-.55-3.37-.68-5.08-.78-15.63-1.66-31.21-2.89-46.84-.71-9.23-1.03-18.9-.98-28.29.19-8.9-.05-18.19,3.44-26.55,3.58-7.32,12.96-12.42,20.83-8.94,3.71,2.17,5.42,6.57,6.77,10.47,3.58,10.75,3.43,22.64,4.12,33.91,1.98,24.44.45,49.08,4.81,73.32.08.46.28.78.56,1,.08.11.18.21.3.3.84.56,1.94.49,2.93.54,22.46-.2,43.41-.12,65.87-1.18,2.07-.06,2.52-.05,2.95-.28.52-.29.81-.84.82-1.4-.06-2.14-.28-4.31-.54-6.45-1.29-19.35-.67-38.92-.97-58.32.18-8.32.91-16.82,2.07-25.07,1.26-7.43,2.66-15.25,6.41-21.92,3.22-5.73,9.98-8.84,16.49-8.22,4.91.82,8.78,4.82,11.27,8.97,3.39,6.98,3.1,14.86,3.75,22.53,1,16.57,1.63,33.14,1.44,49.75.04,11.64,1.18,23.21,1.66,34.83.19,4.91.27,6.27,1.93,6.63,1.9.31,3.83.39,5.74.58,16.53.87,33.05,1.28,49.62,1.62,7.26.1,14.57.14,21.81-.38.91-.27,1.21-1.06,1.08-1.78.22-.57.24-1.29.12-1.88ZM1488.38,176.57c-6.35.14-12.69.43-19.03.48h0c-5.29.28-5.75-7.52-.53-7.97,6.79-.07,13.56-.45,20.34-.49,5.4.52,4.66,8.37-.78,7.98ZM1462.36,122.25c-.03-3.73-.16-7.45-.35-11.17-.14-5.23,7.6-5.63,7.99-.38.68,11.21.2,22.45.2,33.67-.19,5.38.86,11-.48,16.24.15-.3.25-.6.34-.93-.07.33-.18.64-.34.93h0c-.89,1.75-3.08,2.7-4.95,1.97-3.58-1.31-2.38-5.37-2.41-8.3-.25-10.67-.02-21.35,0-32.03ZM1486.22,112.82c.42,6,.65,12.02.96,18.03.31,7.12.52,14.25.66,21.38-.05,2.48.47,5.12-.16,7.53-.77,2.23-3.56,3.33-5.64,2.18-1.52-.81-2.41-2.69-2.06-4.37-.06-2.71-.16-5.42-.19-8.14-.3-12.08-.8-24.17-1.56-36.24-.18-2.17,1.69-4.08,3.81-4.18,2.23-.11,4,1.64,4.18,3.81ZM1466.28,66.79c1.35,0,2.59.35,3.62,1.26.98.88,1.59,2.13,1.66,3.45.15,2.6-1.98,5.28-4.71,5.28-1.34,0-2.58-.35-3.61-1.26-.98-.88-1.59-2.13-1.66-3.45-.15-2.6,1.97-5.28,4.7-5.28ZM1475.65,86.2c2.14-.14,4.15,1.55,4.26,3.72.14,2.09-1.54,4.22-3.72,4.26-10.66.16-21.33.23-32,.18-3.19-.12-6.45-.02-9.58-.65-2.21-.7-3.44-3.52-2.3-5.6,2.14-3.77,6.94-1.43,10.39-1.78,4.02.1,8.05.06,11.86.05,7.03-.03,14.06-.05,21.09-.18ZM1455.94,123.79c-3.09,5.99-10.88,9.47-17.27,6.88-8.6-2.35-8.83-13.1-4.34-19.41,3.72-5.57,12-7.75,17.62-3.74,4.95,3.48,6.6,10.89,3.99,16.27ZM1451.38,75.78c.15,2.6-1.98,5.28-4.71,5.28-1.34,0-2.58-.35-3.61-1.26-.98-.88-1.59-2.13-1.66-3.45-.15-2.6,1.98-5.28,4.7-5.28,1.35,0,2.59.35,3.62,1.26.98.88,1.59,2.13,1.66,3.45ZM1410.5,60.4c2.96-3.03,6.83-5.07,10.2-7.61,4.43-2.81,8.73,3.64,4.43,6.67-2.92,2.07-5.95,4.01-8.73,6.27.14-.15.29-.28.41-.45-1.35,1.62-3.66,2.08-5.42.86-1.81-1.23-2.38-4.02-.89-5.74ZM1342.34,96.49c-1.52-1.56-1.46-4.14.1-5.65,1.57-1.52,4.14-1.47,5.65.1,3.52,3.59,6.83,7.39,10.43,10.91,3.98,3.45-.94,9.36-5.06,6.2-3.88-3.67-7.36-7.75-11.12-11.56ZM1339.54,115.69c-2.34.69-5-.47-6.01-2.8-1.35-3.05.83-6.66,4.12-7,6.25-.69,7.92,8.14,1.89,9.8ZM1337.25,57.78c2.73,0,5.01,2.25,5.02,4.99.01,2.71-2.26,5.01-4.99,5.01s-5-2.25-5.01-4.98c0-2.72,2.26-5.02,4.98-5.02ZM1284.25,59.75c3.39-.06,6.78.18,10.19.19,6.57.11,13.15.42,19.73.36,2.26-.04,4.96.09,6.98.08,1.04,0,1.99.27,2.79.97,2.64,2.12,1.14,6.91-2.3,7-1.91.04-3.83-.06-5.74-.06-7.35.08-14.67-.22-22.02-.36-3.13-.14-6.3.01-9.41-.29-.81-.16-1.06-.34-1.59-.64-2.97-1.74-1.98-6.68,1.37-7.25ZM1201.1,147.03c-.24-6.48-.35-13.11-.53-19.52-.43-16.22-1-32.16-.51-48.35.27-5.2,8.03-5.04,8,.24-.57,20.57.37,41.59.85,62.06.26,5.65.26,11.33.43,16.99.97,4.1-4.96,6.63-7.21,3.08-.61-1-.74-1.94-.79-3.02-.13-3.83-.14-7.65-.24-11.48ZM1241.06,90.84c-1.7,9.4-12.39,13.78-20.31,8.56-8.31-5.31-7.46-15.92-.01-21.61,9.29-7.26,22.1,2.1,20.32,13.05ZM1226.33,129.55c-8.48-2.03-11.41-10.77-8.71-18.46,3.12-8.73,16.14-8.01,21.35-1.65,8.02,9.57-.04,24.09-12.64,20.11ZM1221.25,134.42c8.01-4.41,18.97,1.96,19.18,11.1,1.07,10.32-9.75,18.77-19.11,13.1-3.36-2.18-6.8-5.97-6.31-10.25-1.09-5.41,1.46-11.18,6.24-13.95ZM1235.21,170.73c0,2.73-2.28,5-5,5s-5-2.27-5-5c0-2.72,2.27-5,5-5s5,2.28,5,5ZM1216.28,174.5c5.26,5.51,10.25,11.33,16.15,16.17,6.38-6.44,11.94-13.6,17.66-20.62,3.45-3.93,9.4,1.04,6.12,5.15-4.39,5.32-8.61,10.78-13.25,15.89-3.62,3.83-8.46,11.13-14.29,6.69-7.52-5.5-13.26-13-19.91-19.45-1.87-1.85-4.53-3.74-4.02-6.71.28-2.17,2.6-3.59,4.66-3.21,1.23.22,2.33,1.06,2.87,2.2,1.26,1.37,2.7,2.58,4.01,3.89ZM1245.97,87.23c.13-3.47.41-6.93.45-10.4.26-5.21,8-5.05,8,.24-.34,8.61-.81,17.24-.41,25.87.67,10.96.49,21.92.38,32.9.07,5.31-.25,10.61-.4,15.92.08,1.81-.04,4.09-.67,5.9-.01.03-.01.06-.02.09-.86,2.41-2.62,3.95-5.98,2.43-2.05-1.25-2.12-3.6-1.45-5.61.26-6.92.58-13.83.53-20.75.58-15.57-.82-31.14-.43-46.59ZM1208.29,222.99c-2.57.77-5.43-.96-6.11-3.56-.89-3.2,1.78-6.37,5.03-6.3,5.89-.06,6.82,8.68,1.08,9.86ZM1229.23,222.16c-6.98-5.17-12.82-11.86-19.55-17.39-1.73-1.55-3.33-3.23-4.94-4.91-1.01-.83-1.62-2.1-1.55-3.41.05-2.79,3.23-4.85,5.76-3.56,1.91,1.25,3.17,3.36,4.91,4.86,5.89,5.14,11.84,10.84,17.5,15.97,5.63-5.81,11.05-11.23,16.12-17.42,2.97-4.33,9.49-.14,6.73,4.33-4.25,5.58-9.36,10.45-14.14,15.59-2.86,2.76-6.29,7.93-10.84,5.94ZM1252.92,222.78c-2.73,0-5-2.28-5-5-.01-2.72,2.27-5,5-5s5,2.28,5,5-2.28,5-5,5ZM1261.27,62.76c-.16,2.12-2.13,3.9-4.3,3.67-3-.38-6.02-.21-9.04-.13-10.72.2-21.44.6-32.16.29-3.98-.14-7.99-.2-11.94-.76-4.1-.81-4.3-6.71-.29-7.82,12.74.76,25.64.87,38.45.43,4.68-.02,9.37-.43,14.05-.12,2.65-.13,5.49,1.45,5.23,4.44ZM1294.38,101.76c-5.89-.11-11.78.08-17.67.03-2.86-.18-5.82.28-8.6-.46-4.63-1.83-2.34-8.89,2.49-7.62,4.56.16,9.12.11,13.68.07,3.3-.03,6.59-.07,9.88-.02,2.18.03,4.05,1.64,4.11,3.89.06,2.11-1.71,4.14-3.89,4.11ZM1269.16,84.02c-2.95-.67-4.03-4.53-1.93-6.68,2.34-2.09,5.87-1.12,8.75-1.48,7.14-.24,14.38-.21,21.51-.37,5.05-.46,10.12-.22,15.18-.14,2.18,0,4.05,1.66,4.11,3.89.06,2.13-1.71,4.11-3.89,4.11-14.9-.35-29,.56-43.73.67ZM1307.38,111.96c-2.34,2-6.15.49-6.53-2.54-.46-3.05,2.72-4.5,4.53-6.33,4.39-3.78,8.83-7.49,13.3-11.18,7.94-6.33,15.01-13.75,23.13-19.83,2.19-2.08,4.98-3.5,7.37-.77,1.39,1.74,1.03,4.21-.63,5.62-4.96,3.59-9.41,7.79-14.02,11.81-5.96,5.41-12.17,10.53-18.36,15.67-2.98,2.46-5.87,5.03-8.79,7.55ZM1311.54,158.74c-.02-2.71,2.24-5.04,4.96-5.04s5.02,2.22,5.04,4.96c.03,2.71-2.23,5.04-4.96,5.04s-5.01-2.22-5.04-4.96ZM1317.29,224.53c-1.52-.76-2.53-2.48-2.23-4.19-.28-3.42-.33-6.86-.31-10.29-.27-12.8-1.27-25.58-1.26-38.39.44-5.22,8.09-4.82,7.99.47,0,6.11.27,12.23.53,18.33.27,7.05.71,14.09.73,21.14-.12,3.28.35,6.55.27,9.81-.25,2.61-3.38,4.34-5.72,3.12ZM1339.68,208.22c.07,3.68-.02,7.37.14,11.05.59,3.54-2.16,6.62-5.73,5.11-1.98-1.06-2.43-2.64-2.23-4.41-.19-5.37-.1-10.99-.17-16.21-.03-5.04.05-10.08.06-15.13.01-4.37.02-8.74.2-13.11.08-2.18,2.08-3.88,4.22-3.76,2.21.13,3.85,2.05,3.76,4.23-.16,4.03-.18,8.06-.19,12.09-.04,6.88-.11,13.54-.06,20.14ZM1339.13,162.71c-5.06-4.43-10.21-8.73-15.41-13-1.76-1.52-3.63-2.91-5.5-4.28-1.65-1.43-1.88-3.96-.46-5.64,1.42-1.68,4.09-1.88,5.73-.38,2.68,1.85,5.17,3.96,7.64,6.08,4.81,3.68,9.2,7.87,13.92,11.65,4.98-5.19,10.24-10.1,15.59-14.89,2.48-1.76,4.49-5.45,7.99-4.53,3.44,1.11,3.71,5.45.84,7.43-5.81,5.12-11.59,10.27-17,15.8-4.39,5.31-7.78,6.37-13.34,1.76ZM1351.84,225.02c-2.03-.38-3.24-2.16-3.25-3.68-.19-3.46-.23-7.4-.17-10.69-.08-5.22-.31-10.46-.38-15.68-.12-5.08-.2-10.14-.42-15.22-.1-2.17,1.5-4.11,3.71-4.26,2.14-.15,4.17,1.53,4.27,3.71.41,9.24.42,18.49.74,27.73.16,4.27-.09,8.54.2,12.81.62,2.84-1.68,5.9-4.7,5.28ZM1371.81,221.08c-1.18,2.56-4.74,3.03-6.61.91-1.2-1-.97-3.18-.93-4.36-.39-13.24.18-26.49-.71-39.7.09-2.18,2.07-3.89,4.22-3.76,3.73.33,3.86,3.76,3.91,6.71.49,8.15.55,16.3.33,24.45.04,4.28.23,8.55.24,12.83-.01.97,0,2.04-.45,2.92ZM1367.96,167.39c-2.72,0-5.02-2.22-5.04-4.96-.02-2.71,2.24-5.04,4.96-5.04s5.02,2.22,5.04,4.96c.02,2.71-2.24,5.04-4.96,5.04ZM1371.26,130.44c-1.94-2.5-4.22-4.67-6.37-7-4.64,4.27-8.68,9.09-12.88,13.77-2.69,2.45-4.85,7.1-9.04,6.61-4.79-1.19-7.57-5.84-10.93-9.08-3.46-3.44-6.64-7.14-9.95-10.7-2.43,1.78-4.54,3.96-6.82,5.93-3.99,3.41-9.18-2.35-5.36-5.94,3.71-3.02,6.95-7.18,11.64-8.66,4.27-.73,7.18,4.36,9.82,7.02,3.88,4.25,7.89,8.43,11.89,12.57,5.67-6.13,10.94-12.62,17.12-18.26,1.26-1.57,3.03-3.1,5.2-2.6,3.55,1,5.47,4.6,8.09,6.96,1.78,2.01,3.3,3.15,4.1,5.41.93,3.64-3.71,6.47-6.51,3.97ZM1374.85,106.35c-4.61-4.69-8.98-9.64-13.71-14.22-3.59-3.83,1.89-9.31,5.66-5.66,4.74,4.57,9.07,9.55,13.71,14.23,3.6,3.82-1.88,9.29-5.66,5.65ZM1396.54,101.4c-5.7-6.28-12.41-12.13-17.18-18.88-1.8-4.62,4.6-7.78,7.16-3.56,4.91,5.89,10.45,11.18,15.67,16.79,3.6,3.81-1.87,9.29-5.65,5.65ZM1416.94,99.13c-4.86-6.64-10.14-12.98-15.33-19.37-1.8-2.23-3.59-4.47-5.15-6.24-1.3-1.6-3.23-3.03-3.23-5.27s1.82-4,4-4c1.76-.04,2.92,1.16,3.85,2.44,7.69,8.94,15.12,18.12,22.2,27.55,3.08,4.24-3.04,8.98-6.34,4.89ZM1424.09,76.88c-1.66,0-3.28-1.16-3.82-2.75-.68-2.03.36-4.07,2.21-4.94-.06.02-.12.04-.18.07-.15.08-.3.17-.45.25,6.67-4.11,13.27-8.32,19.94-12.43,4.46-2.76,8.75,3.69,4.43,6.67-5.79,3.56-11.51,7.21-17.29,10.78-1.56.83-2.99,2.3-4.84,2.35ZM1436.13,137.88c5.93-5.34,15.92-1.87,18.5,5.34,4.61,11.43-4.29,20.89-15.89,18.53-11.19-3.31-10.69-17.39-2.61-23.87ZM1451.09,176.17c-4.06.2-8.13.36-12.2.55-2.13,0-4.53.7-6.29-.89-2.43-2.11-1.24-6.39,1.94-6.93,5.34-.24,10.69-.52,16.03-.72,5.27-.16,5.77,7.49.52,7.99ZM1435.29,221.61c-.31-5.17-.84-10.33-1-15.51-.01-1.88-.19-4.01,1.17-5.5,1.4-1.67,4.07-1.72,5.65-.29,1.62,1.36,1.24,3.26,1.16,5.06.15,5.25.74,10.47,1,15.72.2,5.24-7.44,5.78-7.98.52ZM1458.2,225.12c-7.19-2.6-10.82-11.71-6.6-18.28,6.48-10.73,25.38-6.22,25.56,6.58.24,9.79-10.45,15.35-18.96,11.7ZM1460.99,191.57c-6.74.24-13.48.61-20.22.91-2.47.04-5.01.54-7.44.07-2.45-.82-3.49-3.93-2-6.07.86-1.32,2.47-1.85,3.98-1.74,4.08-.15,8.15-.42,12.23-.57,11.85-.7,23.72-.77,35.57-1.3,3.17-.34,7.32-.65,7.74,3.54.14,2.12-1.56,4.18-3.74,4.25-8.69.51-17.41.63-26.12.91ZM1485.22,220.28c-.33-4.03-.86-8.05-.83-12.11.26-2.95-.17-5.07.67-7.58,1.53-3.17,6.3-2.81,7.38.51.48,2.47-.16,5.06-.07,7.58.05,3.7.59,7.39.83,11.08.22,5.23-7.5,5.76-7.98.52Z"/>
        <path class="cls-1" d="M1228.22,152.42c-2.24.13-4.32-1.4-5.23-3.36-.07-3.03-.85-6.08,2.48-7.82,7.54-1.99,9.83,9.44,2.75,11.18Z"/>
        <path class="cls-1" d="M1230.55,122.15c-2.69-.01-5.9-1.51-5.91-4.57.16-1.82-.14-4.49,2.16-4.9,2.64-.5,5.78.75,6.95,3.25,1.07,2.47.01,6.42-3.2,6.22Z"/>
        <path class="cls-1" d="M1228.43,93.62c-1.97.01-4.48-1-5.04-3.04-.18-1.06.24-2.19-.3-3.17,5.55-11.54,16.35,4.24,5.34,6.21Z"/>
        <path class="cls-1" d="M1463.7,218.18c-6.8.17-8.33-8.96-.97-9.41,1.7.15,3.58.48,4.96,1.6,3.3,3.41.54,8.15-3.99,7.81Z"/>
        <path class="cls-1" d="M1447.84,150.2c-.31,2.35-2.63,3.64-4.8,3.84-1.26.02-2.39-.7-3.61-.77-3.46-2.67.55-11.16,4.79-9.81,2.9.68,3.73,4.14,3.62,6.74Z"/>
        <path class="cls-1" d="M1448.95,119.76c-.82,2.17-3.33,3.69-5.6,3.77-7.33-.07-3.11-11,2.45-10.03,2.84.34,3.81,3.85,3.15,6.26Z"/>
      </g>
      <path class="cls-1" d="M401.75,130.03c-2.23-21.12-10.79-42.06-26.12-57.05-21.27-20.9-48.09-31.88-77.98-26.48-17.07,3.08-34.05,8.81-47.96,19.44-22.11,17.3-36.54,44.32-39.64,72.14-2.9,20.75,1.13,42.21,10.16,61.05,21.09,36.8,74.57,42.22,112.99,43.08,17.8.31,35.57-.41,53.22-2.89,2.21-.34,4.4-.77,6.59-1.19.84.17,1.93-.14,2.74-.27.93-.23,2.23-.33,2.72-1.17.01-.02.02-.04.03-.05.04-.07.08-.14.11-.22.05-.13.09-.27.1-.41.49-3.77.45-7.6.47-11.39.15-10.88,0-21.51-.12-32.43-.06-2.07-.21-4.13-.23-6.2-.06-.92.31-2.38-.88-2.87-.11-.05-.21-.07-.3-.1-.18-.09-.39-.14-.62-.16-24.22-.72-48.5,1.97-72.77.15-8.72-.87-25.94.86-30.37-8.41-.47-1.17-.69-2.41-.8-3.68,35.84-2.98,71.92-1.59,107.88-1.52.52.15,1.11.05,1.55-.41,1.44-3.6,1.05-7.6,1.15-11.54-.11-9.17-1.15-18.29-1.92-27.42ZM367.44,79.52c.65,4.34,1.39,8.68,1.84,13.05.78,2.85-2.04,5.56-4.84,4.86-3.32-.74-3.11-4.45-3.48-7.13-.43-3.19-.95-6.37-1.42-9.55-.68-5.21,6.98-6.4,7.9-1.23ZM346.03,64.42c2.14-.33,4.24,1.19,4.57,3.34,1.3,8.71,2.54,17.44,3.72,26.16.88,4.13-5.14,6.57-7.37,2.73-2.08-8.77-2.68-18.64-4.26-27.66-.32-2.16,1.18-4.23,3.34-4.57ZM366.47,103.68c4.49-.15,8.99-.22,13.48-.33,5.21.19,5.06,8.05-.22,8-14.3.35-28.38.75-42.49,1.57.17-.02.33-.05.5-.08v-.02c-.68.16-1.4.15-2.08-.05-3.83-1.12-3.68-6.87.24-7.72,1.15-.24,2.35-.29,3.52-.34,9.23-.27,17.93-.67,27.05-1.03ZM333.79,59.25c.42,3.62.8,8.17,1.09,11.55.69,7.94,1.65,15.88,1.83,23.85.54,4.21-5.29,6.17-7.41,2.5-1.15-2.68-.43-5.77-.87-8.62-.74-9.36-1.59-18.72-2.54-28.05-.6-5.24,6.96-6.41,7.9-1.23ZM331.88,121.28c1.24,2.3,1.75,4.82,1.84,7.46-13.12.9-26.28.93-39.41,1.53-.63,0-1.26-.03-1.89-.01-3.02-15.82,11.57-26.92,26.48-22.31,6.39,1.71,10.57,7.46,12.98,13.33ZM311.75,54.41c2.23-.05,3.97,1.73,4.1,3.9.36,6.12,1.02,12.22,1.46,18.34.35,4.76.62,9.52.93,14.28.02,1.85.6,3.77-.03,5.56-1.06,3.01-5.64,3.42-7.16.59-1.13-2.91-.61-6.27-1.02-9.34-.49-9.76-1.54-19.48-2.18-29.23-.13-2.17,1.78-4.04,3.9-4.1ZM284.9,67.47c5.07-2.88,12.02-2.1,16.02,2.27,8.95,9.25-1.04,28.4-13.93,22.76-10.09-3.77-12.18-19.84-2.09-25.03ZM276.93,91.81c-3.27,2.82-6.48,5.71-9.47,8.82-4.74,4.96-8.96,10.51-11.43,16.96-.37.95-.73,1.89-1.11,2.83-.39,2.75-3.81,4.4-6.15,2.8-3.72-2.51-.64-6.99.47-10.14,4.61-10.99,13.42-19.46,22.26-27.15,3.95-3.43,9.22,2.24,5.43,5.88ZM264.53,153.07c-1.58-.42-3.11-1.12-4.46-2.06-1.6-.42-2.64-1.78-3.38-3.24-2.02-3.94-2.07-8.58-.07-12.54,4.75-9.98,20.25-8.09,23.13,2.3,2.39,9.08-5.77,18.58-15.22,15.54ZM265.41,182.97c-3.62-.63-6.16-3.93-7.64-7.11-2.2-5.07-1.35-11.38,3.23-14.85,5.4-4.98,14.04-4.73,17.81,2.05,5.83,9.59-1.47,23.55-13.4,19.91ZM246.97,126.69c2.15.04,3.99,1.9,3.91,4.08-.77,16.55-.82,33.12-.88,49.68v.11c.21,3.7-4.91,5.67-7.2,2.48-.67-.92-.79-1.93-.8-3.03.03-2.97.06-5.94.07-8.9.01-12.66.17-25.31.71-37.95-.13-3,.47-6.45,4.19-6.47ZM233.59,167.42c-.03,3.91.1,7.82.01,11.74.15,2.49-2.07,4.84-4.64,4.39-4.6-.79-3.09-6.04-3.34-9.37-.02-6.03-.05-12.06-.1-18.1-.07-7.95.02-15.9.3-23.85-.23-2.48,1.47-4.95,4.12-4.87,2.16.05,3.99,1.91,3.91,4.09-.46,11.98-.37,23.98-.26,35.97ZM234.97,120.67c-1.3.95-3.1.94-4.46.1-1.71-1.08-2.32-3.37-1.5-5.17.91-3.55,2.01-7.02,3.59-10.33,6.39-14.22,17.83-25.21,30.43-34.04,4.33-2.92,8.84,3.38,4.62,6.54-5.96,4.23-11.58,8.91-16.65,14.19-5.11,5.42-9.01,11.88-12.02,18.67-.76,1.94-1.44,3.89-1.97,5.9-.37,1.57-.63,3.1-2.04,4.14ZM235.93,192.54c.09-2.17,1.98-3.95,4.16-3.85,3.79.17,7.58.29,11.37.5,10.48.92,21.21.49,31.58,2.19,4.52,2.08,1.98,9.04-2.83,7.51-6.78-.55-13.56-.82-20.34-1.21-6.7-.39-13.39-.7-20.09-.99-2.18-.1-3.93-1.97-3.85-4.15ZM249.44,208.4c.08-2.18,1.97-3.92,4.15-3.84,7.08.27,14.16.48,21.25.54,2.7.31,5.76-.5,8.24.71,3,1.74,2.19,6.67-1.24,7.3-.93.18-1.91.08-2.84.06-8.58-.11-17.15-.27-25.72-.62-2.18-.07-3.93-1.98-3.84-4.15ZM284.72,227.14c-1.49,1.8-4.01,1.62-6.13,1.54-3.95-.58-11.54,1.55-11.71-4.4.08-2.19,1.97-3.93,4.15-3.85,3.27.09,6.55.37,9.82.24,3.5-.85,6.33,3.77,3.87,6.47ZM285.62,107.02c-2.71,2.92-5.29,5.98-7.23,9.47-1.03,1.74-1.56,3.74-2.43,5.53-1.45,2.37-5.06,2.43-6.64.16-3.72-5.67,10.22-20.7,14.33-24.62,1.52-1.57,4.23-1.32,5.66.22,3.17,3.58-1.43,6.76-3.69,9.24ZM374.56,232.95c.28-.13.55-.29.8-.47-.24.19-.51.35-.8.47ZM369.94,191.25c2.92.38,4.37,3.52,6.44,5.3,4.63,4.93,9.73,9.4,14.38,14.31,5.8,5.76-4.19,11.15-7.76,14.98-2.91,2.36-5.41,5.37-8.67,7.2.06-.02.12-.04.18-.07-.07.04-.15.07-.23.1.02-.01.03-.02.05-.03-.53.21-1.1.32-1.7.27-3.73-.16-5.05-5.42-1.89-7.35,4.31-3.66,8.5-7.45,12.65-11.28-5.8-5.5-11.45-11.15-16.78-16.83-2.39-2.49-.06-7,3.33-6.6ZM360.18,232.27c-4.26.06-8.52.15-12.78.13-8.49-.07-16.99-.09-25.48-.26-3.88-.06-7.79-.09-11.64-.45-2.44.04-4.72-1.71-4.56-4.3.12-2.12,2.05-3.96,4.22-3.77,6.79.61,13.65.54,20.47.66,7.37.05,14.89.12,22.23.11,2.32-.03,4.64-.07,6.96-.1,1.09-.02,2.11.25,2.94.99,2.62,2.14,1.08,6.92-2.36,6.99ZM309.59,191.63c15.7.6,31.41-1.25,47.13-.53,5.22.43,4.84,8.08-.45,7.99-3.61-.08-7.22-.2-10.82-.19-11.69.29-23.37,1.14-35.07.72-5.59.79-6.46-7.55-.79-7.99ZM307.56,209.11c1.08-.54,2.35-.48,3.52-.49,9.97-.13,19.56.21,29.48.17,6.02-.06,12.04-.19,18.06-.19,3.47.01,5.08,4.87,2.4,7.02-2.36,1.81-6.49.66-8.9.98-6.1.07-12.2.26-18.3.18-5.99-.08-11.98-.24-17.96-.2-2.02.05-4.04-.04-6.06.08-1.26.18-2.64-.35-3.49-1.34-1.8-1.89-.98-5.1,1.25-6.21ZM297.61,192.26c-.1,5.88-.42,11.75-.57,17.63-.1,4.5-.15,9.01-.1,13.51.41,3.54-1.83,7.22-5.76,5.69-1.83-.8-2.8-2.99-2.24-4.88.04-2.34-.06-4.68-.01-7.01-.01-8.4.53-16.79.68-25.19.28-5.23,8.03-5.01,8,.25ZM293.56,161.97c-.22.04-.46.06-.69.06-1.85,0-3.67-1.34-3.96-3.25-.67-4.91-.39-9.89-.88-14.81-.07-.91.11-1.78.52-2.6,2.05-4.06,8.37-1.83,7.46,2.59.49,4.26.27,8.57.67,12.85.55,2.28-.7,4.72-3.12,5.16ZM306.16,162.19c-1.87,0-3.75-1.2-3.99-3.7-.66-4.79-.83-9.6-1.02-14.42-.09-1.49-.45-3,.25-4.4,1.76-3.63,7.41-2.34,7.57,1.59.37,5.57.36,11.27,1.18,16.78.11,2.72-1.94,4.15-3.99,4.15ZM321.42,161.44c-.22.04-.45.06-.68.06-1.86,0-3.72-1.33-3.98-3.25-.83-5.64-.56-11.35-1.32-17-.32-4.73,6.29-6.19,7.85-1.67.82,5.25.58,10.6,1.14,15.9.66,2.48-.16,5.45-3.01,5.96ZM334.41,161.1c-1.88,0-3.76-1.2-3.98-3.7-.58-5.26-.82-10.55-1.11-15.83-.09-1.45-.42-3.25.33-4.58,2.07-4,8.27-2,7.53,2.46.39,5.84.59,11.68,1.22,17.5.11,2.72-1.94,4.15-3.99,4.15ZM341.96,119.63c2.42-1.4,5.45-.94,8.15-1.2,6.92-.14,13.81-.64,20.71-1.09,4.45-.2,8.88-.65,13.32-.99,5.26-.33,6.05,7.28.82,7.96-1.99.12-3.98.33-5.97.5-11.75.96-23.71,1.28-35.36,2.07-3.45-.49-4.58-5.3-1.67-7.25ZM346.5,157.6c-6.17-4.3-7.36-14.3-1.93-19.63,7.39-7.72,20.32-4.26,22.32,6.4,2.75,12.26-10.38,20.29-20.39,13.23ZM381.26,158.47c-8.68-1.19-14.61-11.69-9.9-19.4,5.73-8.77,20.95-7.18,24.34,2.92,3.1,9.08-5.11,18.17-14.44,16.48Z"/>
      <path class="cls-1" d="M354.25,152.22c-7.13-.51-6.66-10.77.61-10.45,5.84.65,5.89,11.11-.61,10.45Z"/>
      <path class="cls-1" d="M388.24,146.99s0,.03-.01.04c-.03.13-.07.26-.11.39-.12.4-.35.81-.59,1.19-.11.14-.22.28-.32.41-.08.08-.15.16-.23.24h-.01c-.89.79-2.03,1.23-3.2,1.39h.22c-3.38.42-7.09-3.08-6.14-6.51,2.36-4.93,11.7-2.86,10.39,2.85Z"/>
      <path class="cls-1" d="M291.27,85.49c-.16-.01-.33-.03-.5-.05-7.18-2.8-5.5-13.89,2.94-11.25,4.7,2.26,2.65,11.12-2.44,11.3Z"/>
      <path class="cls-1" d="M269.2,175.51c-3.31-.27-4.54-2.53-4.6-5.66.11-2.23,2.95-4.23,5.08-4.35,4.31.77,4.3,9.99-.48,10.01Z"/>
      <path class="cls-1" d="M268.19,145.6c-2.07-.09-4.16-1.05-4.96-3.04-.53-2.45.85-5.59,3.53-5.95,2.23-.14,5.05,1.05,5.36,3.51.22,2.38-1.2,5.54-3.93,5.48Z"/>
      <g>
        <path class="cls-1" d="M906.61,467.92c.08-.65,0-1.42-.03-2.04-.55-14-1.51-27.98-1.73-42-.32-16.17-.26-32.36-1.41-48.52-.03-1.43-.27-2.88-.13-4.3.03-1.16-1-1.68-1.87-1.48-.18-.08-.4-.11-.64-.1-17.56-.43-35.14.54-52.69.66-3.67-.09-7.36.27-11.02.09-.57-.09-1.14.06-1.54.48-.29.3-.41.71-.37,1.11-.41.95-.16,2.46-.25,3.43.43,9.93.26,19.6.36,29.61,0,3.47.52,6.91.67,10.36-3.27,0-6.61-.78-9.77-1.6-23.69-7.3-25.63-35.2-9.21-51.24,12.33-11.75,30.79-11.38,46.78-12.45,7.7-.42,15.24-.71,22.97-.49,4.6.07,9.23.28,13.8-.27.69.02,1.34-.32,1.69-.83.23-.25.38-.59.36-1.04-.44-7.43-.62-14.88-.89-22.32-.3-12.9-.34-25.83-.18-38.73-.05-.27-.17-.5-.32-.69-.25-.93-1.33-1.24-2.23-1.03-9.79-.34-19.61-.52-29.41-.33-15.37.08-30.78,1.32-45.79,4.71-19.16,3.87-39.3,7.98-55.08,20.3-11.92,9.53-20.67,22.93-26.23,37.05-4.39,11.69-5.85,24.32-5.2,36.76,1.72,20.69,6.34,42.52,20.51,58.45,12.49,14.25,30.68,21.89,49,25.31,13.15,3.57,26.8,4.86,40.35,5.88,19.26.75,38.72,0,57.78-2.87.61.07,1.16-.2,1.53-.72.24-.34.28-.75.18-1.14ZM883.23,307.2c.15-3.32.24-6.64.4-9.96.09-2.05,1.72-3.76,3.82-3.73,2.01.03,3.82,1.76,3.73,3.82-.38,10.02-.98,20.05-.63,30.08.15,2.98.17,6.63.21,9.44.03.8-.08,1.58-.49,2.28-1.26,2.31-4.77,2.5-6.3.36-.53-.71-.77-1.56-.74-2.4-.06-2.94-.07-5.9-.2-8.84-.23-7.02-.14-14.05.21-21.06ZM868.54,297.99c.8-4.88,8.04-3.88,7.47,1.06-.32,2.73-.06,5.5-.02,8.24.14,7.94.29,16.13.67,23.98-.21,2.51,1.12,5.4,0,7.7-.74,1.31-2.32,2.08-3.81,1.86-2.07-.27-3.35-2.2-3.33-4.19-.29-2.64-.41-5.3-.49-7.95-.26-10.22-.97-20.49-.48-30.68ZM859.95,340.37c-2.45.36-4.93.48-7.41.71-3.39.3-6.78.46-10.17.64-2.04.11-3.89-1.43-4.03-3.51-.14-2.03,1.46-3.92,3.51-4.02,2.86-.16,5.72-.27,8.57-.5,2.62-.22,5.27-.39,7.9-.7,1.32-.34,2.9.12,3.8,1.2,1.93,2.04.58,5.76-2.17,6.18ZM841.6,297.89c2.66-1.51,6.05-.59,8.99-.78,3.12.08,6.23.25,9.34.42,1.03.06,1.95.38,2.69,1.12,2.35,2.18.57,6.6-2.67,6.43-5.24-.3-10.47-.54-15.71-.4-3.64.49-5.68-4.66-2.64-6.78ZM841.44,315.68c3.26-.13,6.53-.26,9.78-.38,3.06.2,7.24-1.33,9.33,1.59,1.78,2.7-.65,6.45-3.86,5.77-4.92.07-9.83.35-14.74.54-2.05.08-3.89-1.41-4.03-3.51-.13-2,1.45-3.93,3.51-4.02ZM829.41,301.21c.93,10.46,1.11,20.98,2.04,31.45.23,2.65.51,5.3.65,7.96.58,2.71-.73,6.1-3.93,5.89-2.07-.12-3.83-2.08-3.53-4.17-.37-6.77-1.18-13.52-1.51-20.29-.36-6.78-.63-13.57-1.25-20.33-.24-4.93,7.07-5.45,7.53-.51ZM818.54,343c-2.98,3.31-5.95,6.62-9.05,9.84-2.91,3.05-5.85,6.05-8.77,9.07-.7.92-1.8,1.54-3.03,1.54-2.06,0-3.77-1.72-3.77-3.77s1.57-3.21,2.82-4.5c5.6-5.74,11.17-11.49,16.47-17.5,2.18-2.42,6.58-.56,6.44,2.66,0,1.04-.43,1.92-1.11,2.67ZM792.3,350.06c-1.45,1.61-2.38,3.71-4.2,4.94-1.75.93-4.22.3-5.1-1.55-1.71-3.33,2.05-5.85,3.63-8.39,3.92-5.27,8.21-10.26,12.94-14.82,2.27-2.37,6.63-.32,6.36,2.92-.31,2.85-3.33,4.33-4.98,6.43-3.06,3.33-5.93,6.85-8.64,10.47ZM812.24,302.27c2.57,0,4.67,2.27,4.62,4.8-.05,2.61-2.24,4.63-4.8,4.63s-4.68-2.27-4.63-4.8c.05-2.6,2.24-4.63,4.81-4.63ZM798.14,306.25c6.27,5.75,13.29,10.6,19.78,16.04,2.46,3.32-1.4,7.6-4.97,5.53-6.6-5.03-13.23-10.11-19.46-15.62-3.85-3.11.73-8.94,4.65-5.94ZM793.35,327.19c-4.44,4.89-8.7,9.94-12.97,14.97-1.86,1.92-3.69,5.4-6.87,4.35-2.81-.81-3.58-4.73-1.27-6.52,2.69-2.94,5.2-6.05,7.77-9.09,2.45-2.89,5-5.68,7.51-8.5,3.26-3.74,8.92.9,5.84,4.78ZM761.65,329.44c1.38-1.7,2.8-3.36,4.22-5.02,2.79-3.35,5.67-6.62,8.49-9.94,3.24-3.74,8.9.89,5.84,4.79-2.31,2.76-4.7,5.43-7.01,8.19-2.24,2.66-4.63,5.23-6.7,8.03-1.25,2.57-5.43,2.64-6.65,0-1.19-2.25.33-4.39,1.81-6.04ZM753.8,340.48c1.36-.27,2.77.26,3.65,1.27,2.92,2.02,5.88,3.98,8.79,6.03,8.96,6.34,17.92,12.68,26.95,18.92,4.13,2.76.09,8.98-4.09,6.35-9.19-6.35-18.31-12.81-27.44-19.27-2.31-1.6-4.63-3.21-6.96-4.78-1.54-1.05-3.49-2.06-3.85-4.06-.37-2.03.9-4.04,2.94-4.46ZM772.65,370.41c-.1,2.64-2.34,4.53-4.91,4.53s-4.62-2.42-4.53-4.91c.1-2.64,2.34-4.53,4.91-4.53s4.62,2.42,4.53,4.91ZM754.21,361.6c2.58,0,4.63,2.42,4.53,4.91-.1,2.64-2.34,4.53-4.9,4.53s-4.63-2.42-4.53-4.91c.1-2.64,2.34-4.53,4.9-4.53ZM752.88,384.99c4.11-5.64,12.75-6.41,18.1-2.09,11.07,8.81,2.88,24.36-10.64,21.21-8.07-1.45-12.78-12.6-7.45-19.12ZM756.89,419.12c-1.29-.03-2.77.07-3.93-.6-3.79-2.09-1.45-8.13,2.77-6.97,7.88.21,15.67,1.87,23.56,1.96.7-7.31.61-14.7.91-22.05.42-2.86-.42-5.8,1.39-8.02,2.13-2.36,6.59-.68,6.47,2.57-.08,1.59-.2,3.2-.28,4.8-.2,7.08-.4,14.15-.73,21.22-.62,9.1-3.45,9.49-11.78,8.89-6.14-.4-12.23-1.45-18.38-1.79ZM764.14,435.11c-1.04-1.65-.83-3.84.77-5.1,1.1-.92,2.56-.87,3.88-.6,8.71.37,17.43.92,26.14,1.24.09-6.9.69-13.78.33-20.67-.05-3.16-.07-6.31-.21-9.46,0-4.94,7.32-5.12,7.55-.17.44,10.51.31,21.06-.2,31.51-.05,8.15-7.45,6.21-13.12,6.06-5.72-.18-11.43-.53-17.13-.84-2.68-.24-6.2.54-8-1.96ZM817.69,450.96c-.25,5.62-4.84,5.11-9.1,4.94-7.91-.32-15.8-1.28-23.64-2.26-2.64-.34-4.17-3.45-2.76-5.73.91-1.52,2.8-2.16,4.46-1.63,2.1.29,4.24.42,6.34.69,5.76.62,11.52,1.38,17.32,1.45.17-7.84.27-15.68.09-23.52-.83-5.17,6.62-6.47,7.46-1.29.21,2.26.14,4.54.15,6.8-.03,6.85.13,13.72-.33,20.55ZM828.57,456.51c-.31-9.95-.34-19.93-.66-29.88-.06-4.94,7.25-5.23,7.55-.27.37,9.9.3,19.83.68,29.71.03,4.88-6.96,5.3-7.57.44ZM846.64,382.27c.48-1.91,2.63-3.34,4.59-2.76,5.3,0,10.61-.09,15.9-.15,6.45-.19,12.91-.32,19.36-.3,2.15-.14,4.09,1.56,4.1,3.75.02,2.04-1.69,3.81-3.75,3.8-2.58,0-5.15.03-7.73.04-9.45.17-18.91.45-28.37.41-2.57.18-4.81-2.24-4.1-4.78ZM889.59,398.02c-.39,5.25-5.72,3.45-9.32,3.84-8.23.07-16.46.59-24.69.48-1.33-.02-2.66-.03-3.99-.02-3.73.09-5.33-4.7-2.3-6.88.75-.53,1.63-.74,2.5-.66,2.73.02,5.45.02,8.18.02,6.52-.09,13.02-.42,19.54-.48,3.5.13,9.79-1.44,10.09,3.7ZM860.32,409.02c6.93,2.66,8.93,10.88,3.52,16.14-5.64,6.82-16.59,4.73-20.07-3.17-4.04-9.98,7.85-18.63,16.55-12.97ZM885.73,456.33c-6.72.61-13.44,1.17-20.17,1.5-6.39.24-12.78,1.31-19.15.67-4.98-.36-4.71-7.61.3-7.55,4.01.52,8.08-.02,12.1-.24,8.77-.54,17.55-1.05,26.3-1.91,2.05-.18,3.91,1.41,4.08,3.44.18,2.07-1.4,3.9-3.44,4.08ZM887.09,443.75c-3.44.21-6.88.25-10.32.32-9.68.14-19.34.95-29.01,1-6.16.41-6.04-8.34-.04-7.56,10.63-.04,21.98-1.02,32.5-1.04,3.54.24,9.61-1.9,10.32,3.2.18,2.01-1.39,3.96-3.44,4.08ZM892.4,428.74c-4.39,6.34-14.22,5.71-18.84-.05-4.21-4.43-4.09-11.85.09-16.25,1.25-1.24,2.58-2.17,3.85-3.33,11.71-5.03,22.23,9.49,14.9,19.63Z"/>
        <path class="cls-1" d="M855.27,421.8c-3.8.16-6.88-4.63-2.62-6.72,2.18-.91,4.58.63,6.29,1.89,1.68,1.85-1.88,4.66-3.67,4.83Z"/>
        <path class="cls-1" d="M883.62,425.75c-2.59.18-5.22-2.02-5.63-4.55-.33-2.75,1.89-4.43,4.03-5.59,5.5-.08,7.6,9.23,1.6,10.13Z"/>
        <path class="cls-1" d="M763.86,396.95c-5.32.39-8.42-7.43-2.34-9.12,6.71-1.65,10.57,8.7,2.34,9.12Z"/>
      </g>
    </g>
  </g>
</svg>