<?xml version="1.0" encoding="UTF-8"?>
<svg id="Layer_2" data-name="Layer 2" xmlns="http://www.w3.org/2000/svg" viewBox="0 0 772.25 140.86">
  <defs>
    <style>
      .cls-1 {
        fill: #f09921;
      }
    </style>
  </defs>
  <g id="pattern">
    <g>
      <path class="cls-1" d="M317.39,136.4c.85.96,2.2,1.46,3.56,1.46.94,0,1.89-.24,2.68-.73,2.17-1.24,1.71-3.43,1.88-5.25.15-2.7.17-5.41.14-8.11-.13-7.71-.06-15.41-.03-23.12.03-5.86.49-11.71.42-17.57-.05-1.94-.17-3.88-.25-5.82-.04-1-.43-1.92-1.29-2.65-2.56-2.31-7.76-.62-7.62,2.56.52,7.12.03,14.24-.14,21.36-.16,9.96-.05,19.92-.02,29.88-.02,1.83-.18,3.65-.21,5.48-.01.09-.01.19-.01.28,0,.8.31,1.59.9,2.24Z"/>
      <path class="cls-1" d="M335.8,134.59c.15,2.21,2.33,3.55,4.55,3.55,1.44,0,2.89-.56,3.8-1.82.55-.75.72-1.71.52-2.57-.08-1.61-.13-3.22-.13-4.82-.03-3.7-.15-7.39.01-11.09.78-13.61,1.17-27.24.73-40.86-.15-4.86-8.62-4.98-8.91-.09.44,12.52.1,25.02-.55,37.53-.19,3-.26,6-.26,9.01,0,3.72.11,7.44.25,11.16Z"/>
      <path class="cls-1" d="M281.71,127.09c1.66,6.33,7.9,10.83,14.26,10.83,1.69,0,3.38-.32,5-1,8.67-3.62,10.79-15.99,5.58-23.27-2.5-3.41-6.86-5.07-10.98-5.2-8.15-.12-14.47,6.9-14.47,14.6,0,1.34.19,2.69.59,4.04ZM295.12,128.96c-7.33-1.52-6.12-11.53.26-11.53.67,0,1.4.11,2.18.35,3.01.95,2.73,3.75,2.84,6.29-.32,2.87-2.15,5.33-5.28,4.89Z"/>
      <path class="cls-1" d="M293.74,105.88c1.42,0,2.92-.25,4.47-.8,10.57-3.84,13.63-17.33,6.02-25.51-1.22-1.37-2.71-2.54-4.42-3.19-.71-.41-1.57-.44-2.26-.92-3.82-1.46-9.15-.4-12.43,1.94-3.92,2.84-5.62,7.17-5.62,11.6,0,8.26,5.88,16.87,14.24,16.87ZM294.01,96.93c-5.9-.06-8.75-13.23-.42-13.23.1,0,.2,0,.3,0,3.74.55,5.63,3.62,5.63,6.67s-1.82,5.98-5.52,6.55Z"/>
      <path class="cls-1" d="M248,135.71c.85.96,2.2,1.46,3.56,1.46.94,0,1.89-.24,2.68-.73,2.17-1.24,1.71-3.43,1.88-5.25.15-2.7.17-5.41.14-8.11-.13-7.71-.06-15.41-.03-23.12.03-5.86.49-11.71.42-17.57-.05-1.94-.17-3.88-.25-5.82-.04-1-.43-1.92-1.29-2.65-2.56-2.31-7.76-.62-7.62,2.56.52,7.12.03,14.24-.14,21.36-.16,9.96-.05,19.92-.02,29.88-.02,1.83-.18,3.65-.21,5.48,0,.09-.01.19-.01.29,0,.8.31,1.59.9,2.23Z"/>
      <path class="cls-1" d="M262.48,134.52c.15,2.21,2.33,3.55,4.55,3.55,1.44,0,2.89-.56,3.8-1.82.55-.75.72-1.71.52-2.57-.08-1.61-.13-3.22-.13-4.82-.03-3.7-.15-7.39.01-11.09.78-13.61,1.17-27.24.73-40.86-.15-4.86-8.62-4.98-8.91-.09.44,12.52.1,25.02-.55,37.53-.19,3-.26,6-.26,9.01,0,3.72.11,7.44.25,11.16Z"/>
      <path class="cls-1" d="M466.86,127.6c1.66,6.33,7.9,10.83,14.26,10.83,1.69,0,3.38-.32,5-1,8.67-3.62,10.79-15.99,5.58-23.27-2.5-3.41-6.86-5.07-10.98-5.2-8.15-.11-14.47,6.9-14.47,14.6,0,1.34.19,2.69.6,4.04ZM480.27,129.47c-7.33-1.52-6.12-11.53.26-11.53.67,0,1.4.11,2.18.35,3.01.95,2.73,3.75,2.84,6.29-.32,2.87-2.15,5.33-5.28,4.89Z"/>
      <path class="cls-1" d="M478.88,106.39c1.42,0,2.92-.25,4.47-.8,10.57-3.84,13.63-17.33,6.02-25.51-1.22-1.37-2.71-2.54-4.42-3.19-.71-.41-1.57-.44-2.26-.92-3.82-1.46-9.15-.4-12.43,1.94-3.92,2.84-5.62,7.17-5.62,11.6,0,8.26,5.88,16.87,14.24,16.87ZM479.16,97.44c-5.9-.06-8.75-13.23-.42-13.23.1,0,.2,0,.3,0,3.74.55,5.63,3.62,5.63,6.67s-1.82,5.98-5.52,6.55Z"/>
      <path class="cls-1" d="M431.67,136.55c.85.96,2.2,1.46,3.56,1.46.94,0,1.89-.24,2.68-.73,2.17-1.24,1.71-3.43,1.88-5.25.15-2.7.17-5.41.14-8.11-.13-7.71-.06-15.41-.03-23.12.03-5.86.49-11.71.42-17.57-.05-1.94-.17-3.88-.25-5.82-.04-1-.43-1.92-1.29-2.65-2.56-2.31-7.76-.62-7.62,2.56.52,7.12.03,14.24-.14,21.36-.16,9.96-.05,19.92-.02,29.88-.02,1.83-.18,3.65-.21,5.48,0,.1-.01.19-.01.29,0,.8.31,1.59.9,2.23Z"/>
      <path class="cls-1" d="M450.07,134.73c.15,2.21,2.33,3.55,4.55,3.55,1.44,0,2.89-.56,3.8-1.82.55-.75.72-1.71.52-2.57-.08-1.61-.13-3.22-.13-4.82-.03-3.7-.15-7.39.01-11.09.78-13.61,1.17-27.24.73-40.86-.15-4.86-8.62-4.98-8.91-.09.44,12.52.1,25.02-.55,37.53-.19,3-.26,6-.26,9.01,0,3.72.11,7.44.25,11.16Z"/>
      <path class="cls-1" d="M519.62,135.03c.15,2.21,2.33,3.55,4.55,3.55,1.44,0,2.89-.56,3.8-1.82.55-.75.72-1.71.52-2.57-.08-1.61-.13-3.22-.13-4.82-.03-3.7-.15-7.39.01-11.09.78-13.61,1.17-27.24.73-40.86-.15-4.86-8.62-4.98-8.91-.09.44,12.52.1,25.02-.55,37.53-.19,3-.26,6-.26,9.01,0,3.72.11,7.44.25,11.16Z"/>
      <path class="cls-1" d="M503.97,136.58c.85.96,2.2,1.46,3.56,1.46.94,0,1.89-.24,2.68-.73,2.17-1.24,1.71-3.43,1.88-5.25.15-2.7.17-5.41.14-8.11-.13-7.71-.06-15.41-.03-23.12.03-5.86.49-11.71.42-17.57-.05-1.94-.17-3.88-.25-5.82-.04-1-.43-1.92-1.29-2.65-2.56-2.31-7.76-.62-7.62,2.56.52,7.12.03,14.24-.14,21.36-.16,9.96-.05,19.92-.02,29.88-.02,1.83-.18,3.65-.21,5.48,0,.1-.01.19-.01.29,0,.8.31,1.59.89,2.23Z"/>
      <path class="cls-1" d="M416.16,137.59c2.17-1.24,1.71-3.43,1.88-5.25.15-2.7.17-5.41.14-8.11-.13-7.71-.06-15.41-.03-23.12.03-5.86.49-11.71.42-17.57-.05-1.94-.17-3.88-.25-5.82-.04-1-.43-1.92-1.29-2.65-2.56-2.31-7.76-.62-7.62,2.56.52,7.12.03,14.24-.14,21.36-.16,9.96-.05,19.92-.02,29.88-.02,1.83-.18,3.65-.21,5.48-.08.9.23,1.8.88,2.52.85.96,2.2,1.46,3.56,1.46.94,0,1.89-.24,2.68-.73Z"/>
      <path class="cls-1" d="M393.5,137.39c8.67-3.62,10.79-15.99,5.58-23.27-2.5-3.41-6.86-5.07-10.98-5.2-9.56-.14-16.61,9.54-13.87,18.63,1.66,6.33,7.9,10.83,14.26,10.83,1.69,0,3.38-.32,5-1ZM390.08,118.24c3.01.95,2.73,3.75,2.84,6.29-.32,2.87-2.15,5.33-5.28,4.89-7.33-1.52-6.12-11.53.26-11.53.67,0,1.4.11,2.18.35Z"/>
      <path class="cls-1" d="M390.72,105.54c10.57-3.84,13.63-17.33,6.02-25.51-1.22-1.37-2.71-2.54-4.42-3.19-.71-.41-1.57-.44-2.26-.92-3.82-1.46-9.15-.4-12.43,1.94-11.22,8.13-4.22,28.47,8.62,28.47,1.42,0,2.92-.25,4.47-.8ZM386.41,84.18c7.4,1.08,7.57,12.06.11,13.22-5.9-.06-8.75-13.23-.42-13.23.1,0,.2,0,.3,0Z"/>
      <path class="cls-1" d="M365.79,136.41c.55-.75.72-1.71.52-2.57-.08-1.61-.13-3.22-.13-4.82-.03-3.7-.15-7.39.01-11.09.78-13.61,1.17-27.24.73-40.86-.15-4.86-8.62-4.98-8.91-.09.44,12.52.1,25.02-.55,37.53-.42,6.72-.26,13.45-.01,20.17.15,2.21,2.33,3.55,4.55,3.55,1.44,0,2.89-.56,3.8-1.82Z"/>
      <path class="cls-1" d="M246.58,34.13c1.62,1.7,4.62,1.91,6.3.15,2.22-2.32,4.5-4.57,6.74-6.88,6.06-5.99,10.89-13.43,18.02-18.26,7.29,6.18,14.86,12.14,21.37,19.15,6.64,10.24,11.01,5.09,17.68-1.57,5.39-5.28,10.79-10.54,15.93-16.06,7.67,7.57,15.79,14.7,23.24,22.46,6.3,9.41,10.73,3.1,16.81-2.19,6.62-5.29,12.32-11.62,18.49-17.42,5.93,5.12,11.75,10.42,16.84,16.38,2.21,2.4,3.41,5.56,5.81,7.78,3.74,3.08,7.77-.82,10.61-3.25,1.97-1.67,3.91-3.37,5.8-5.12,4.84-4.25,9.37-8.89,14.41-12.9,5.99,6.17,12.31,12.03,18.22,18.27,1.41,1.68,2.64,3.64,4.59,4.75,4.75,2.81,8.07-2.21,10.72-5.45,6.4-6.77,11.72-14.57,18.98-20.49,8.25,7.06,15.54,15.22,22.84,23.24,1.81,1.67,3,4.5,5.82,4.48,2.61.09,4.89-2.31,4.55-4.93-.2-1.92-1.7-3.3-2.95-4.63-3.61-4.06-7.25-8.1-11.09-11.95-4.2-3.83-14.9-17.4-20.46-15.59-4.66,1.42-10.69,8.36-14.03,12.06-3.69,4.64-7.79,8.93-11.63,13.44-4.86-5.77-10.77-10.56-15.89-16.11-8.18-9.27-11.19-8.07-19.86-.15-5.49,5.02-10.91,10.12-16.57,14.94-5.6-8.08-13.12-14.61-20.43-21.1-7.82-8.29-12.79.76-18.69,5.95-4.98,5.19-10.46,9.81-15.87,14.53-6.42-7.22-14.03-13.31-20.74-20.26-5.02-4.85-9.39-10.44-15.6-3.3-6.37,6.77-13.04,13.25-19.68,19.74-4.83-6.01-10.98-10.81-16.76-15.86-9.73-8.65-12.52-11.88-23.18-1.64-4.12,4-7.8,8.42-11.65,12.67-2.78,3-5.72,5.83-8.54,8.78-1.73,1.65-1.85,4.58-.15,6.3ZM524.31,32.64s.03-.03.05-.04c.07-.02.14-.03.21-.05-.09.03-.17.06-.26.09Z"/>
      <path class="cls-1" d="M560.31,138.09c-8.67-3.62-10.79-15.99-5.58-23.27,2.5-3.41,6.86-5.07,10.98-5.2,9.56-.14,16.61,9.54,13.87,18.63-1.66,6.33-7.9,10.83-14.26,10.83-1.69,0-3.38-.32-5-1ZM563.73,118.94c-3.01.95-2.73,3.75-2.84,6.29.32,2.87,2.15,5.33,5.28,4.89,7.33-1.52,6.12-11.53-.26-11.53-.67,0-1.4.11-2.18.35Z"/>
      <path class="cls-1" d="M563.09,106.24c-10.57-3.84-13.63-17.33-6.02-25.51,1.22-1.37,2.71-2.54,4.42-3.19.71-.41,1.57-.44,2.26-.92,3.82-1.46,9.15-.4,12.43,1.94,11.22,8.13,4.22,28.47-8.62,28.47-1.42,0-2.92-.25-4.47-.8ZM567.4,84.87c-7.4,1.08-7.57,12.06-.11,13.22,5.9-.06,8.75-13.23.42-13.23-.1,0-.2,0-.3,0Z"/>
      <path class="cls-1" d="M560.26,72.12c-8.67-3.62-10.79-15.99-5.58-23.27,2.5-3.41,6.86-5.07,10.98-5.2,9.56-.14,16.61,9.54,13.87,18.63-1.66,6.33-7.9,10.83-14.26,10.83-1.69,0-3.38-.32-5-1ZM563.67,52.97c-3.01.95-2.73,3.75-2.84,6.29.32,2.87,2.15,5.33,5.28,4.89,7.33-1.52,6.12-11.53-.26-11.53-.67,0-1.4.11-2.18.35Z"/>
      <path class="cls-1" d="M563.03,40.28c-10.57-3.84-13.63-17.33-6.02-25.51,1.22-1.37,2.71-2.54,4.42-3.19.71-.41,1.57-.44,2.26-.92,3.82-1.46,9.15-.4,12.43,1.94,11.22,8.13,4.22,28.47-8.62,28.47-1.42,0-2.92-.25-4.47-.8ZM567.34,18.91c-7.4,1.08-7.57,12.06-.11,13.22,5.9-.06,8.75-13.23.42-13.23-.1,0-.2,0-.3,0Z"/>
      <path class="cls-1" d="M587.77,137.08c1.58,5.02,9.03,3.71,8.76-1.64.5-11.16.66-22.34.83-33.51.32-9.21.17-18.43-.16-27.63-.36-18.33.81-36.65.5-54.98-.06-2.69-.07-5.38-.06-8.07,0-2.43-2.21-4.39-4.58-4.33-2.49.07-4.32,2.16-4.33,4.58.51,22.58-.99,45.15-.31,67.73.51,15.84-.22,31.66-.42,47.5-.04,3.44-.7,6.94-.22,10.36ZM587.62,135.33c.04-.37.13-.73.24-1.08,0,0,0,0,0,0,0,0,0,0,0,0,0,0,0-.02,0-.02,0,0,0,.01,0,.02.05-.11.1-.23.15-.34-.2.46-.34.94-.4,1.42Z"/>
      <path class="cls-1" d="M536.52,136.94c2.48,3.83,8.46,1.96,8.24-2.62,0-4.44.53-8.87.38-13.31-.2-27.17.59-54.34.66-81.51.04-7.09.23-14.18.36-21.27.06-1.74.03-3.47.02-5.21-.01-2.43-2.2-4.4-4.58-4.33-2.47.07-4.34,2.16-4.33,4.58,0,1.23.04,2.46.02,3.69-.12,4.35-.16,8.7-.24,13.06-.31,26.48-.65,52.97-.85,79.46-.18,5.1.07,10.19.04,15.29-.07,2.62-.36,5.23-.34,7.85.02,1.47-.27,3.04.62,4.33Z"/>
      <path class="cls-1" d="M702.23,138.09c-8.67-3.62-10.79-15.99-5.58-23.27,2.5-3.41,6.86-5.07,10.98-5.2,9.56-.14,16.61,9.54,13.87,18.63-1.66,6.33-7.9,10.83-14.26,10.83-1.69,0-3.38-.32-5-1ZM705.65,118.94c-3.01.95-2.73,3.75-2.84,6.29.32,2.87,2.15,5.33,5.28,4.89,7.33-1.52,6.12-11.53-.26-11.53-.67,0-1.4.11-2.18.35Z"/>
      <path class="cls-1" d="M705,106.24c-10.57-3.84-13.63-17.33-6.02-25.51,1.22-1.37,2.71-2.54,4.42-3.19.71-.41,1.57-.44,2.26-.92,3.82-1.46,9.15-.4,12.43,1.94,11.22,8.13,4.22,28.47-8.62,28.47-1.42,0-2.92-.25-4.47-.8ZM709.32,84.87c-7.4,1.08-7.57,12.06-.11,13.22,5.9-.06,8.75-13.23.42-13.23-.1,0-.2,0-.3,0Z"/>
      <path class="cls-1" d="M702.17,72.12c-8.67-3.62-10.79-15.99-5.58-23.27,2.5-3.41,6.86-5.07,10.98-5.2,9.56-.14,16.61,9.54,13.87,18.63-1.66,6.33-7.9,10.83-14.26,10.83-1.69,0-3.38-.32-5-1ZM705.59,52.97c-3.01.95-2.73,3.75-2.84,6.29.32,2.87,2.15,5.33,5.28,4.89,7.33-1.52,6.12-11.53-.26-11.53-.67,0-1.4.11-2.18.35Z"/>
      <path class="cls-1" d="M704.95,40.28c-10.57-3.84-13.63-17.33-6.02-25.51,1.22-1.37,2.71-2.54,4.42-3.19.71-.41,1.57-.44,2.26-.92,3.82-1.46,9.15-.4,12.43,1.94,11.22,8.13,4.22,28.47-8.62,28.47-1.42,0-2.92-.25-4.47-.8ZM709.26,18.91c-7.4,1.08-7.57,12.06-.11,13.22,5.9-.06,8.75-13.23.42-13.23-.1,0-.2,0-.3,0Z"/>
      <path class="cls-1" d="M729.69,137.08c1.58,5.02,9.03,3.71,8.76-1.64.5-11.16.66-22.34.83-33.51.32-9.21.17-18.43-.16-27.63-.36-18.33.81-36.65.5-54.98-.06-2.69-.07-5.38-.06-8.07,0-2.43-2.21-4.39-4.58-4.33-2.49.07-4.32,2.16-4.33,4.58.51,22.58-.99,45.15-.31,67.73.51,15.84-.22,31.66-.42,47.5-.04,3.44-.7,6.94-.22,10.36ZM729.54,135.33c.04-.37.13-.73.24-1.08,0,0,0,0,0,0,0,0,0,0,0,0,0,0,0-.02,0-.02,0,0,0,.01,0,.02.05-.11.1-.23.15-.34-.2.46-.34.94-.4,1.42Z"/>
      <path class="cls-1" d="M746.28,137.08c1.58,5.02,9.03,3.71,8.76-1.64.5-11.16.66-22.34.83-33.51.32-9.21.17-18.43-.16-27.63-.36-18.33.81-36.65.5-54.98-.06-2.69-.07-5.38-.06-8.07,0-2.43-2.21-4.39-4.58-4.33-2.49.07-4.32,2.16-4.33,4.58.51,22.58-.99,45.15-.31,67.73.51,15.84-.22,31.66-.42,47.5-.04,3.44-.7,6.94-.22,10.36ZM746.14,135.33c.04-.37.13-.73.24-1.08,0,0,0,0,0,0,0,0,0,0,0,0,0,0,0-.02,0-.02,0,0,0,.01,0,.02.05-.11.1-.23.15-.34-.2.46-.34.94-.4,1.42Z"/>
      <path class="cls-1" d="M762.27,137.51c1.58,5.02,9.03,3.71,8.76-1.64.5-11.16.66-22.34.83-33.51.32-9.21.17-18.43-.16-27.63-.36-18.33.81-36.65.5-54.98-.06-2.69-.07-5.38-.06-8.07,0-2.43-2.21-4.39-4.58-4.33-2.49.07-4.32,2.16-4.33,4.58.51,22.58-.99,45.15-.31,67.73.51,15.84-.22,31.66-.42,47.5-.04,3.44-.7,6.94-.22,10.36ZM762.12,135.76c.04-.37.13-.73.24-1.08,0,0,0,0,0,0,0,0,0,0,0,0,0,0,0-.02,0-.02,0,0,0,.01,0,.02.05-.11.1-.23.15-.34-.2.46-.34.94-.4,1.42Z"/>
      <path class="cls-1" d="M.18,137.08c1.58,5.02,9.03,3.71,8.76-1.64.5-11.16.66-22.34.83-33.51.32-9.21.17-18.43-.16-27.63-.36-18.33.81-36.65.5-54.98-.06-2.69-.07-5.38-.06-8.07,0-2.43-2.21-4.39-4.58-4.33-2.49.07-4.32,2.16-4.33,4.58.51,22.58-.99,45.15-.31,67.73.51,15.84-.22,31.66-.42,47.5-.04,3.44-.7,6.94-.22,10.36ZM.03,135.33c.04-.37.13-.73.24-1.08,0,0,0,0,0,0,0,0,0,0,0,0,0,0,0-.02,0-.02,0,0,0,.01,0,.02.05-.11.1-.23.15-.34-.2.46-.34.94-.4,1.42Z"/>
      <path class="cls-1" d="M16.16,137.51c1.58,5.02,9.03,3.71,8.76-1.64.5-11.16.66-22.34.83-33.51.32-9.21.17-18.43-.16-27.63-.36-18.33.81-36.65.5-54.98-.06-2.69-.07-5.38-.06-8.07,0-2.43-2.21-4.39-4.58-4.33-2.49.07-4.32,2.16-4.33,4.58.51,22.58-.99,45.15-.31,67.73.51,15.84-.22,31.66-.42,47.5-.04,3.44-.7,6.94-.22,10.36ZM16.02,135.76c.04-.37.13-.73.24-1.08,0,0,0,0,0,0,0,0,0,0,0,0,0,0,0-.02,0-.02,0,0,0,.01,0,.02.05-.11.1-.23.15-.34-.2.46-.34.94-.4,1.42Z"/>
      <path class="cls-1" d="M678.44,136.94c2.48,3.83,8.46,1.96,8.24-2.62,0-4.44.53-8.87.38-13.31-.2-27.17.59-54.34.66-81.51.04-7.09.23-14.18.36-21.27.06-1.74.03-3.47.02-5.21-.01-2.43-2.2-4.4-4.58-4.33-2.47.07-4.34,2.16-4.33,4.58,0,1.23.04,2.46.02,3.69-.12,4.35-.16,8.7-.24,13.06-.31,26.48-.65,52.97-.85,79.46-.18,5.1.07,10.19.04,15.29-.07,2.62-.36,5.23-.34,7.85.02,1.47-.27,3.04.62,4.33Z"/>
      <path class="cls-1" d="M56.26,138.09c-8.67-3.62-10.79-15.99-5.58-23.27,2.5-3.41,6.86-5.07,10.98-5.2,9.56-.14,16.61,9.54,13.87,18.63-1.66,6.33-7.9,10.83-14.26,10.83-1.69,0-3.38-.32-5-1ZM59.68,118.94c-3.01.95-2.73,3.75-2.84,6.29.32,2.87,2.15,5.33,5.28,4.89,7.33-1.52,6.12-11.53-.26-11.53-.67,0-1.4.11-2.18.35Z"/>
      <path class="cls-1" d="M59.03,106.24c-10.57-3.84-13.63-17.33-6.02-25.51,1.22-1.37,2.71-2.54,4.42-3.19.71-.41,1.57-.44,2.26-.92,3.82-1.46,9.15-.4,12.43,1.94,11.22,8.13,4.22,28.47-8.62,28.47-1.42,0-2.92-.25-4.47-.8ZM63.34,84.87c-7.4,1.08-7.57,12.06-.11,13.22,5.9-.06,8.75-13.23.42-13.23-.1,0-.2,0-.3,0Z"/>
      <path class="cls-1" d="M56.2,72.12c-8.67-3.62-10.79-15.99-5.58-23.27,2.5-3.41,6.86-5.07,10.98-5.2,9.56-.14,16.61,9.54,13.87,18.63-1.66,6.33-7.9,10.83-14.26,10.83-1.69,0-3.38-.32-5-1ZM59.62,52.97c-3.01.95-2.73,3.75-2.84,6.29.32,2.87,2.15,5.33,5.28,4.89,7.33-1.52,6.12-11.53-.26-11.53-.67,0-1.4.11-2.18.35Z"/>
      <path class="cls-1" d="M58.97,40.28c-10.57-3.84-13.63-17.33-6.02-25.51,1.22-1.37,2.71-2.54,4.42-3.19.71-.41,1.57-.44,2.26-.92,3.82-1.46,9.15-.4,12.43,1.94,11.22,8.13,4.22,28.47-8.62,28.47-1.42,0-2.92-.25-4.47-.8ZM63.28,18.91c-7.4,1.08-7.57,12.06-.11,13.22,5.9-.06,8.75-13.23.42-13.23-.1,0-.2,0-.3,0Z"/>
      <path class="cls-1" d="M83.71,137.08c1.58,5.02,9.03,3.71,8.76-1.64.5-11.16.66-22.34.83-33.51.32-9.21.17-18.43-.16-27.63-.36-18.33.81-36.65.5-54.98-.06-2.69-.07-5.38-.06-8.07,0-2.43-2.21-4.39-4.58-4.33-2.49.07-4.32,2.16-4.33,4.58.51,22.58-.99,45.15-.31,67.73.51,15.84-.22,31.66-.42,47.5-.04,3.44-.7,6.94-.22,10.36ZM83.57,135.33c.04-.37.13-.73.24-1.08,0,0,0,0,0,0,0,0,0,0,0,0,0,0,0-.02,0-.02,0,0,0,.01,0,.02.05-.11.1-.23.15-.34-.2.46-.34.94-.4,1.42Z"/>
      <path class="cls-1" d="M32.46,136.94c2.48,3.83,8.46,1.96,8.24-2.62,0-4.44.53-8.87.38-13.31-.2-27.17.59-54.34.66-81.51.04-7.09.23-14.18.36-21.27.06-1.74.03-3.47.02-5.21-.01-2.43-2.2-4.4-4.58-4.33-2.47.07-4.34,2.16-4.33,4.58,0,1.23.04,2.46.02,3.69-.12,4.35-.16,8.7-.24,13.06-.31,26.48-.65,52.97-.85,79.46-.18,5.1.07,10.19.04,15.29-.07,2.62-.36,5.23-.34,7.85.02,1.47-.27,3.04.62,4.33Z"/>
      <path class="cls-1" d="M207.61,138.72c8.67-3.62,10.79-15.99,5.58-23.27-2.5-3.41-6.86-5.07-10.98-5.2-9.56-.14-16.61,9.54-13.87,18.63,1.66,6.33,7.9,10.83,14.26,10.83,1.69,0,3.38-.32,5-1ZM204.19,119.57c3.01.95,2.73,3.75,2.84,6.29-.32,2.87-2.15,5.33-5.28,4.89-7.33-1.52-6.12-11.53.26-11.53.67,0,1.4.11,2.18.35Z"/>
      <path class="cls-1" d="M204.84,106.88c10.57-3.84,13.63-17.33,6.02-25.51-1.22-1.37-2.71-2.54-4.42-3.19-.71-.41-1.57-.44-2.26-.92-3.82-1.46-9.15-.4-12.43,1.94-11.22,8.13-4.22,28.47,8.62,28.47,1.42,0,2.92-.25,4.47-.8ZM200.52,85.51c7.4,1.08,7.57,12.06.11,13.22-5.9-.06-8.75-13.23-.42-13.23.1,0,.2,0,.3,0Z"/>
      <path class="cls-1" d="M207.67,72.76c8.67-3.62,10.79-15.99,5.58-23.27-2.5-3.41-6.86-5.07-10.98-5.2-9.56-.14-16.61,9.54-13.87,18.63,1.66,6.33,7.9,10.83,14.26,10.83,1.69,0,3.38-.32,5-1ZM204.25,53.61c3.01.95,2.73,3.75,2.84,6.29-.32,2.87-2.15,5.33-5.28,4.89-7.33-1.52-6.12-11.53.26-11.53.67,0,1.4.11,2.18.35Z"/>
      <path class="cls-1" d="M204.89,40.91c10.57-3.84,13.63-17.33,6.02-25.51-1.22-1.37-2.71-2.54-4.42-3.19-.71-.41-1.57-.44-2.26-.92-3.82-1.46-9.15-.4-12.43,1.94-11.22,8.13-4.22,28.47,8.62,28.47,1.42,0,2.92-.25,4.47-.8ZM200.58,19.54c7.4,1.08,7.57,12.06.11,13.22-5.9-.06-8.75-13.23-.42-13.23.1,0,.2,0,.3,0Z"/>
      <path class="cls-1" d="M180.15,137.71c-1.58,5.02-9.03,3.71-8.76-1.64-.5-11.16-.66-22.34-.83-33.51-.32-9.21-.17-18.43.16-27.63.36-18.33-.81-36.65-.5-54.98.06-2.69.07-5.38.06-8.07,0-2.43,2.21-4.39,4.58-4.33,2.49.07,4.32,2.16,4.33,4.58-.51,22.58.99,45.15.31,67.73-.51,15.84.22,31.66.42,47.5.04,3.44.7,6.94.22,10.36ZM180.3,135.96c-.04-.37-.13-.73-.24-1.08,0,0,0,0,0,0,0,0,0,0,0,0,0,0,0-.02,0-.02,0,0,0,.01,0,.02-.05-.11-.1-.23-.15-.34.2.46.34.94.4,1.42Z"/>
      <path class="cls-1" d="M231.4,137.57c-2.48,3.83-8.46,1.96-8.24-2.62,0-4.44-.53-8.87-.38-13.31.2-27.17-.59-54.34-.66-81.51-.04-7.09-.23-14.18-.36-21.27-.06-1.74-.03-3.47-.02-5.21.01-2.43,2.2-4.4,4.58-4.33,2.47.07,4.34,2.16,4.33,4.58,0,1.23-.04,2.46-.02,3.69.12,4.35.16,8.7.24,13.06.31,26.48.65,52.97.85,79.46.18,5.1-.07,10.19-.04,15.29.07,2.62.36,5.23.34,7.85-.02,1.47.27,3.04-.62,4.33Z"/>
      <path class="cls-1" d="M525.75,59.71c-1.54-1.97-3.06-3.96-4.66-5.88-3.7-4.32-7.45-8.59-11.21-12.85-3.23-3.17-5.9-7.7-10.47-8.97-8.77-1.74-22.85,21.45-29.08,27.54-4.43-5.57-9.43-10.67-13.93-16.19-3.15-3.78-6.13-7.77-9.78-11.1-9.02-8.67-27.24,17.97-33.76,23.68-6.26-8.32-13.98-15.42-20.62-23.44-4.37-5.26-10.03-.07-13.36,3.63-6.64,6.31-11.8,13.97-18.51,20.21-7-7.49-14.41-14.56-21.15-22.3-3.21-3.24-6.84-9.28-12.12-6.44-1.63.82-2.83,2.3-4.01,3.66-6.52,7.8-11.96,16.52-19.07,23.84-6.55-8.09-14.53-15.02-21.06-23.14-1.81-2.02-3.3-4.82-6.21-5.3-5.45-.59-10.36,6.61-14.07,9.97-4.27,4.21-8.33,8.62-12.58,12.87-2.79,3.23-9.74,6.52-5.63,11.39,1.63,1.78,4.57,1.81,6.3.15,3.13-2.76,6.15-5.65,9.04-8.67,5.09-5.3,10.14-10.66,15.5-15.69,6.35,7.93,13.79,14.9,20.55,22.47,4.22,5.93,6.84,10.48,13.34,3.41,7.83-7.71,13.72-17.06,20.67-25.52,6.56,7.28,13.18,14.49,20.19,21.33,7.31,8.16,10.16,11.62,18.77,2.15,6.41-6.49,11.71-13.98,18.45-20.17,5.12,6.12,10.81,11.72,16.01,17.77,2.68,2.65,4.07,7.56,7.77,8.77,3.46,1.08,5.83-2.12,7.86-4.39,2.06-2.24,4.21-4.39,6.26-6.64,5.1-5.72,9.97-11.83,16.49-16.01,6.89,7.61,13.22,15.73,20.16,23.32,6.73,9.74,9.21,9.59,16.71.54,6.58-7.35,11.76-16.07,19.49-22.32,7.71,8.09,15.12,16.52,21.91,25.4,1.73,3.46,7.32,2.87,8.23-.89.12-.4.17-.79.17-1.17,0-1.92-1.34-3.54-2.58-4.99Z"/>
      <path class="cls-1" d="M665.84,18.01c.96-.85,1.46-2.2,1.46-3.56,0-.94-.24-1.89-.73-2.68-1.24-2.17-3.43-1.71-5.25-1.88-2.7-.15-5.41-.17-8.11-.14-7.71.13-15.41.06-23.12.03-5.86-.03-11.71-.49-17.57-.42-1.94.05-3.88.17-5.82.25-1,.04-1.92.43-2.65,1.29-2.31,2.56-.62,7.76,2.56,7.62,7.12-.52,14.24-.03,21.36.14,9.96.16,19.92.05,29.88.02,1.83.02,3.65.18,5.48.21.09,0,.19.01.29.01.8,0,1.59-.31,2.23-.9Z"/>
      <path class="cls-1" d="M665.84,34.67c.96-.85,1.46-2.2,1.46-3.56,0-.94-.24-1.89-.73-2.68-1.24-2.17-3.43-1.71-5.25-1.88-2.7-.15-5.41-.17-8.11-.14-7.71.13-15.41.06-23.12.03-5.86-.03-11.71-.49-17.57-.42-1.94.05-3.88.17-5.82.25-1,.04-1.92.43-2.65,1.29-2.31,2.56-.62,7.76,2.56,7.62,7.12-.52,14.24-.03,21.36.14,9.96.16,19.92.05,29.88.02,1.83.02,3.65.18,5.48.21.09,0,.19.01.29.01.8,0,1.59-.31,2.23-.9Z"/>
      <path class="cls-1" d="M665.84,51.34c.96-.85,1.46-2.2,1.46-3.56,0-.94-.24-1.89-.73-2.68-1.24-2.17-3.43-1.71-5.25-1.88-2.7-.15-5.41-.17-8.11-.14-7.71.13-15.41.06-23.12.03-5.86-.03-11.71-.49-17.57-.42-1.94.05-3.88.17-5.82.25-1,.04-1.92.43-2.65,1.29-2.31,2.56-.62,7.76,2.56,7.62,7.12-.52,14.24-.03,21.36.14,9.96.16,19.92.05,29.88.02,1.83.02,3.65.18,5.48.21.09,0,.19.01.29.01.8,0,1.59-.31,2.23-.9Z"/>
      <path class="cls-1" d="M665.84,68.01c.96-.85,1.46-2.2,1.46-3.56,0-.94-.24-1.89-.73-2.68-1.24-2.17-3.43-1.71-5.25-1.88-2.7-.15-5.41-.17-8.11-.14-7.71.13-15.41.06-23.12.03-5.86-.03-11.71-.49-17.57-.42-1.94.05-3.88.17-5.82.25-1,.04-1.92.43-2.65,1.29-2.31,2.56-.62,7.76,2.56,7.62,7.12-.52,14.24-.03,21.36.14,9.96.16,19.92.05,29.88.02,1.83.02,3.65.18,5.48.21.09,0,.19.01.29.01.8,0,1.59-.31,2.23-.9Z"/>
      <path class="cls-1" d="M665.84,84.68c.96-.85,1.46-2.2,1.46-3.56,0-.94-.24-1.89-.73-2.68-1.24-2.17-3.43-1.71-5.25-1.88-2.7-.15-5.41-.17-8.11-.14-7.71.13-15.41.06-23.12.03-5.86-.03-11.71-.49-17.57-.42-1.94.05-3.88.17-5.82.25-1,.04-1.92.43-2.65,1.29-2.31,2.56-.62,7.76,2.56,7.62,7.12-.52,14.24-.03,21.36.14,9.96.16,19.92.05,29.88.02,1.83.02,3.65.18,5.48.21.09,0,.19.01.29.01.8,0,1.59-.31,2.23-.9Z"/>
      <path class="cls-1" d="M665.84,118.02c.96-.85,1.46-2.2,1.46-3.56,0-.94-.24-1.89-.73-2.68-1.24-2.17-3.43-1.71-5.25-1.88-2.7-.15-5.41-.17-8.11-.14-7.71.13-15.41.06-23.12.03-5.86-.03-11.71-.49-17.57-.42-1.94.05-3.88.17-5.82.25-1,.04-1.92.43-2.65,1.29-2.31,2.56-.62,7.76,2.56,7.62,7.12-.52,14.24-.03,21.36.14,9.96.16,19.92.05,29.88.02,1.83.02,3.65.18,5.48.21.09,0,.19.01.29.01.8,0,1.59-.31,2.23-.9Z"/>
      <path class="cls-1" d="M665.84,101.35c.96-.85,1.46-2.2,1.46-3.56,0-.94-.24-1.89-.73-2.68-1.24-2.17-3.43-1.71-5.25-1.88-2.7-.15-5.41-.17-8.11-.14-7.71.13-15.41.06-23.12.03-5.86-.03-11.71-.49-17.57-.42-1.94.05-3.88.17-5.82.25-1,.04-1.92.43-2.65,1.29-2.31,2.56-.62,7.76,2.56,7.62,7.12-.52,14.24-.03,21.36.14,9.96.16,19.92.05,29.88.02,1.83.02,3.65.18,5.48.21.09,0,.19.01.29.01.8,0,1.59-.31,2.23-.9Z"/>
      <path class="cls-1" d="M665.84,134.68c.96-.85,1.46-2.2,1.46-3.56,0-.94-.24-1.89-.73-2.68-1.24-2.17-3.43-1.71-5.25-1.88-2.7-.15-5.41-.17-8.11-.14-7.71.13-15.41.06-23.12.03-5.86-.03-11.71-.49-17.57-.42-1.94.05-3.88.17-5.82.25-1,.04-1.92.43-2.65,1.29-2.31,2.56-.62,7.76,2.56,7.62,7.12-.52,14.24-.03,21.36.14,9.96.16,19.92.05,29.88.02,1.83.02,3.65.18,5.48.21.09,0,.19.01.29.01.8,0,1.59-.31,2.23-.9Z"/>
      <path class="cls-1" d="M163.78,18.01c.96-.85,1.46-2.2,1.46-3.56,0-.94-.24-1.89-.73-2.68-1.24-2.17-3.43-1.71-5.25-1.88-2.7-.15-5.41-.17-8.11-.14-7.71.13-15.41.06-23.12.03-5.86-.03-11.71-.49-17.57-.42-1.94.05-3.88.17-5.82.25-1,.04-1.92.43-2.65,1.29-2.31,2.56-.62,7.76,2.56,7.62,7.12-.52,14.24-.03,21.36.14,9.96.16,19.92.05,29.88.02,1.83.02,3.65.18,5.48.21.09,0,.19.01.29.01.8,0,1.59-.31,2.23-.9Z"/>
      <path class="cls-1" d="M163.78,34.67c.96-.85,1.46-2.2,1.46-3.56,0-.94-.24-1.89-.73-2.68-1.24-2.17-3.43-1.71-5.25-1.88-2.7-.15-5.41-.17-8.11-.14-7.71.13-15.41.06-23.12.03-5.86-.03-11.71-.49-17.57-.42-1.94.05-3.88.17-5.82.25-1,.04-1.92.43-2.65,1.29-2.31,2.56-.62,7.76,2.56,7.62,7.12-.52,14.24-.03,21.36.14,9.96.16,19.92.05,29.88.02,1.83.02,3.65.18,5.48.21.09,0,.19.01.29.01.8,0,1.59-.31,2.23-.9Z"/>
      <path class="cls-1" d="M163.78,51.34c.96-.85,1.46-2.2,1.46-3.56,0-.94-.24-1.89-.73-2.68-1.24-2.17-3.43-1.71-5.25-1.88-2.7-.15-5.41-.17-8.11-.14-7.71.13-15.41.06-23.12.03-5.86-.03-11.71-.49-17.57-.42-1.94.05-3.88.17-5.82.25-1,.04-1.92.43-2.65,1.29-2.31,2.56-.62,7.76,2.56,7.62,7.12-.52,14.24-.03,21.36.14,9.96.16,19.92.05,29.88.02,1.83.02,3.65.18,5.48.21.09,0,.19.01.29.01.8,0,1.59-.31,2.23-.9Z"/>
      <path class="cls-1" d="M163.78,68.01c.96-.85,1.46-2.2,1.46-3.56,0-.94-.24-1.89-.73-2.68-1.24-2.17-3.43-1.71-5.25-1.88-2.7-.15-5.41-.17-8.11-.14-7.71.13-15.41.06-23.12.03-5.86-.03-11.71-.49-17.57-.42-1.94.05-3.88.17-5.82.25-1,.04-1.92.43-2.65,1.29-2.31,2.56-.62,7.76,2.56,7.62,7.12-.52,14.24-.03,21.36.14,9.96.16,19.92.05,29.88.02,1.83.02,3.65.18,5.48.21.09,0,.19.01.29.01.8,0,1.59-.31,2.23-.9Z"/>
      <path class="cls-1" d="M163.78,84.68c.96-.85,1.46-2.2,1.46-3.56,0-.94-.24-1.89-.73-2.68-1.24-2.17-3.43-1.71-5.25-1.88-2.7-.15-5.41-.17-8.11-.14-7.71.13-15.41.06-23.12.03-5.86-.03-11.71-.49-17.57-.42-1.94.05-3.88.17-5.82.25-1,.04-1.92.43-2.65,1.29-2.31,2.56-.62,7.76,2.56,7.62,7.12-.52,14.24-.03,21.36.14,9.96.16,19.92.05,29.88.02,1.83.02,3.65.18,5.48.21.09,0,.19.01.29.01.8,0,1.59-.31,2.23-.9Z"/>
      <path class="cls-1" d="M163.78,118.02c.96-.85,1.46-2.2,1.46-3.56,0-.94-.24-1.89-.73-2.68-1.24-2.17-3.43-1.71-5.25-1.88-2.7-.15-5.41-.17-8.11-.14-7.71.13-15.41.06-23.12.03-5.86-.03-11.71-.49-17.57-.42-1.94.05-3.88.17-5.82.25-1,.04-1.92.43-2.65,1.29-2.31,2.56-.62,7.76,2.56,7.62,7.12-.52,14.24-.03,21.36.14,9.96.16,19.92.05,29.88.02,1.83.02,3.65.18,5.48.21.09,0,.19.01.29.01.8,0,1.59-.31,2.23-.9Z"/>
      <path class="cls-1" d="M163.78,101.35c.96-.85,1.46-2.2,1.46-3.56,0-.94-.24-1.89-.73-2.68-1.24-2.17-3.43-1.71-5.25-1.88-2.7-.15-5.41-.17-8.11-.14-7.71.13-15.41.06-23.12.03-5.86-.03-11.71-.49-17.57-.42-1.94.05-3.88.17-5.82.25-1,.04-1.92.43-2.65,1.29-2.31,2.56-.62,7.76,2.56,7.62,7.12-.52,14.24-.03,21.36.14,9.96.16,19.92.05,29.88.02,1.83.02,3.65.18,5.48.21.09,0,.19.01.29.01.8,0,1.59-.31,2.23-.9Z"/>
      <path class="cls-1" d="M163.78,134.68c.96-.85,1.46-2.2,1.46-3.56,0-.94-.24-1.89-.73-2.68-1.24-2.17-3.43-1.71-5.25-1.88-2.7-.15-5.41-.17-8.11-.14-7.71.13-15.41.06-23.12.03-5.86-.03-11.71-.49-17.57-.42-1.94.05-3.88.17-5.82.25-1,.04-1.92.43-2.65,1.29-2.31,2.56-.62,7.76,2.56,7.62,7.12-.52,14.24-.03,21.36.14,9.96.16,19.92.05,29.88.02,1.83.02,3.65.18,5.48.21.09,0,.19.01.29.01.8,0,1.59-.31,2.23-.9Z"/>
    </g>
  </g>
</svg>