<?xml version="1.0" encoding="UTF-8"?>
<svg id="Layer_2" data-name="Layer 2" xmlns="http://www.w3.org/2000/svg" viewBox="0 0 365.28 95.23">
  <defs>
    <style>
      .cls-1 {
        fill: #f09921;
      }
    </style>
  </defs>
  <g id="pattern">
    <g>
      <path class="cls-1" d="M177.66,25.96c-.83-.47-.65-1.31-.72-2-.06-1.03-.06-2.06-.05-3.09.05-2.94.02-5.88.01-8.81,0-2.23-.19-4.47-.16-6.7.02-.74.06-1.48.1-2.22.02-.38.16-.73.49-1.01.98-.88,2.96-.24,2.9.98-.2,2.71-.01,5.43.05,8.14.06,3.8.02,7.59,0,11.39,0,.7.07,1.39.08,2.09.03.34-.09.69-.34.96-.32.37-.84.56-1.36.56-.36,0-.72-.09-1.02-.28Z"/>
      <path class="cls-1" d="M169.84,25.65c-.21-.29-.28-.65-.2-.98.03-.61.05-1.23.05-1.84.01-1.41.06-2.82,0-4.23-.3-5.19-.45-10.38-.28-15.58.06-1.85,3.29-1.9,3.4-.03-.17,4.77-.04,9.54.21,14.31.16,2.56.1,5.13,0,7.69-.06.84-.89,1.35-1.73,1.35-.55,0-1.1-.22-1.45-.69Z"/>
      <path class="cls-1" d="M171.72,69.81c.83.47.65,1.31.72,2,.06,1.03.06,2.06.05,3.09-.05,2.94-.02,5.88-.01,8.81,0,2.23.19,4.47.16,6.7-.02.74-.06,1.48-.1,2.22-.02.38-.16.73-.49,1.01-.98.88-2.96.24-2.9-.98.2-2.71.01-5.43-.05-8.14-.06-3.8-.02-7.59,0-11.39,0-.7-.07-1.39-.08-2.09-.03-.34.09-.69.34-.96.32-.37.84-.56,1.36-.56.36,0,.72.09,1.02.28Z"/>
      <path class="cls-1" d="M179.54,70.12c.21.29.28.65.2.98-.03.61-.05,1.23-.05,1.84-.01,1.41-.06,2.82,0,4.23.3,5.19.45,10.38.28,15.58-.06,1.85-3.29,1.9-3.4.03.17-4.77.04-9.54-.21-14.31-.16-2.56-.1-5.13,0-7.69.06-.84.89-1.35,1.73-1.35.55,0,1.1.22,1.45.69Z"/>
      <path class="cls-1" d="M160.84,66.57c-.83-.47-.65-1.31-.72-2-.06-1.03-.23-1.79-.2-4.02.02-.74.06-1.48.1-2.22.02-.38.16-.73.49-1.01.98-.88,2.96-.24,2.9.98.15,2.86.13,6.34.14,7.04.03.34-.09.69-.34.96-.32.37-.84.56-1.36.56-.36,0-.72-.09-1.02-.28Z"/>
      <path class="cls-1" d="M177.52,63.27c-.89-.73-.61-2.84-.73-3.93-.04-3.1.2-6.2.3-9.3.22-6.58-.07-13.15-.26-19.72.03-2.07,3.28-2.15,3.4-.06.09,4.8.42,9.59.34,14.38.01,4.46-.29,8.92-.36,13.38-.02,1.36-.01,2.73.21,4.07.06.93-.86,1.61-1.76,1.61-.4,0-.8-.13-1.12-.44Z"/>
      <path class="cls-1" d="M159.28,26.03c-3.3-1.38-4.11-6.09-2.13-8.87.95-1.3,2.62-1.93,4.18-1.98,3.64-.05,6.33,3.64,5.29,7.1-.63,2.41-3.01,4.13-5.44,4.13-.64,0-1.29-.12-1.91-.38ZM160.58,18.73c-1.15.36-1.04,1.43-1.08,2.4.12,1.09.82,2.03,2.01,1.87,2.79-.58,2.33-4.4-.1-4.4-.26,0-.53.04-.83.13Z"/>
      <path class="cls-1" d="M160.34,13.89c-4.03-1.46-5.19-6.61-2.3-9.73.46-.52,1.03-.97,1.69-1.22.27-.16.6-.17.86-.35,1.46-.55,3.49-.15,4.74.74,4.28,3.1,1.61,10.85-3.29,10.85-.54,0-1.11-.1-1.7-.3ZM161.98,5.74c-2.82.41-2.89,4.6-.04,5.04,2.25-.02,3.34-5.04.16-5.04-.04,0-.08,0-.12,0Z"/>
      <path class="cls-1" d="M163.08,69.88c3.3,1.38,4.11,6.09,2.13,8.87-.95,1.3-2.62,1.93-4.18,1.98-3.64.05-6.33-3.64-5.29-7.1.63-2.41,3.01-4.13,5.44-4.13.64,0,1.29.12,1.91.38ZM161.78,77.18c1.15-.36,1.04-1.43,1.08-2.4-.12-1.09-.82-2.03-2.01-1.87-2.79.58-2.33,4.4.1,4.4.26,0,.53-.04.83-.13Z"/>
      <path class="cls-1" d="M162.02,82.02c4.03,1.46,5.19,6.61,2.3,9.73-.46.52-1.03.97-1.69,1.22-.27.16-.6.17-.86.35-1.46.55-3.49.15-4.74-.74-4.28-3.1-1.61-10.85,3.29-10.85.54,0,1.11.1,1.7.3ZM160.38,90.17c2.82-.41,2.89-4.6.04-5.04-2.25.02-3.34,5.04-.16,5.04.04,0,.08,0,.12,0Z"/>
      <path class="cls-1" d="M172.66,62.18c-.7.63-1.77.54-2.4-.14-.95-1.01-1.86-2.05-2.8-3.06-1.9-2.01-3.79-4.03-5.58-6.14-2.96,3.41-5.81,6.91-8.75,10.34-.92,1.29-2.87,1.16-3.26-.49-.15-.69.17-1.33.66-1.7.51-.53,1-1.11,1.46-1.69,1.51-1.9,3.1-3.73,4.69-5.57,1.28-1.47,2.46-3.04,3.84-4.41,1.78-1.51,3.47.79,4.59,2.02,1.58,1.93,3.34,3.68,5.03,5.51.9.96,1.77,1.96,2.67,2.92.63.67.54,1.79-.14,2.4Z"/>
      <path class="cls-1" d="M173.15,51.28c-.58.67-1.73.82-2.4.18-.94-.87-1.87-1.73-2.76-2.65-2.25-2.06-4.1-4.52-6.43-6.48-2.04,2.55-4.12,5.05-6.19,7.58-.67.83-1.27,1.71-1.94,2.55-.46.54-.87,1.19-1.5,1.54-1.65.8-3.26-1.25-2.04-2.64.5-.51.94-1.08,1.37-1.65,1.51-2.08,3.18-4.05,4.82-6.03,1.28-1.5,2.41-3.13,3.78-4.54,1.99-1.87,4.48,1.12,5.88,2.46,1.29,1.3,2.48,2.7,3.79,3.99.63.61,1.25,1.23,1.88,1.85,1.04,1.05,3.04,2.19,1.74,3.85Z"/>
      <path class="cls-1" d="M173.09,41.61c-.58.67-1.73.82-2.4.18-.94-.87-1.87-1.73-2.76-2.65-2.25-2.06-4.1-4.52-6.43-6.48-2.04,2.55-4.12,5.05-6.19,7.58-.67.83-1.27,1.71-1.94,2.55-.46.54-.87,1.19-1.5,1.54-1.65.8-3.26-1.25-2.04-2.64.5-.51.94-1.08,1.37-1.65,1.51-2.08,3.18-4.05,4.82-6.03,1.28-1.5,2.41-3.13,3.78-4.54,1.99-1.87,4.48,1.12,5.88,2.46,1.29,1.3,2.48,2.7,3.79,3.99.63.61,1.25,1.23,1.88,1.85,1.04,1.05,3.04,2.19,1.74,3.85Z"/>
      <path class="cls-1" d="M145.82,25.96c.83-.47.65-1.31.72-2,.06-1.03.06-2.06.05-3.09-.05-2.94-.02-5.88-.01-8.81,0-2.23.19-4.47.16-6.7-.02-.74-.06-1.48-.1-2.22-.02-.38-.16-.73-.49-1.01-.98-.88-2.96-.24-2.9.98.2,2.71.01,5.43-.05,8.14-.06,3.8-.02,7.59,0,11.39,0,.7-.07,1.39-.08,2.09-.03.34.09.69.34.96.32.37.84.56,1.36.56.36,0,.72-.09,1.02-.28Z"/>
      <path class="cls-1" d="M153.64,25.65c.21-.29.28-.65.2-.98-.03-.61-.05-1.23-.05-1.84-.01-1.41-.06-2.82,0-4.23.3-5.19.45-10.38.28-15.58-.06-1.85-3.29-1.9-3.4-.03.17,4.77.04,9.54-.21,14.31-.16,2.56-.1,5.13,0,7.69.06.84.89,1.35,1.73,1.35.55,0,1.1-.22,1.45-.69Z"/>
      <path class="cls-1" d="M138.14,25.96c1.36-.34,1.42-1.56,1.27-2.73,0-.83.04-1.66.08-2.49.2-5.65.79-11.29.68-16.95-.06-1.47-2.12-2.1-3.01-.93-.38.44-.41,1.01-.37,1.56-.05,3.42-.15,6.85-.39,10.27-.19,2.44-.28,4.89-.38,7.33-.02,1.65-.34,4.24,2.11,3.94Z"/>
      <path class="cls-1" d="M124.97,25.29c.83-.47.65-1.31.72-2,.06-1.03.06-2.06.05-3.09-.05-2.94-.02-5.88-.01-8.81,0-2.23.19-4.47.16-6.7-.02-.74-.06-1.48-.1-2.22-.02-.38-.16-.73-.49-1.01-.98-.88-2.96-.24-2.9.98.2,2.71.01,5.43-.05,8.14-.06,3.8-.02,7.59,0,11.39,0,.7-.07,1.39-.08,2.09-.03.34.09.69.34.96.32.37.84.56,1.36.56.36,0,.72-.09,1.02-.28Z"/>
      <path class="cls-1" d="M132.79,24.98c.21-.29.28-.65.2-.98-.03-.61-.05-1.23-.05-1.84-.01-1.41-.06-2.82,0-4.23.3-5.19.45-10.38.28-15.58-.06-1.85-3.29-1.9-3.4-.03.17,4.77.04,9.54-.21,14.31-.16,2.56-.1,5.13,0,7.69.06.84.89,1.35,1.73,1.35.55,0,1.1-.22,1.45-.69Z"/>
      <path class="cls-1" d="M116.33,25.21c3.3-1.38,4.11-6.09,2.13-8.87-.95-1.3-2.62-1.93-4.18-1.98-3.64-.05-6.33,3.64-5.29,7.1.63,2.41,3.01,4.13,5.44,4.13.64,0,1.29-.12,1.91-.38ZM115.03,17.91c1.15.36,1.04,1.43,1.08,2.4-.12,1.09-.82,2.03-2.01,1.87-2.79-.58-2.33-4.4.1-4.4.26,0,.53.04.83.13Z"/>
      <path class="cls-1" d="M115.28,13.07c4.03-1.46,5.19-6.61,2.3-9.73-.46-.52-1.03-.97-1.69-1.22-.27-.16-.6-.17-.86-.35-1.46-.55-3.49-.15-4.74.74-4.28,3.1-1.61,10.85,3.29,10.85.54,0,1.11-.1,1.7-.3ZM113.63,4.93c2.82.41,2.89,4.6.04,5.04-2.25-.02-3.34-5.04-.16-5.04.04,0,.08,0,.12,0Z"/>
      <path class="cls-1" d="M97.95,25.15c.83-.47.65-1.31.72-2,.06-1.03.06-2.06.05-3.09-.05-2.94-.02-5.88-.01-8.81,0-2.23.19-4.47.16-6.7-.02-.74-.06-1.48-.1-2.22-.02-.38-.16-.73-.49-1.01-.98-.88-2.96-.24-2.9.98.2,2.71.01,5.43-.05,8.14-.06,3.8-.02,7.59,0,11.39,0,.7-.07,1.39-.08,2.09-.03.34.09.69.34.96.32.37.84.56,1.36.56.36,0,.72-.09,1.02-.28Z"/>
      <path class="cls-1" d="M97.95,58.28c.83-.47.65-1.31.72-2,.06-1.03.06-2.06.05-3.09-.05-2.94-.02-5.88-.01-8.81,0-2.23.19-4.47.16-6.7-.02-.74-.06-1.48-.1-2.22-.02-.38-.16-.73-.49-1.01-.98-.88-2.96-.24-2.9.98.2,2.71.01,5.43-.05,8.14-.06,3.8-.02,7.59,0,11.39,0,.7-.07,1.39-.08,2.09-.03.34.09.69.34.96.32.37.84.56,1.36.56.36,0,.72-.09,1.02-.28Z"/>
      <path class="cls-1" d="M105.77,24.84c.21-.29.28-.65.2-.98-.03-.61-.05-1.23-.05-1.84-.01-1.41-.06-2.82,0-4.23.3-5.19.45-10.38.28-15.58-.06-1.85-3.29-1.9-3.4-.03.17,4.77.04,9.54-.21,14.31-.16,2.56-.1,5.13,0,7.69.06.84.89,1.35,1.73,1.35.55,0,1.1-.22,1.45-.69Z"/>
      <path class="cls-1" d="M151.76,69.81c-.83.47-.65,1.31-.72,2-.06,1.03-.06,2.06-.05,3.09.05,2.94.02,5.88.01,8.81,0,2.23-.19,4.47-.16,6.7.02.74.06,1.48.1,2.22.02.38.16.73.49,1.01.98.88,2.96.24,2.9-.98-.2-2.71-.01-5.43.05-8.14.06-3.8.02-7.59,0-11.39,0-.7.07-1.39.08-2.09.03-.34-.09-.69-.34-.96-.32-.37-.84-.56-1.36-.56-.36,0-.72.09-1.02.28Z"/>
      <path class="cls-1" d="M143.95,70.12c-.21.29-.28.65-.2.98.03.61.05,1.23.05,1.84.01,1.41.06,2.82,0,4.23-.3,5.19-.45,10.38-.28,15.58.06,1.85,3.29,1.9,3.4.03-.17-4.77-.04-9.54.21-14.31.16-2.56.1-5.13,0-7.69-.06-.84-.89-1.35-1.73-1.35-.55,0-1.1.22-1.45.69Z"/>
      <path class="cls-1" d="M137.47,69.39c-1.09.36-1.15,1.44-1.17,2.37-.04,1.22-.12,2.45-.21,3.67-.05,5.02-.31,10.03-.54,15.04-.03.47-.07.94-.1,1.4-.03,2.22,3.21,2.38,3.4.14.31-4.86.48-9.73.63-14.59-.04-1.66.14-3.31.2-4.96-.02-.75.24-1.55-.11-2.26-.37-.77-1.31-1.07-2.08-.81Z"/>
      <path class="cls-1" d="M103.21,70.75c-.83.47-.65,1.31-.72,2-.06,1.03-.06,2.06-.05,3.09.05,2.94.02,5.88.01,8.81,0,2.23-.19,4.47-.16,6.7.02.74.06,1.48.1,2.22.02.38.16.73.49,1.01.98.88,2.96.24,2.9-.98-.2-2.71-.01-5.43.05-8.14.06-3.8.02-7.59,0-11.39,0-.7.07-1.39.08-2.09.03-.34-.09-.69-.34-.96-.32-.37-.84-.56-1.36-.56-.36,0-.72.09-1.02.28Z"/>
      <path class="cls-1" d="M95.39,71.06c-.21.29-.28.65-.2.98.03.61.05,1.23.05,1.84.01,1.41.06,2.82,0,4.23-.3,5.19-.45,10.38-.28,15.58.06,1.85,3.29,1.9,3.4.03-.17-4.77-.04-9.54.21-14.31.16-2.56.1-5.13,0-7.69-.06-.84-.89-1.35-1.73-1.35-.55,0-1.1.22-1.45.69Z"/>
      <path class="cls-1" d="M111.85,70.83c-3.3,1.38-4.11,6.09-2.13,8.87.95,1.3,2.62,1.93,4.18,1.98,3.64.05,6.33-3.64,5.29-7.1-.63-2.41-3.01-4.13-5.44-4.13-.64,0-1.29.12-1.91.38ZM113.15,78.13c-1.15-.36-1.04-1.43-1.08-2.4.12-1.09.82-2.03,2.01-1.87,2.79.58,2.33,4.4-.1,4.4-.26,0-.53-.04-.83-.13Z"/>
      <path class="cls-1" d="M112.9,82.97c-4.03,1.46-5.19,6.61-2.3,9.73.46.52,1.03.97,1.69,1.22.27.16.6.17.86.35,1.46.55,3.49.15,4.74-.74,4.28-3.1,1.61-10.85-3.29-10.85-.54,0-1.11.1-1.7.3ZM114.55,91.11c-2.82-.41-2.89-4.6-.04-5.04,2.25.02,3.34,5.04.16,5.04-.04,0-.08,0-.12,0Z"/>
      <path class="cls-1" d="M130.23,70.89c-.83.47-.65,1.31-.72,2-.06,1.03-.06,2.06-.05,3.09.05,2.94.02,5.88.01,8.81,0,2.23-.19,4.47-.16,6.7.02.74.06,1.48.1,2.22.02.38.16.73.49,1.01.98.88,2.96.24,2.9-.98-.2-2.71-.01-5.43.05-8.14.06-3.8.02-7.59,0-11.39,0-.7.07-1.39.08-2.09.03-.34-.09-.69-.34-.96-.32-.37-.84-.56-1.36-.56-.36,0-.72.09-1.02.28Z"/>
      <path class="cls-1" d="M122.41,71.2c-.21.29-.28.65-.2.98.03.61.05,1.23.05,1.84.01,1.41.06,2.82,0,4.23-.3,5.19-.45,10.38-.28,15.58.06,1.85,3.29,1.9,3.4.03-.17-4.77-.04-9.54.21-14.31.16-2.56.1-5.13,0-7.69-.06-.84-.89-1.35-1.73-1.35-.55,0-1.1.22-1.45.69Z"/>
      <path class="cls-1" d="M87.2,51.3c2.41-.63,4.13-3.01,4.13-5.44,0-.64-.12-1.29-.38-1.91-1.38-3.3-6.09-4.11-8.87-2.13-1.3.95-1.93,2.62-1.98,4.18-.04,3.11,2.63,5.52,5.56,5.52.51,0,1.03-.07,1.54-.23ZM87.91,46.19c-.58,2.79-4.4,2.33-4.4-.1,0-.26.04-.53.13-.83.36-1.15,1.43-1.04,2.4-1.08,1.09.12,2.03.82,1.87,2.01Z"/>
      <path class="cls-1" d="M79.11,46.72c0-.54-.1-1.11-.3-1.7-1.46-4.03-6.61-5.19-9.73-2.3-.52.46-.97,1.03-1.22,1.69-.16.27-.17.6-.35.86-.55,1.46-.15,3.49.74,4.74,1.08,1.49,2.73,2.14,4.42,2.14,3.15,0,6.43-2.24,6.43-5.43ZM75.7,46.61c-.02,2.25-5.04,3.34-5.04.16,0-.04,0-.08,0-.12.21-1.42,1.38-2.15,2.54-2.15s2.28.69,2.5,2.1Z"/>
      <path class="cls-1" d="M90.61,64.72c.37-.32.56-.84.56-1.36,0-.36-.09-.72-.28-1.02-.47-.83-1.31-.65-2-.72-1.03-.06-2.06-.06-3.09-.05-2.94.05-5.88.02-8.81.01-2.23,0-4.47-.19-6.7-.16-.74.02-1.48.06-2.22.1-.38.02-.73.16-1.01.49-.88.98-.24,2.96.98,2.9,2.71-.2,5.43-.01,8.14.05,3.8.06,7.59.02,11.39,0,.7,0,1.39.07,2.09.08.04,0,.07,0,.11,0,.31,0,.61-.12.85-.34Z"/>
      <path class="cls-1" d="M89.92,57.7c.84-.06,1.35-.89,1.35-1.73,0-.55-.22-1.1-.69-1.45-.29-.21-.65-.28-.98-.2-.61.03-1.23.05-1.84.05-1.41.01-2.82.06-4.23,0-5.19-.3-10.38-.45-15.58-.28-1.85.06-1.9,3.29-.03,3.4,4.77-.17,9.54-.04,14.31.21,1.14.07,2.29.1,3.43.1,1.42,0,2.84-.04,4.25-.1Z"/>
      <path class="cls-1" d="M90.03,31.19c.84-.06,1.35-.89,1.35-1.73,0-.55-.22-1.1-.69-1.45-.29-.21-.65-.28-.98-.2-.61.03-1.23.05-1.84.05-1.41.01-2.82.06-4.23,0-5.19-.3-10.38-.45-15.58-.28-1.85.06-1.9,3.29-.03,3.4,4.77-.17,9.54-.04,14.31.21,1.14.07,2.29.1,3.43.1,1.42,0,2.84-.04,4.25-.1Z"/>
      <path class="cls-1" d="M90.62,37.16c.37-.32.56-.84.56-1.36,0-.36-.09-.72-.28-1.02-.47-.83-1.31-.65-2-.72-1.03-.06-2.06-.06-3.09-.05-2.94.05-5.88.02-8.81.01-2.23,0-4.47-.19-6.7-.16-.74.02-1.48.06-2.22.1-.38.02-.73.16-1.01.49-.88.98-.24,2.96.98,2.9,2.71-.2,5.43-.01,8.14.05,3.8.06,7.59.02,11.39,0,.7,0,1.39.07,2.09.08.04,0,.07,0,.11,0,.31,0,.61-.12.85-.34Z"/>
      <path class="cls-1" d="M122.37,51.3c2.41-.63,4.13-3.01,4.13-5.44,0-.64-.12-1.29-.38-1.91-1.38-3.3-6.09-4.11-8.87-2.13-1.3.95-1.93,2.62-1.98,4.18-.04,3.11,2.63,5.52,5.56,5.52.51,0,1.03-.07,1.54-.23ZM123.09,46.19c-.58,2.79-4.4,2.33-4.4-.1,0-.26.04-.53.13-.83.36-1.15,1.43-1.04,2.4-1.08,1.09.12,2.03.82,1.87,2.01Z"/>
      <path class="cls-1" d="M114.29,46.72c0-.54-.1-1.11-.3-1.7-1.46-4.03-6.61-5.19-9.73-2.3-.52.46-.97,1.03-1.22,1.69-.16.27-.17.6-.35.86-.55,1.46-.15,3.49.74,4.74,1.08,1.49,2.73,2.14,4.42,2.14,3.15,0,6.43-2.24,6.43-5.43ZM110.88,46.61c-.02,2.25-5.04,3.34-5.04.16,0-.04,0-.08,0-.12.21-1.42,1.38-2.15,2.54-2.15s2.28.69,2.5,2.1Z"/>
      <path class="cls-1" d="M125.79,64.72c.37-.32.56-.84.56-1.36,0-.36-.09-.72-.28-1.02-.47-.83-1.31-.65-2-.72-1.03-.06-2.06-.06-3.09-.05-2.94.05-5.88.02-8.81.01-2.23,0-4.47-.19-6.7-.16-.74.02-1.48.06-2.22.1-.38.02-.73.16-1.01.49-.88.98-.24,2.96.98,2.9,2.71-.2,5.43-.01,8.14.05,3.8.06,7.59.02,11.39,0,.7,0,1.39.07,2.09.08.04,0,.07,0,.11,0,.31,0,.61-.12.85-.34Z"/>
      <path class="cls-1" d="M125.09,57.7c.84-.06,1.35-.89,1.35-1.73,0-.55-.22-1.1-.69-1.45-.29-.21-.65-.28-.98-.2-.61.03-1.23.05-1.84.05-1.41.01-2.82.06-4.23,0-5.19-.3-10.38-.45-15.58-.28-1.85.06-1.9,3.29-.03,3.4,4.77-.17,9.54-.04,14.31.21,1.14.07,2.29.1,3.43.1,1.42,0,2.84-.04,4.25-.1Z"/>
      <path class="cls-1" d="M125.21,31.19c.84-.06,1.35-.89,1.35-1.73,0-.55-.22-1.1-.69-1.45-.29-.21-.65-.28-.98-.2-.61.03-1.23.05-1.84.05-1.41.01-2.82.06-4.23,0-5.19-.3-10.38-.45-15.58-.28-1.85.06-1.9,3.29-.03,3.4,4.77-.17,9.54-.04,14.31.21,1.14.07,2.29.1,3.43.1,1.42,0,2.84-.04,4.25-.1Z"/>
      <path class="cls-1" d="M125.8,37.16c.37-.32.56-.84.56-1.36,0-.36-.09-.72-.28-1.02-.47-.83-1.31-.65-2-.72-1.03-.06-2.06-.06-3.09-.05-2.94.05-5.88.02-8.81.01-2.23,0-4.47-.19-6.7-.16-.74.02-1.48.06-2.22.1-.38.02-.73.16-1.01.49-.88.98-.24,2.96.98,2.9,2.71-.2,5.43-.01,8.14.05,3.8.06,7.59.02,11.39,0,.7,0,1.39.07,2.09.08.04,0,.07,0,.11,0,.31,0,.61-.12.85-.34Z"/>
      <path class="cls-1" d="M91.2,15.68c-1.38,3.3-6.09,4.11-8.87,2.13-1.3-.95-1.93-2.62-1.98-4.18-.05-3.64,3.64-6.33,7.1-5.29,2.41.63,4.13,3.01,4.13,5.44,0,.64-.12,1.29-.38,1.91ZM83.9,14.37c.36,1.15,1.43,1.04,2.4,1.08,1.09-.12,2.03-.82,1.87-2.01-.58-2.79-4.4-2.33-4.4.1,0,.26.04.53.13.83Z"/>
      <path class="cls-1" d="M79.06,14.62c-1.46,4.03-6.61,5.19-9.73,2.3-.52-.46-.97-1.03-1.22-1.69-.16-.27-.17-.6-.35-.86-.55-1.46-.15-3.49.74-4.74,3.1-4.28,10.85-1.61,10.85,3.29,0,.54-.1,1.11-.3,1.7ZM70.91,12.98c.41,2.82,4.6,2.89,5.04.04-.02-2.25-5.04-3.34-5.04-.16,0,.04,0,.08,0,.12Z"/>
      <path class="cls-1" d="M66.05,15.7c-1.38,3.3-6.09,4.11-8.87,2.13-1.3-.95-1.93-2.62-1.98-4.18-.05-3.64,3.64-6.33,7.1-5.29,2.41.63,4.13,3.01,4.13,5.44,0,.64-.12,1.29-.38,1.91ZM58.75,14.4c.36,1.15,1.43,1.04,2.4,1.08,1.09-.12,2.03-.82,1.87-2.01-.58-2.79-4.4-2.33-4.4.1,0,.26.04.53.13.83Z"/>
      <path class="cls-1" d="M53.91,14.64c-1.46,4.03-6.61,5.19-9.73,2.3-.52-.46-.97-1.03-1.22-1.69-.16-.27-.17-.6-.35-.86-.55-1.46-.15-3.49.74-4.74,3.1-4.28,10.85-1.61,10.85,3.29,0,.54-.1,1.11-.3,1.7ZM45.77,13c.41,2.82,4.6,2.89,5.04.04-.02-2.25-5.04-3.34-5.04-.16,0,.04,0,.08,0,.12Z"/>
      <path class="cls-1" d="M90.81,5.21c1.91-.6,1.41-3.44-.63-3.34-4.25-.19-8.52-.25-12.77-.32-3.51-.12-7.02-.07-10.53.06-6.99.14-13.97-.31-20.96-.19-1.03.02-2.05.03-3.08.02-.93,0-1.68.84-1.65,1.75.03.95.82,1.65,1.75,1.65,8.61-.2,17.21.38,25.82.12,6.04-.19,12.07.08,18.11.16,1.31.01,2.65.27,3.95.08ZM90.14,5.27c-.14-.01-.28-.05-.41-.09,0,0,0,0,0,0,0,0,0,0,0,0,0,0,0,0,0,0,0,0,0,0,0,0-.04-.02-.09-.04-.13-.06.18.08.36.13.54.15Z"/>
      <path class="cls-1" d="M90.76,24.75c1.46-.94.75-3.23-1-3.14-1.69,0-3.38-.2-5.07-.14-10.36.08-20.71-.22-31.07-.25-2.7-.01-5.41-.09-8.11-.14-.66-.02-1.32-.01-1.99,0-.93,0-1.68.84-1.65,1.75.03.94.82,1.66,1.75,1.65.47,0,.94-.02,1.41,0,1.66.05,3.32.06,4.98.09,10.1.12,20.19.25,30.29.32,1.94.07,3.88-.03,5.83-.01,1,.02,1.99.14,2.99.13.56,0,1.16.1,1.65-.24Z"/>
      <path class="cls-1" d="M37.53,24.28c.63-.7.54-1.77-.14-2.4-1.01-.95-2.05-1.86-3.06-2.8-2.01-1.9-4.03-3.79-6.14-5.58,3.41-2.96,6.91-5.81,10.34-8.75,1.29-.92,1.16-2.87-.49-3.26-.69-.15-1.33.17-1.7.66-.53.51-1.11,1-1.69,1.46-1.9,1.51-3.73,3.1-5.57,4.69-1.47,1.28-3.04,2.46-4.41,3.84-1.51,1.78.79,3.47,2.02,4.59,1.93,1.58,3.68,3.34,5.51,5.03.96.9,1.96,1.77,2.92,2.67.67.63,1.79.54,2.4-.14Z"/>
      <path class="cls-1" d="M26.6,24.72c.67-.58.82-1.73.18-2.4-.87-.94-1.73-1.87-2.65-2.76-2.06-2.25-4.52-4.1-6.48-6.43,2.55-2.04,5.05-4.12,7.58-6.19.83-.67,1.71-1.27,2.55-1.94.54-.46,1.19-.87,1.54-1.5.8-1.65-1.25-3.26-2.64-2.04-.51.5-1.08.94-1.65,1.37-2.08,1.51-4.05,3.18-6.03,4.82-1.5,1.28-3.13,2.41-4.54,3.78-1.87,1.99,1.12,4.48,2.46,5.88,1.3,1.29,2.7,2.48,3.99,3.79.61.63,1.23,1.25,1.85,1.88,1.05,1.04,2.19,3.04,3.85,1.74Z"/>
      <path class="cls-1" d="M91.44,80.07c-1.38-3.3-6.09-4.11-8.87-2.13-1.3.95-1.93,2.62-1.98,4.18-.05,3.64,3.64,6.33,7.1,5.29,2.41-.63,4.13-3.01,4.13-5.44,0-.64-.12-1.29-.38-1.91ZM84.14,81.37c.36-1.15,1.43-1.04,2.4-1.08,1.09.12,2.03.82,1.87,2.01-.58,2.79-4.4,2.33-4.4-.1,0-.26.04-.53.13-.83Z"/>
      <path class="cls-1" d="M79.3,81.13c-1.46-4.03-6.61-5.19-9.73-2.3-.52.46-.97,1.03-1.22,1.69-.16.27-.17.6-.35.86-.55,1.46-.15,3.49.74,4.74,3.1,4.28,10.85,1.61,10.85-3.29,0-.54-.1-1.11-.3-1.7ZM71.15,82.77c.41-2.82,4.6-2.89,5.04-.04-.02,2.25-5.04,3.34-5.04.16,0-.04,0-.08,0-.12Z"/>
      <path class="cls-1" d="M66.29,80.05c-1.38-3.3-6.09-4.11-8.87-2.13-1.3.95-1.93,2.62-1.98,4.18-.05,3.64,3.64,6.33,7.1,5.29,2.41-.63,4.13-3.01,4.13-5.44,0-.64-.12-1.29-.38-1.91ZM58.99,81.35c.36-1.15,1.43-1.04,2.4-1.08,1.09.12,2.03.82,1.87,2.01-.58,2.79-4.4,2.33-4.4-.1,0-.26.04-.53.13-.83Z"/>
      <path class="cls-1" d="M54.15,81.1c-1.46-4.03-6.61-5.19-9.73-2.3-.52.46-.97,1.03-1.22,1.69-.16.27-.17.6-.35.86-.55,1.46-.15,3.49.74,4.74,3.1,4.28,10.85,1.61,10.85-3.29,0-.54-.1-1.11-.3-1.7ZM46.01,82.75c.41-2.82,4.6-2.89,5.04-.04-.02,2.25-5.04,3.34-5.04.16,0-.04,0-.08,0-.12Z"/>
      <path class="cls-1" d="M91.05,90.54c1.91.6,1.41,3.44-.63,3.34-4.25.19-8.52.25-12.77.32-3.51.12-7.02.07-10.53-.06-6.99-.14-13.97.31-20.96.19-1.03-.02-2.05-.03-3.08-.02-.93,0-1.68-.84-1.65-1.75.03-.95.82-1.65,1.75-1.65,8.61.2,17.21-.38,25.82-.12,6.04.19,12.07-.08,18.11-.16,1.31-.01,2.65-.27,3.95-.08ZM90.39,90.48c-.14.01-.28.05-.41.09,0,0,0,0,0,0,0,0,0,0,0,0,0,0,0,0,0,0,0,0,0,0,0,0-.04.02-.09.04-.13.06.18-.08.36-.13.54-.15Z"/>
      <path class="cls-1" d="M91,71c1.46.94.75,3.23-1,3.14-1.69,0-3.38.2-5.07.14-10.36-.08-20.71.22-31.07.25-2.7.01-5.41.09-8.11.14-.66.02-1.32.01-1.99,0-.93,0-1.68-.84-1.65-1.75.03-.94.82-1.66,1.75-1.65.47,0,.94.02,1.41,0,1.66-.05,3.32-.06,4.98-.09,10.1-.12,20.19-.25,30.29-.32,1.94-.07,3.88.03,5.83.01,1-.02,1.99-.14,2.99-.13.56,0,1.16-.1,1.65.24Z"/>
      <path class="cls-1" d="M37.42,92.27c.93-.92.42-2.26-.54-2.9-1.01-.83-1.93-1.76-2.92-2.61-2.05-1.62-4.01-3.35-5.87-5.18,2.27-2.07,4.58-3.77,6.93-5.7.66-.54,1.31-1.08,1.97-1.62.63-.56,1.47-1.04,1.45-2.01,0-1.1-1.09-1.95-2.16-1.64-.47.14-.81.47-1.16.79-.62.53-1.26,1.03-1.88,1.55-1.98,1.63-4.02,3.19-5.98,4.84-4.94,3.96-2.94,4.91.83,8.45,1.7,1.59,3.61,2.94,5.28,4.56.44.41.93.79,1.38,1.2.65.83,1.9,1.05,2.68.26ZM35.73,73.62c-.09-.06-.17-.13-.23-.21.07.08.15.14.23.21ZM35.29,73.15c-.05-.08-.1-.17-.13-.26.04.09.08.17.13.26Z"/>
      <path class="cls-1" d="M27.29,92.25c.71-.88.26-2.08-.61-2.65-.59-.52-1.16-1.07-1.72-1.62-2.06-2.15-4.5-3.94-6.44-6.21,1.1-1.19,2.37-2.22,3.55-3.33,1.75-1.62,3.43-3.32,5.23-4.89,1.6-.76,1.05-3.22-.74-3.23-1.06,0-1.76.94-2.5,1.57-1.9,1.74-3.72,3.57-5.64,5.28-1.18,1.19-4.06,3.18-3.56,5.03.82,2.06,2.73,3.46,4.28,4.96,1.19,1.09,2.4,2.17,3.53,3.33.73.71,1.47,1.4,2.24,2.06.7.6,1.84.4,2.38-.31Z"/>
      <path class="cls-1" d="M14.55,24.72c.67-.58.82-1.73.18-2.4-.87-.94-1.73-1.87-2.65-2.76-2.06-2.25-4.52-4.1-6.48-6.43,2.55-2.04,5.05-4.12,7.58-6.19.83-.67,1.71-1.27,2.55-1.94.54-.46,1.19-.87,1.54-1.5.8-1.65-1.25-3.26-2.64-2.04-.51.5-1.08.94-1.65,1.37-2.08,1.51-4.05,3.18-6.03,4.82-1.5,1.28-3.13,2.41-4.54,3.78-1.87,1.99,1.12,4.48,2.46,5.88,1.3,1.29,2.7,2.48,3.99,3.79.61.63,1.23,1.25,1.85,1.88,1.05,1.04,2.19,3.04,3.85,1.74Z"/>
      <path class="cls-1" d="M15.24,92.25c.71-.88.26-2.08-.61-2.65-.59-.52-1.16-1.07-1.72-1.62-2.06-2.15-4.5-3.94-6.44-6.21,1.1-1.19,2.37-2.22,3.55-3.33,1.75-1.62,3.43-3.32,5.23-4.89,1.6-.76,1.05-3.22-.74-3.23-1.06,0-1.76.94-2.5,1.57-1.9,1.74-3.72,3.57-5.64,5.28-1.18,1.19-4.06,3.18-3.56,5.03.82,2.06,2.73,3.46,4.28,4.96,1.19,1.09,2.4,2.17,3.53,3.33.73.71,1.47,1.4,2.24,2.06.7.6,1.84.4,2.38-.31Z"/>
      <path class="cls-1" d="M37.72,65.71c.89-.78.61-3.06.73-4.23.04-3.34-.2-6.67-.3-10-.22-7.08.07-14.14.26-21.21-.03-2.22-3.28-2.31-3.4-.06-.09,5.16-.42,10.31-.34,15.47-.01,4.8.29,9.6.36,14.4.02,1.46.01,2.93-.21,4.38-.06,1,.86,1.73,1.76,1.73.4,0,.8-.14,1.12-.47Z"/>
      <path class="cls-1" d="M45.1,65.86c.89-.78.61-3.06.73-4.23.04-3.34-.2-6.67-.3-10-.22-7.08.07-14.14.26-21.21-.03-2.22-3.28-2.31-3.4-.06-.09,5.16-.42,10.31-.34,15.47-.01,4.8.29,9.6.36,14.4.02,1.46.01,2.93-.21,4.38-.06,1,.86,1.73,1.76,1.73.4,0,.8-.14,1.12-.47Z"/>
      <path class="cls-1" d="M52.79,66.44c.89-.78.61-3.06.73-4.23.04-3.34-.2-6.67-.3-10-.22-7.08.07-14.14.26-21.21-.03-2.22-3.28-2.31-3.4-.06-.09,5.16-.42,10.31-.34,15.47-.01,4.8.29,9.6.36,14.4.02,1.46.01,2.93-.21,4.38-.06,1,.86,1.73,1.76,1.73.4,0,.8-.14,1.12-.47Z"/>
      <path class="cls-1" d="M60.01,66.44c.89-.78.61-3.06.73-4.23.04-3.34-.2-6.67-.3-10-.22-7.08.07-14.14.26-21.21-.03-2.22-3.28-2.31-3.4-.06-.09,5.16-.42,10.31-.34,15.47-.01,4.8.29,9.6.36,14.4.02,1.46.01,2.93-.21,4.38-.06,1,.86,1.73,1.76,1.73.4,0,.8-.14,1.12-.47Z"/>
      <path class="cls-1" d="M132.56,65.71c.89-.78.61-3.06.73-4.23.04-3.34-.2-6.67-.3-10-.22-7.08.07-14.14.26-21.21-.03-2.22-3.28-2.31-3.4-.06-.09,5.16-.42,10.31-.34,15.47-.01,4.8.29,9.6.36,14.4.02,1.46.01,2.93-.21,4.38-.06,1,.86,1.73,1.76,1.73.4,0,.8-.14,1.12-.47Z"/>
      <path class="cls-1" d="M30.62,65.69c.27-.35.4-.8.35-1.24.02-.65.09-1.3.13-1.95.14-2.64.22-5.28.26-7.93.06-8.06-.13-16.11.1-24.16-.02-2.22-3.28-2.31-3.4-.06-.06,3.49-.13,6.98-.14,10.47.08,7.06.15,14.13-.19,21.19-.04.93-.18,1.86-.14,2.79.08.95.9,1.54,1.73,1.54.48,0,.96-.2,1.3-.64Z"/>
      <path class="cls-1" d="M10.13,65.71c.89-.78.61-3.06.73-4.23.04-3.34-.2-6.67-.3-10-.22-7.08.07-14.14.26-21.21-.03-2.22-3.28-2.31-3.4-.06-.09,5.16-.42,10.31-.34,15.47-.01,4.8.29,9.6.36,14.4.02,1.46.01,2.93-.21,4.38-.06,1,.86,1.73,1.76,1.73.4,0,.8-.14,1.12-.47Z"/>
      <path class="cls-1" d="M3.04,65.69c.27-.35.4-.8.35-1.24.02-.65.09-1.3.13-1.95.14-2.64.22-5.28.26-7.93.06-8.06-.13-16.11.1-24.16-.02-2.22-3.28-2.31-3.4-.06-.06,3.49-.13,6.98-.14,10.47.08,7.06.15,14.13-.19,21.19-.04.93-.18,1.86-.14,2.79.08.95.9,1.54,1.73,1.54.48,0,.96-.2,1.3-.64Z"/>
      <path class="cls-1" d="M20.51,51.76c3.39-.96,5.09-4.37,3.73-7.64-.31-.78-.77-1.49-1.3-2.12-.45-.5-1.1-.81-1.73-1.02-3.32-1.15-7.43,1-7.65,4.68-.25,3.22,2.53,6.28,5.7,6.28.41,0,.83-.05,1.25-.16ZM19.53,44.08c.33.04.68.09.97.28.36.53.68,1.08.77,1.72.3,1.17-.8,2.34-1.94,2.43-1.08.03-1.94-.85-2.28-1.82-.53-1.45.81-2.63,2.19-2.63.1,0,.2,0,.3.02Z"/>
      <path class="cls-1" d="M22.52,64.53c2.02-1.25,2.63-3.87,1.94-6.06-.42-1.53-1.49-2.86-2.91-3.58-4.89-2.64-9.37,4.34-6.38,8.39.92,1.48,2.68,2.39,4.39,2.39,1.07,0,2.12-.35,2.95-1.14ZM21.28,59.76c.14.69.03,1.41-.52,1.89-.43.32-.86.7-1.44.62-1.05-.15-1.78-1.28-1.7-2.3.08-1,.81-2.23,1.9-2.27.94.27,1.62,1.1,1.76,2.06Z"/>
      <path class="cls-1" d="M20.55,38.93c4.46-1.03,5.86-6.24,3.28-9.78-.44-.55-.81-1.15-1.39-1.57-1.66-1.25-4.02-1.19-5.83-.3-6.2,3.06-2.93,13.21,3.93,11.65ZM18.98,35.68c-1.91-.22-2.89-2.93-1.86-4.46.67-1,2.12-1.55,3.23-.97.5.35.6,1.02,1.04,1.42.93,1.95-.13,4.13-2.42,4.01Z"/>
      <path class="cls-1" d="M145.97,64.6c.89-.76.61-2.95.73-4.08.04-3.22-.2-6.44-.3-9.66-.22-6.83.07-13.66.26-20.48-.03-2.15-3.28-2.23-3.4-.06-.09,4.98-.42,9.96-.34,14.94-.01,4.64.29,9.27.36,13.9.02,1.41.01,2.83-.21,4.23-.06.97.86,1.67,1.76,1.67.4,0,.8-.14,1.12-.46Z"/>
      <path class="cls-1" d="M138.87,64.44c.27-.33.4-.77.35-1.19.02-.63.09-1.25.13-1.88.14-2.54.22-5.08.26-7.62.06-7.75-.13-15.5.1-23.24-.02-2.14-3.28-2.22-3.4-.06-.06,3.35-.13,6.71-.14,10.07.08,6.79.15,13.59-.19,20.38-.04.89-.18,1.79-.14,2.68.08.92.9,1.48,1.73,1.48.48,0,.96-.19,1.3-.61Z"/>
      <path class="cls-1" d="M187.62,25.16c.83-.47.65-1.31.72-2,.06-1.03.06-2.06.05-3.09-.05-2.94-.02-5.88-.01-8.81,0-2.23.19-4.47.16-6.7-.02-.74-.06-1.48-.1-2.22-.02-.38-.16-.73-.49-1.01-.98-.88-2.96-.24-2.9.98.2,2.71.01,5.43-.05,8.14-.06,3.8-.02,7.59,0,11.39,0,.7-.07,1.39-.08,2.09-.03.34.09.69.34.96.32.37.84.56,1.36.56.36,0,.72-.09,1.02-.28Z"/>
      <path class="cls-1" d="M195.44,24.85c.21-.29.28-.65.2-.98-.03-.61-.05-1.23-.05-1.84-.01-1.41-.06-2.82,0-4.23.3-5.19.45-10.38.28-15.58-.06-1.85-3.29-1.9-3.4-.03.17,4.77.04,9.54-.21,14.31-.16,2.56-.1,5.13,0,7.69.06.84.89,1.35,1.73,1.35.55,0,1.1-.22,1.45-.69Z"/>
      <path class="cls-1" d="M193.56,69c-.83.47-.65,1.31-.72,2-.06,1.03-.06,2.06-.05,3.09.05,2.94.02,5.88.01,8.81,0,2.23-.19,4.47-.16,6.7.02.74.06,1.48.1,2.22.02.38.16.73.49,1.01.98.88,2.96.24,2.9-.98-.2-2.71-.01-5.43.05-8.14.06-3.8.02-7.59,0-11.39,0-.7.07-1.39.08-2.09.03-.34-.09-.69-.34-.96-.32-.37-.84-.56-1.36-.56-.36,0-.72.09-1.02.28Z"/>
      <path class="cls-1" d="M185.75,69.31c-.21.29-.28.65-.2.98.03.61.05,1.23.05,1.84.01,1.41.06,2.82,0,4.23-.3,5.19-.45,10.38-.28,15.58.06,1.85,3.29,1.9,3.4.03-.17-4.77-.04-9.54.21-14.31.16-2.56.1-5.13,0-7.69-.06-.84-.89-1.35-1.73-1.35-.55,0-1.1.22-1.45.69Z"/>
      <path class="cls-1" d="M204.44,65.76c.83-.47.65-1.31.72-2,.06-1.03.23-1.79.2-4.02-.02-.74-.06-1.48-.1-2.22-.02-.38-.16-.73-.49-1.01-.98-.88-2.96-.24-2.9.98-.15,2.86-.13,6.34-.14,7.04-.03.34.09.69.34.96.32.37.84.56,1.36.56.36,0,.72-.09,1.02-.28Z"/>
      <path class="cls-1" d="M187.77,62.46c.89-.73.61-2.84.73-3.93.04-3.1-.2-6.2-.3-9.3-.22-6.58.07-13.15.26-19.72-.03-2.07-3.28-2.15-3.4-.06-.09,4.8-.42,9.59-.34,14.38-.01,4.46.29,8.92.36,13.38.02,1.36.01,2.73-.21,4.07-.06.93.86,1.61,1.76,1.61.4,0,.8-.13,1.12-.44Z"/>
      <path class="cls-1" d="M206,25.22c3.3-1.38,4.11-6.09,2.13-8.87-.95-1.3-2.62-1.93-4.18-1.98-3.64-.05-6.33,3.64-5.29,7.1.63,2.41,3.01,4.13,5.44,4.13.64,0,1.29-.12,1.91-.38ZM204.7,17.92c1.15.36,1.04,1.43,1.08,2.4-.12,1.09-.82,2.03-2.01,1.87-2.79-.58-2.33-4.4.1-4.4.26,0,.53.04.83.13Z"/>
      <path class="cls-1" d="M204.94,13.08c4.03-1.46,5.19-6.61,2.3-9.73-.46-.52-1.03-.97-1.69-1.22-.27-.16-.6-.17-.86-.35-1.46-.55-3.49-.15-4.74.74-4.28,3.1-1.61,10.85,3.29,10.85.54,0,1.11-.1,1.7-.3ZM203.3,4.93c2.82.41,2.89,4.6.04,5.04-2.25-.02-3.34-5.04-.16-5.04.04,0,.08,0,.12,0Z"/>
      <path class="cls-1" d="M202.2,69.08c-3.3,1.38-4.11,6.09-2.13,8.87.95,1.3,2.62,1.93,4.18,1.98,3.64.05,6.33-3.64,5.29-7.1-.63-2.41-3.01-4.13-5.44-4.13-.64,0-1.29.12-1.91.38ZM203.5,76.38c-1.15-.36-1.04-1.43-1.08-2.4.12-1.09.82-2.03,2.01-1.87,2.79.58,2.33,4.4-.1,4.4-.26,0-.53-.04-.83-.13Z"/>
      <path class="cls-1" d="M203.26,81.22c-4.03,1.46-5.19,6.61-2.3,9.73.46.52,1.03.97,1.69,1.22.27.16.6.17.86.35,1.46.55,3.49.15,4.74-.74,4.28-3.1,1.61-10.85-3.29-10.85-.54,0-1.11.1-1.7.3ZM204.9,89.36c-2.82-.41-2.89-4.6-.04-5.04,2.25.02,3.34,5.04.16,5.04-.04,0-.08,0-.12,0Z"/>
      <path class="cls-1" d="M192.62,61.37c.7.63,1.77.54,2.4-.14.95-1.01,1.86-2.05,2.8-3.06,1.9-2.01,3.79-4.03,5.58-6.14,2.96,3.41,5.81,6.91,8.75,10.34.92,1.29,2.87,1.16,3.26-.49.15-.69-.17-1.33-.66-1.7-.51-.53-1-1.11-1.46-1.69-1.51-1.9-3.1-3.73-4.69-5.57-1.28-1.47-2.46-3.04-3.84-4.41-1.78-1.51-3.47.79-4.59,2.02-1.58,1.93-3.34,3.68-5.03,5.51-.9.96-1.77,1.96-2.67,2.92-.63.67-.54,1.79.14,2.4Z"/>
      <path class="cls-1" d="M192.14,50.47c.58.67,1.73.82,2.4.18.94-.87,1.87-1.73,2.76-2.65,2.25-2.06,4.1-4.52,6.43-6.48,2.04,2.55,4.12,5.05,6.19,7.58.67.83,1.27,1.71,1.94,2.55.46.54.87,1.19,1.5,1.54,1.65.8,3.26-1.25,2.04-2.64-.5-.51-.94-1.08-1.37-1.65-1.51-2.08-3.18-4.05-4.82-6.03-1.28-1.5-2.41-3.13-3.78-4.54-1.99-1.87-4.48,1.12-5.88,2.46-1.29,1.3-2.48,2.7-3.79,3.99-.63.61-1.25,1.23-1.88,1.85-1.04,1.05-3.04,2.19-1.74,3.85Z"/>
      <path class="cls-1" d="M192.19,40.8c.58.67,1.73.82,2.4.18.94-.87,1.87-1.73,2.76-2.65,2.25-2.06,4.1-4.52,6.43-6.48,2.04,2.55,4.12,5.05,6.19,7.58.67.83,1.27,1.71,1.94,2.55.46.54.87,1.19,1.5,1.54,1.65.8,3.26-1.25,2.04-2.64-.5-.51-.94-1.08-1.37-1.65-1.51-2.08-3.18-4.05-4.82-6.03-1.28-1.5-2.41-3.13-3.78-4.54-1.99-1.87-4.48,1.12-5.88,2.46-1.29,1.3-2.48,2.7-3.79,3.99-.63.61-1.25,1.23-1.88,1.85-1.04,1.05-3.04,2.19-1.74,3.85Z"/>
      <path class="cls-1" d="M219.46,25.16c-.83-.47-.65-1.31-.72-2-.06-1.03-.06-2.06-.05-3.09.05-2.94.02-5.88.01-8.81,0-2.23-.19-4.47-.16-6.7.02-.74.06-1.48.1-2.22.02-.38.16-.73.49-1.01.98-.88,2.96-.24,2.9.98-.2,2.71-.01,5.43.05,8.14.06,3.8.02,7.59,0,11.39,0,.7.07,1.39.08,2.09.03.34-.09.69-.34.96-.32.37-.84.56-1.36.56-.36,0-.72-.09-1.02-.28Z"/>
      <path class="cls-1" d="M211.64,24.85c-.21-.29-.28-.65-.2-.98.03-.61.05-1.23.05-1.84.01-1.41.06-2.82,0-4.23-.3-5.19-.45-10.38-.28-15.58.06-1.85,3.29-1.9,3.4-.03-.17,4.77-.04,9.54.21,14.31.16,2.56.1,5.13,0,7.69-.06.84-.89,1.35-1.73,1.35-.55,0-1.1-.22-1.45-.69Z"/>
      <path class="cls-1" d="M227.14,25.15c-1.36-.34-1.42-1.56-1.27-2.73,0-.83-.04-1.66-.08-2.49-.2-5.65-.79-11.29-.68-16.95.06-1.47,2.12-2.1,3.01-.93.38.44.41,1.01.37,1.56.05,3.42.15,6.85.39,10.27.19,2.44.28,4.89.38,7.33.02,1.65.34,4.24-2.11,3.94Z"/>
      <path class="cls-1" d="M240.31,24.48c-.83-.47-.65-1.31-.72-2-.06-1.03-.06-2.06-.05-3.09.05-2.94.02-5.88.01-8.81,0-2.23-.19-4.47-.16-6.7.02-.74.06-1.48.1-2.22.02-.38.16-.73.49-1.01.98-.88,2.96-.24,2.9.98-.2,2.71-.01,5.43.05,8.14.06,3.8.02,7.59,0,11.39,0,.7.07,1.39.08,2.09.03.34-.09.69-.34.96-.32.37-.84.56-1.36.56-.36,0-.72-.09-1.02-.28Z"/>
      <path class="cls-1" d="M232.49,24.17c-.21-.29-.28-.65-.2-.98.03-.61.05-1.23.05-1.84.01-1.41.06-2.82,0-4.23-.3-5.19-.45-10.38-.28-15.58.06-1.85,3.29-1.9,3.4-.03-.17,4.77-.04,9.54.21,14.31.16,2.56.1,5.13,0,7.69-.06.84-.89,1.35-1.73,1.35-.55,0-1.1-.22-1.45-.69Z"/>
      <path class="cls-1" d="M248.95,24.41c-3.3-1.38-4.11-6.09-2.13-8.87.95-1.3,2.62-1.93,4.18-1.98,3.64-.05,6.33,3.64,5.29,7.1-.63,2.41-3.01,4.13-5.44,4.13-.64,0-1.29-.12-1.91-.38ZM250.25,17.11c-1.15.36-1.04,1.43-1.08,2.4.12,1.09.82,2.03,2.01,1.87,2.79-.58,2.33-4.4-.1-4.4-.26,0-.53.04-.83.13Z"/>
      <path class="cls-1" d="M250,12.27c-4.03-1.46-5.19-6.61-2.3-9.73.46-.52,1.03-.97,1.69-1.22.27-.16.6-.17.86-.35,1.46-.55,3.49-.15,4.74.74,4.28,3.1,1.61,10.85-3.29,10.85-.54,0-1.11-.1-1.7-.3ZM251.65,4.12c-2.82.41-2.89,4.6-.04,5.04,2.25-.02,3.34-5.04.16-5.04-.04,0-.08,0-.12,0Z"/>
      <path class="cls-1" d="M267.33,24.34c-.83-.47-.65-1.31-.72-2-.06-1.03-.06-2.06-.05-3.09.05-2.94.02-5.88.01-8.81,0-2.23-.19-4.47-.16-6.7.02-.74.06-1.48.1-2.22.02-.38.16-.73.49-1.01.98-.88,2.96-.24,2.9.98-.2,2.71-.01,5.43.05,8.14.06,3.8.02,7.59,0,11.39,0,.7.07,1.39.08,2.09.03.34-.09.69-.34.96-.32.37-.84.56-1.36.56-.36,0-.72-.09-1.02-.28Z"/>
      <path class="cls-1" d="M267.33,57.47c-.83-.47-.65-1.31-.72-2-.06-1.03-.06-2.06-.05-3.09.05-2.94.02-5.88.01-8.81,0-2.23-.19-4.47-.16-6.7.02-.74.06-1.48.1-2.22.02-.38.16-.73.49-1.01.98-.88,2.96-.24,2.9.98-.2,2.71-.01,5.43.05,8.14.06,3.8.02,7.59,0,11.39,0,.7.07,1.39.08,2.09.03.34-.09.69-.34.96-.32.37-.84.56-1.36.56-.36,0-.72-.09-1.02-.28Z"/>
      <path class="cls-1" d="M259.51,24.03c-.21-.29-.28-.65-.2-.98.03-.61.05-1.23.05-1.84.01-1.41.06-2.82,0-4.23-.3-5.19-.45-10.38-.28-15.58.06-1.85,3.29-1.9,3.4-.03-.17,4.77-.04,9.54.21,14.31.16,2.56.1,5.13,0,7.69-.06.84-.89,1.35-1.73,1.35-.55,0-1.1-.22-1.45-.69Z"/>
      <path class="cls-1" d="M213.52,69c.83.47.65,1.31.72,2,.06,1.03.06,2.06.05,3.09-.05,2.94-.02,5.88-.01,8.81,0,2.23.19,4.47.16,6.7-.02.74-.06,1.48-.1,2.22-.02.38-.16.73-.49,1.01-.98.88-2.96.24-2.9-.98.2-2.71.01-5.43-.05-8.14-.06-3.8-.02-7.59,0-11.39,0-.7-.07-1.39-.08-2.09-.03-.34.09-.69.34-.96.32-.37.84-.56,1.36-.56.36,0,.72.09,1.02.28Z"/>
      <path class="cls-1" d="M221.33,69.31c.21.29.28.65.2.98-.03.61-.05,1.23-.05,1.84-.01,1.41-.06,2.82,0,4.23.3,5.19.45,10.38.28,15.58-.06,1.85-3.29,1.9-3.4.03.17-4.77.04-9.54-.21-14.31-.16-2.56-.1-5.13,0-7.69.06-.84.89-1.35,1.73-1.35.55,0,1.1.22,1.45.69Z"/>
      <path class="cls-1" d="M227.81,68.58c1.09.36,1.15,1.44,1.17,2.37.04,1.22.12,2.45.21,3.67.05,5.02.31,10.03.54,15.04.03.47.07.94.1,1.4.03,2.22-3.21,2.38-3.4.14-.31-4.86-.48-9.73-.63-14.59.04-1.66-.14-3.31-.2-4.96.02-.75-.24-1.55.11-2.26.37-.77,1.31-1.07,2.08-.81Z"/>
      <path class="cls-1" d="M262.07,69.94c.83.47.65,1.31.72,2,.06,1.03.06,2.06.05,3.09-.05,2.94-.02,5.88-.01,8.81,0,2.23.19,4.47.16,6.7-.02.74-.06,1.48-.1,2.22-.02.38-.16.73-.49,1.01-.98.88-2.96.24-2.9-.98.2-2.71.01-5.43-.05-8.14-.06-3.8-.02-7.59,0-11.39,0-.7-.07-1.39-.08-2.09-.03-.34.09-.69.34-.96.32-.37.84-.56,1.36-.56.36,0,.72.09,1.02.28Z"/>
      <path class="cls-1" d="M269.89,70.26c.21.29.28.65.2.98-.03.61-.05,1.23-.05,1.84-.01,1.41-.06,2.82,0,4.23.3,5.19.45,10.38.28,15.58-.06,1.85-3.29,1.9-3.4.03.17-4.77.04-9.54-.21-14.31-.16-2.56-.1-5.13,0-7.69.06-.84.89-1.35,1.73-1.35.55,0,1.1.22,1.45.69Z"/>
      <path class="cls-1" d="M253.43,70.02c3.3,1.38,4.11,6.09,2.13,8.87-.95,1.3-2.62,1.93-4.18,1.98-3.64.05-6.33-3.64-5.29-7.1.63-2.41,3.01-4.13,5.44-4.13.64,0,1.29.12,1.91.38ZM252.13,77.32c1.15-.36,1.04-1.43,1.08-2.4-.12-1.09-.82-2.03-2.01-1.87-2.79.58-2.33,4.4.1,4.4.26,0,.53-.04.83-.13Z"/>
      <path class="cls-1" d="M252.38,82.16c4.03,1.46,5.19,6.61,2.3,9.73-.46.52-1.03.97-1.69,1.22-.27.16-.6.17-.86.35-1.46.55-3.49.15-4.74-.74-4.28-3.1-1.61-10.85,3.29-10.85.54,0,1.11.1,1.7.3ZM250.73,90.31c2.82-.41,2.89-4.6.04-5.04-2.25.02-3.34,5.04-.16,5.04.04,0,.08,0,.12,0Z"/>
      <path class="cls-1" d="M235.05,70.08c.83.47.65,1.31.72,2,.06,1.03.06,2.06.05,3.09-.05,2.94-.02,5.88-.01,8.81,0,2.23.19,4.47.16,6.7-.02.74-.06,1.48-.1,2.22-.02.38-.16.73-.49,1.01-.98.88-2.96.24-2.9-.98.2-2.71.01-5.43-.05-8.14-.06-3.8-.02-7.59,0-11.39,0-.7-.07-1.39-.08-2.09-.03-.34.09-.69.34-.96.32-.37.84-.56,1.36-.56.36,0,.72.09,1.02.28Z"/>
      <path class="cls-1" d="M242.87,70.4c.21.29.28.65.2.98-.03.61-.05,1.23-.05,1.84-.01,1.41-.06,2.82,0,4.23.3,5.19.45,10.38.28,15.58-.06,1.85-3.29,1.9-3.4.03.17-4.77.04-9.54-.21-14.31-.16-2.56-.1-5.13,0-7.69.06-.84.89-1.35,1.73-1.35.55,0,1.1.22,1.45.69Z"/>
      <path class="cls-1" d="M278.08,50.5c-2.41-.63-4.13-3.01-4.13-5.44,0-.64.12-1.29.38-1.91,1.38-3.3,6.09-4.11,8.87-2.13,1.3.95,1.93,2.62,1.98,4.18.04,3.11-2.63,5.52-5.56,5.52-.51,0-1.03-.07-1.54-.23ZM277.37,45.38c.58,2.79,4.4,2.33,4.4-.1,0-.26-.04-.53-.13-.83-.36-1.15-1.43-1.04-2.4-1.08-1.09.12-2.03.82-1.87,2.01Z"/>
      <path class="cls-1" d="M286.17,45.91c0-.54.1-1.11.3-1.7,1.46-4.03,6.61-5.19,9.73-2.3.52.46.97,1.03,1.22,1.69.16.27.17.6.35.86.55,1.46.15,3.49-.74,4.74-1.08,1.49-2.73,2.14-4.42,2.14-3.15,0-6.43-2.24-6.43-5.43ZM289.58,45.81c.02,2.25,5.04,3.34,5.04.16,0-.04,0-.08,0-.12-.21-1.42-1.38-2.15-2.54-2.15s-2.28.69-2.5,2.1Z"/>
      <path class="cls-1" d="M274.67,63.91c-.37-.32-.56-.84-.56-1.36,0-.36.09-.72.28-1.02.47-.83,1.31-.65,2-.72,1.03-.06,2.06-.06,3.09-.05,2.94.05,5.88.02,8.81.01,2.23,0,4.47-.19,6.7-.16.74.02,1.48.06,2.22.1.38.02.73.16,1.01.49.88.98.24,2.96-.98,2.9-2.71-.2-5.43-.01-8.14.05-3.8.06-7.59.02-11.39,0-.7,0-1.39.07-2.09.08-.04,0-.07,0-.11,0-.31,0-.61-.12-.85-.34Z"/>
      <path class="cls-1" d="M275.37,56.89c-.84-.06-1.35-.89-1.35-1.73,0-.55.22-1.1.69-1.45.29-.21.65-.28.98-.2.61.03,1.23.05,1.84.05,1.41.01,2.82.06,4.23,0,5.19-.3,10.38-.45,15.58-.28,1.85.06,1.9,3.29.03,3.4-4.77-.17-9.54-.04-14.31.21-1.14.07-2.29.1-3.43.1-1.42,0-2.84-.04-4.25-.1Z"/>
      <path class="cls-1" d="M275.25,30.38c-.84-.06-1.35-.89-1.35-1.73,0-.55.22-1.1.69-1.45.29-.21.65-.28.98-.2.61.03,1.23.05,1.84.05,1.41.01,2.82.06,4.23,0,5.19-.3,10.38-.45,15.58-.28,1.85.06,1.9,3.29.03,3.4-4.77-.17-9.54-.04-14.31.21-1.14.07-2.29.1-3.43.1-1.42,0-2.84-.04-4.25-.1Z"/>
      <path class="cls-1" d="M274.66,36.35c-.37-.32-.56-.84-.56-1.36,0-.36.09-.72.28-1.02.47-.83,1.31-.65,2-.72,1.03-.06,2.06-.06,3.09-.05,2.94.05,5.88.02,8.81.01,2.23,0,4.47-.19,6.7-.16.74.02,1.48.06,2.22.1.38.02.73.16,1.01.49.88.98.24,2.96-.98,2.9-2.71-.2-5.43-.01-8.14.05-3.8.06-7.59.02-11.39,0-.7,0-1.39.07-2.09.08-.04,0-.07,0-.11,0-.31,0-.61-.12-.85-.34Z"/>
      <path class="cls-1" d="M242.91,50.5c-2.41-.63-4.13-3.01-4.13-5.44,0-.64.12-1.29.38-1.91,1.38-3.3,6.09-4.11,8.87-2.13,1.3.95,1.93,2.62,1.98,4.18.04,3.11-2.63,5.52-5.56,5.52-.51,0-1.03-.07-1.54-.23ZM242.19,45.38c.58,2.79,4.4,2.33,4.4-.1,0-.26-.04-.53-.13-.83-.36-1.15-1.43-1.04-2.4-1.08-1.09.12-2.03.82-1.87,2.01Z"/>
      <path class="cls-1" d="M250.99,45.91c0-.54.1-1.11.3-1.7,1.46-4.03,6.61-5.19,9.73-2.3.52.46.97,1.03,1.22,1.69.16.27.17.6.35.86.55,1.46.15,3.49-.74,4.74-1.08,1.49-2.73,2.14-4.42,2.14-3.15,0-6.43-2.24-6.43-5.43ZM254.4,45.81c.02,2.25,5.04,3.34,5.04.16,0-.04,0-.08,0-.12-.21-1.42-1.38-2.15-2.54-2.15s-2.28.69-2.5,2.1Z"/>
      <path class="cls-1" d="M239.5,63.91c-.37-.32-.56-.84-.56-1.36,0-.36.09-.72.28-1.02.47-.83,1.31-.65,2-.72,1.03-.06,2.06-.06,3.09-.05,2.94.05,5.88.02,8.81.01,2.23,0,4.47-.19,6.7-.16.74.02,1.48.06,2.22.1.38.02.73.16,1.01.49.88.98.24,2.96-.98,2.9-2.71-.2-5.43-.01-8.14.05-3.8.06-7.59.02-11.39,0-.7,0-1.39.07-2.09.08-.04,0-.07,0-.11,0-.31,0-.61-.12-.85-.34Z"/>
      <path class="cls-1" d="M240.19,56.89c-.84-.06-1.35-.89-1.35-1.73,0-.55.22-1.1.69-1.45.29-.21.65-.28.98-.2.61.03,1.23.05,1.84.05,1.41.01,2.82.06,4.23,0,5.19-.3,10.38-.45,15.58-.28,1.85.06,1.9,3.29.03,3.4-4.77-.17-9.54-.04-14.31.21-1.14.07-2.29.1-3.43.1-1.42,0-2.84-.04-4.25-.1Z"/>
      <path class="cls-1" d="M240.07,30.38c-.84-.06-1.35-.89-1.35-1.73,0-.55.22-1.1.69-1.45.29-.21.65-.28.98-.2.61.03,1.23.05,1.84.05,1.41.01,2.82.06,4.23,0,5.19-.3,10.38-.45,15.58-.28,1.85.06,1.9,3.29.03,3.4-4.77-.17-9.54-.04-14.31.21-1.14.07-2.29.1-3.43.1-1.42,0-2.84-.04-4.25-.1Z"/>
      <path class="cls-1" d="M239.48,36.35c-.37-.32-.56-.84-.56-1.36,0-.36.09-.72.28-1.02.47-.83,1.31-.65,2-.72,1.03-.06,2.06-.06,3.09-.05,2.94.05,5.88.02,8.81.01,2.23,0,4.47-.19,6.7-.16.74.02,1.48.06,2.22.1.38.02.73.16,1.01.49.88.98.24,2.96-.98,2.9-2.71-.2-5.43-.01-8.14.05-3.8.06-7.59.02-11.39,0-.7,0-1.39.07-2.09.08-.04,0-.07,0-.11,0-.31,0-.61-.12-.85-.34Z"/>
      <path class="cls-1" d="M274.08,14.87c1.38,3.3,6.09,4.11,8.87,2.13,1.3-.95,1.93-2.62,1.98-4.18.05-3.64-3.64-6.33-7.1-5.29-2.41.63-4.13,3.01-4.13,5.44,0,.64.12,1.29.38,1.91ZM281.38,13.57c-.36,1.15-1.43,1.04-2.4,1.08-1.09-.12-2.03-.82-1.87-2.01.58-2.79,4.4-2.33,4.4.1,0,.26-.04.53-.13.83Z"/>
      <path class="cls-1" d="M286.22,13.81c1.46,4.03,6.61,5.19,9.73,2.3.52-.46.97-1.03,1.22-1.69.16-.27.17-.6.35-.86.55-1.46.15-3.49-.74-4.74-3.1-4.28-10.85-1.61-10.85,3.29,0,.54.1,1.11.3,1.7ZM294.37,12.17c-.41,2.82-4.6,2.89-5.04.04.02-2.25,5.04-3.34,5.04-.16,0,.04,0,.08,0,.12Z"/>
      <path class="cls-1" d="M299.23,14.89c1.38,3.3,6.09,4.11,8.87,2.13,1.3-.95,1.93-2.62,1.98-4.18.05-3.64-3.64-6.33-7.1-5.29-2.41.63-4.13,3.01-4.13,5.44,0,.64.12,1.29.38,1.91ZM306.53,13.59c-.36,1.15-1.43,1.04-2.4,1.08-1.09-.12-2.03-.82-1.87-2.01.58-2.79,4.4-2.33,4.4.1,0,.26-.04.53-.13.83Z"/>
      <path class="cls-1" d="M311.37,13.84c1.46,4.03,6.61,5.19,9.73,2.3.52-.46.97-1.03,1.22-1.69.16-.27.17-.6.35-.86.55-1.46.15-3.49-.74-4.74-3.1-4.28-10.85-1.61-10.85,3.29,0,.54.1,1.11.3,1.7ZM319.51,12.19c-.41,2.82-4.6,2.89-5.04.04.02-2.25,5.04-3.34,5.04-.16,0,.04,0,.08,0,.12Z"/>
      <path class="cls-1" d="M274.47,4.4c-1.91-.6-1.41-3.44.63-3.34,4.25-.19,8.52-.25,12.77-.32,3.51-.12,7.02-.07,10.53.06,6.99.14,13.97-.31,20.96-.19,1.03.02,2.05.03,3.08.02.93,0,1.68.84,1.65,1.75-.03.95-.82,1.65-1.75,1.65-8.61-.2-17.21.38-25.82.12-6.04-.19-12.07.08-18.11.16-1.31.01-2.65.27-3.95.08ZM275.14,4.46c.14-.01.28-.05.41-.09,0,0,0,0,0,0,0,0,0,0,0,0,0,0,0,0,0,0,0,0,0,0,0,0,.04-.02.09-.04.13-.06-.18.08-.36.13-.54.15Z"/>
      <path class="cls-1" d="M274.52,23.94c-1.46-.94-.75-3.23,1-3.14,1.69,0,3.38-.2,5.07-.14,10.36.08,20.71-.22,31.07-.25,2.7-.01,5.41-.09,8.11-.14.66-.02,1.32-.01,1.99,0,.93,0,1.68.84,1.65,1.75-.03.94-.82,1.66-1.75,1.65-.47,0-.94-.02-1.41,0-1.66.05-3.32.06-4.98.09-10.1.12-20.19.25-30.29.32-1.94.07-3.88-.03-5.83-.01-1,.02-1.99.14-2.99.13-.56,0-1.16.1-1.65-.24Z"/>
      <path class="cls-1" d="M327.75,23.48c-.63-.7-.54-1.77.14-2.4,1.01-.95,2.05-1.86,3.06-2.8,2.01-1.9,4.03-3.79,6.14-5.58-3.41-2.96-6.91-5.81-10.34-8.75-1.29-.92-1.16-2.87.49-3.26.69-.15,1.33.17,1.7.66.53.51,1.11,1,1.69,1.46,1.9,1.51,3.73,3.1,5.57,4.69,1.47,1.28,3.04,2.46,4.41,3.84,1.51,1.78-.79,3.47-2.02,4.59-1.93,1.58-3.68,3.34-5.51,5.03-.96.9-1.96,1.77-2.92,2.67-.67.63-1.79.54-2.4-.14Z"/>
      <path class="cls-1" d="M338.68,23.91c-.67-.58-.82-1.73-.18-2.4.87-.94,1.73-1.87,2.65-2.76,2.06-2.25,4.52-4.1,6.48-6.43-2.55-2.04-5.05-4.12-7.58-6.19-.83-.67-1.71-1.27-2.55-1.94-.54-.46-1.19-.87-1.54-1.5-.8-1.65,1.25-3.26,2.64-2.04.51.5,1.08.94,1.65,1.37,2.08,1.51,4.05,3.18,6.03,4.82,1.5,1.28,3.13,2.41,4.54,3.78,1.87,1.99-1.12,4.48-2.46,5.88-1.3,1.29-2.7,2.48-3.99,3.79-.61.63-1.23,1.25-1.85,1.88-1.05,1.04-2.19,3.04-3.85,1.74Z"/>
      <path class="cls-1" d="M273.84,79.26c1.38-3.3,6.09-4.11,8.87-2.13,1.3.95,1.93,2.62,1.98,4.18.05,3.64-3.64,6.33-7.1,5.29-2.41-.63-4.13-3.01-4.13-5.44,0-.64.12-1.29.38-1.91ZM281.14,80.57c-.36-1.15-1.43-1.04-2.4-1.08-1.09.12-2.03.82-1.87,2.01.58,2.79,4.4,2.33,4.4-.1,0-.26-.04-.53-.13-.83Z"/>
      <path class="cls-1" d="M285.98,80.32c1.46-4.03,6.61-5.19,9.73-2.3.52.46.97,1.03,1.22,1.69.16.27.17.6.35.86.55,1.46.15,3.49-.74,4.74-3.1,4.28-10.85,1.61-10.85-3.29,0-.54.1-1.11.3-1.7ZM294.13,81.96c-.41-2.82-4.6-2.89-5.04-.04.02,2.25,5.04,3.34,5.04.16,0-.04,0-.08,0-.12Z"/>
      <path class="cls-1" d="M298.99,79.24c1.38-3.3,6.09-4.11,8.87-2.13,1.3.95,1.93,2.62,1.98,4.18.05,3.64-3.64,6.33-7.1,5.29-2.41-.63-4.13-3.01-4.13-5.44,0-.64.12-1.29.38-1.91ZM306.29,80.54c-.36-1.15-1.43-1.04-2.4-1.08-1.09.12-2.03.82-1.87,2.01.58,2.79,4.4,2.33,4.4-.1,0-.26-.04-.53-.13-.83Z"/>
      <path class="cls-1" d="M311.13,80.3c1.46-4.03,6.61-5.19,9.73-2.3.52.46.97,1.03,1.22,1.69.16.27.17.6.35.86.55,1.46.15,3.49-.74,4.74-3.1,4.28-10.85,1.61-10.85-3.29,0-.54.1-1.11.3-1.7ZM319.27,81.94c-.41-2.82-4.6-2.89-5.04-.04.02,2.25,5.04,3.34,5.04.16,0-.04,0-.08,0-.12Z"/>
      <path class="cls-1" d="M274.23,89.73c-1.91.6-1.41,3.44.63,3.34,4.25.19,8.52.25,12.77.32,3.51.12,7.02.07,10.53-.06,6.99-.14,13.97.31,20.96.19,1.03-.02,2.05-.03,3.08-.02.93,0,1.68-.84,1.65-1.75-.03-.95-.82-1.65-1.75-1.65-8.61.2-17.21-.38-25.82-.12-6.04.19-12.07-.08-18.11-.16-1.31-.01-2.65-.27-3.95-.08ZM274.89,89.67c.14.01.28.05.41.09,0,0,0,0,0,0,0,0,0,0,0,0,0,0,0,0,0,0,0,0,0,0,0,0,.04.02.09.04.13.06-.18-.08-.36-.13-.54-.15Z"/>
      <path class="cls-1" d="M274.28,70.19c-1.46.94-.75,3.23,1,3.14,1.69,0,3.38.2,5.07.14,10.36-.08,20.71.22,31.07.25,2.7.01,5.41.09,8.11.14.66.02,1.32.01,1.99,0,.93,0,1.68-.84,1.65-1.75-.03-.94-.82-1.66-1.75-1.65-.47,0-.94.02-1.41,0-1.66-.05-3.32-.06-4.98-.09-10.1-.12-20.19-.25-30.29-.32-1.94-.07-3.88.03-5.83.01-1-.02-1.99-.14-2.99-.13-.56,0-1.16-.1-1.65.24Z"/>
      <path class="cls-1" d="M327.86,91.47c-.93-.92-.42-2.26.54-2.9,1.01-.83,1.93-1.76,2.92-2.61,2.05-1.62,4.01-3.35,5.87-5.18-2.27-2.07-4.58-3.77-6.93-5.7-.66-.54-1.31-1.08-1.97-1.62-.63-.56-1.47-1.04-1.45-2.01,0-1.1,1.09-1.95,2.16-1.64.47.14.81.47,1.16.79.62.53,1.26,1.03,1.88,1.55,1.98,1.63,4.02,3.19,5.98,4.84,4.94,3.96,2.94,4.91-.83,8.45-1.7,1.59-3.61,2.94-5.28,4.56-.44.41-.93.79-1.38,1.2-.65.83-1.9,1.05-2.68.26ZM329.55,72.82c.09-.06.17-.13.23-.21-.07.08-.15.14-.23.21ZM329.99,72.34c.05-.08.1-.17.13-.26-.04.09-.08.17-.13.26Z"/>
      <path class="cls-1" d="M337.99,91.44c-.71-.88-.26-2.08.61-2.65.59-.52,1.16-1.07,1.72-1.62,2.06-2.15,4.5-3.94,6.44-6.21-1.1-1.19-2.37-2.22-3.55-3.33-1.75-1.62-3.43-3.32-5.23-4.89-1.6-.76-1.05-3.22.74-3.23,1.06,0,1.76.94,2.5,1.57,1.9,1.74,3.72,3.57,5.64,5.28,1.18,1.19,4.06,3.18,3.56,5.03-.82,2.06-2.73,3.46-4.28,4.96-1.19,1.09-2.4,2.17-3.53,3.33-.73.71-1.47,1.4-2.24,2.06-.7.6-1.84.4-2.38-.31Z"/>
      <path class="cls-1" d="M350.73,23.91c-.67-.58-.82-1.73-.18-2.4.87-.94,1.73-1.87,2.65-2.76,2.06-2.25,4.52-4.1,6.48-6.43-2.55-2.04-5.05-4.12-7.58-6.19-.83-.67-1.71-1.27-2.55-1.94-.54-.46-1.19-.87-1.54-1.5-.8-1.65,1.25-3.26,2.64-2.04.51.5,1.08.94,1.65,1.37,2.08,1.51,4.05,3.18,6.03,4.82,1.5,1.28,3.13,2.41,4.54,3.78,1.87,1.99-1.12,4.48-2.46,5.88-1.3,1.29-2.7,2.48-3.99,3.79-.61.63-1.23,1.25-1.85,1.88-1.05,1.04-2.19,3.04-3.85,1.74Z"/>
      <path class="cls-1" d="M350.04,91.44c-.71-.88-.26-2.08.61-2.65.59-.52,1.16-1.07,1.72-1.62,2.06-2.15,4.5-3.94,6.44-6.21-1.1-1.19-2.37-2.22-3.55-3.33-1.75-1.62-3.43-3.32-5.23-4.89-1.6-.76-1.05-3.22.74-3.23,1.06,0,1.76.94,2.5,1.57,1.9,1.74,3.72,3.57,5.64,5.28,1.18,1.19,4.06,3.18,3.56,5.03-.82,2.06-2.73,3.46-4.28,4.96-1.19,1.09-2.4,2.17-3.53,3.33-.73.71-1.47,1.4-2.24,2.06-.7.6-1.84.4-2.38-.31Z"/>
      <path class="cls-1" d="M327.56,64.9c-.89-.78-.61-3.06-.73-4.23-.04-3.34.2-6.67.3-10,.22-7.08-.07-14.14-.26-21.21.03-2.22,3.28-2.31,3.4-.06.09,5.16.42,10.31.34,15.47.01,4.8-.29,9.6-.36,14.4-.02,1.46-.01,2.93.21,4.38.06,1-.86,1.73-1.76,1.73-.4,0-.8-.14-1.12-.47Z"/>
      <path class="cls-1" d="M232.72,64.9c-.89-.78-.61-3.06-.73-4.23-.04-3.34.2-6.67.3-10,.22-7.08-.07-14.14-.26-21.21.03-2.22,3.28-2.31,3.4-.06.09,5.16.42,10.31.34,15.47.01,4.8-.29,9.6-.36,14.4-.02,1.46-.01,2.93.21,4.38.06,1-.86,1.73-1.76,1.73-.4,0-.8-.14-1.12-.47Z"/>
      <path class="cls-1" d="M334.66,64.88c-.27-.35-.4-.8-.35-1.24-.02-.65-.09-1.3-.13-1.95-.14-2.64-.22-5.28-.26-7.93-.06-8.06.13-16.11-.1-24.16.02-2.22,3.28-2.31,3.4-.06.06,3.49.13,6.98.14,10.47-.08,7.06-.15,14.13.19,21.19.04.93.18,1.86.14,2.79-.08.95-.9,1.54-1.73,1.54-.48,0-.96-.2-1.3-.64Z"/>
      <path class="cls-1" d="M312.83,64.9c-.89-.78-.61-3.06-.73-4.23-.04-3.34.2-6.67.3-10,.22-7.08-.07-14.14-.26-21.21.03-2.22,3.28-2.31,3.4-.06.09,5.16.42,10.31.34,15.47.01,4.8-.29,9.6-.36,14.4-.02,1.46-.01,2.93.21,4.38.06,1-.86,1.73-1.76,1.73-.4,0-.8-.14-1.12-.47Z"/>
      <path class="cls-1" d="M305.27,64.9c-.89-.78-.61-3.06-.73-4.23-.04-3.34.2-6.67.3-10,.22-7.08-.07-14.14-.26-21.21.03-2.22,3.28-2.31,3.4-.06.09,5.16.42,10.31.34,15.47.01,4.8-.29,9.6-.36,14.4-.02,1.46-.01,2.93.21,4.38.06,1-.86,1.73-1.76,1.73-.4,0-.8-.14-1.12-.47Z"/>
      <path class="cls-1" d="M319.93,64.88c-.27-.35-.4-.8-.35-1.24-.02-.65-.09-1.3-.13-1.95-.14-2.64-.22-5.28-.26-7.93-.06-8.06.13-16.11-.1-24.16.02-2.22,3.28-2.31,3.4-.06.06,3.49.13,6.98.14,10.47-.08,7.06-.15,14.13.19,21.19.04.93.18,1.86.14,2.79-.08.95-.9,1.54-1.73,1.54-.48,0-.96-.2-1.3-.64Z"/>
      <path class="cls-1" d="M355.15,64.9c-.89-.78-.61-3.06-.73-4.23-.04-3.34.2-6.67.3-10,.22-7.08-.07-14.14-.26-21.21.03-2.22,3.28-2.31,3.4-.06.09,5.16.42,10.31.34,15.47.01,4.8-.29,9.6-.36,14.4-.02,1.46-.01,2.93.21,4.38.06,1-.86,1.73-1.76,1.73-.4,0-.8-.14-1.12-.47Z"/>
      <path class="cls-1" d="M362.24,64.88c-.27-.35-.4-.8-.35-1.24-.02-.65-.09-1.3-.13-1.95-.14-2.64-.22-5.28-.26-7.93-.06-8.06.13-16.11-.1-24.16.02-2.22,3.28-2.31,3.4-.06.06,3.49.13,6.98.14,10.47-.08,7.06-.15,14.13.19,21.19.04.93.18,1.86.14,2.79-.08.95-.9,1.54-1.73,1.54-.48,0-.96-.2-1.3-.64Z"/>
      <path class="cls-1" d="M344.77,50.96c-3.39-.96-5.09-4.37-3.73-7.64.31-.78.77-1.49,1.3-2.12.45-.5,1.1-.81,1.73-1.02,3.32-1.15,7.43,1,7.65,4.68.25,3.22-2.53,6.28-5.7,6.28-.41,0-.83-.05-1.25-.16ZM345.75,43.28c-.33.04-.68.09-.97.28-.36.53-.68,1.08-.77,1.72-.3,1.17.8,2.34,1.94,2.43,1.08.03,1.94-.85,2.28-1.82.53-1.45-.81-2.63-2.19-2.63-.1,0-.2,0-.3.02Z"/>
      <path class="cls-1" d="M342.76,63.72c-2.02-1.25-2.63-3.87-1.94-6.06.42-1.53,1.49-2.86,2.91-3.58,4.89-2.64,9.37,4.34,6.38,8.39-.92,1.48-2.68,2.39-4.39,2.39-1.07,0-2.12-.35-2.95-1.14ZM344,58.96c-.14.69-.03,1.41.52,1.89.43.32.86.7,1.44.62,1.05-.15,1.78-1.28,1.7-2.3-.08-1-.81-2.23-1.9-2.27-.94.27-1.62,1.1-1.76,2.06Z"/>
      <path class="cls-1" d="M344.73,38.12c-4.46-1.03-5.86-6.24-3.28-9.78.44-.55.81-1.15,1.39-1.57,1.66-1.25,4.02-1.19,5.83-.3,6.2,3.06,2.93,13.21-3.93,11.65ZM346.3,34.87c1.91-.22,2.89-2.93,1.86-4.46-.67-1-2.12-1.55-3.23-.97-.5.35-.6,1.02-1.04,1.42-.93,1.95.13,4.13,2.42,4.01Z"/>
      <path class="cls-1" d="M219.31,63.79c-.89-.76-.61-2.95-.73-4.08-.04-3.22.2-6.44.3-9.66.22-6.83-.07-13.66-.26-20.48.03-2.15,3.28-2.23,3.4-.06.09,4.98.42,9.96.34,14.94.01,4.64-.29,9.27-.36,13.9-.02,1.41-.01,2.83.21,4.23.06.97-.86,1.67-1.76,1.67-.4,0-.8-.14-1.12-.46Z"/>
      <path class="cls-1" d="M226.41,63.64c-.27-.33-.4-.77-.35-1.19-.02-.63-.09-1.25-.13-1.88-.14-2.54-.22-5.08-.26-7.62-.06-7.75.13-15.5-.1-23.24.02-2.14,3.28-2.22,3.4-.06.06,3.35.13,6.71.14,10.07-.08,6.79-.15,13.59.19,20.38.04.89.18,1.79.14,2.68-.08.92-.9,1.48-1.73,1.48-.48,0-.96-.19-1.3-.61Z"/>
    </g>
  </g>
</svg>