<?xml version="1.0" encoding="UTF-8"?>
<svg id="Layer_2" data-name="Layer 2" xmlns="http://www.w3.org/2000/svg" viewBox="0 0 238.69 20.42">
  <defs>
    <style>
      .cls-1 {
        fill: #2f344b;
      }
    </style>
  </defs>
  <g id="Text">
    <g>
      <g>
        <path class="cls-1" d="M114.33,16.84c.01.05,0,.13-.04.17,0,.07-.04.14-.11.15-.49.06-.99.08-1.49.08-.17,0-.33,0-.49,0-.86,0-1.72-.05-2.58-.07-.31,0-.62,0-.92-.04-.11-.01-.25-.02-.33-.12-.04-.06-.05-.13-.05-.21-.06-.16-.01-.46-.04-.57-.03-.41-.05-.78-.05-1.19-.01-1.71.05-3.45-.28-5.13-.1-.51-.24-1.1-.67-1.44-.19-.09-.35-.28-.56-.28-.68.07-1.13.69-1.25,1.32-.29,1.89-.22,3.79-.17,5.69.04.38.05.76.02,1.14-.02.14.04.61-.13.61-.01,0-.02,0-.03,0-.02,0-.03-.02-.03-.03-.04.02-.08.04-.13.03-1.01,0-2.01,0-3.02-.02-.73.02-1.46.11-2.19.1h0c-.06,0-.12-.05-.12-.11-.08-.11-.04-.39-.08-.51-.26-2.04-.06-4.1-.23-6.14-.04-.47-.09-.97-.27-1.4-.35-.73-1.16-.8-1.74-.29-.68.78-.46,2.55-.41,3.53.03.49.11.99.13,1.49.03.51.04.99.09,1.49.08.54.12,1.09.12,1.64,0,.01,0,.02,0,.03.04.09,0,.23-.11.24-.02,0-.05,0-.08,0h-.06s-.07,0-.1,0c-.09.05-.2.05-.3.06-.64.04-1.29.1-1.93.1-.22,0-.44,0-.66-.02-.59-.02-1.17,0-1.76-.03-.45-.02-.99.04-1.02-.56-.23-2.2-.27-4.4-.19-6.6,0-1.17.03-2.37.1-3.54.06-.96.17-1.93.2-2.89-.02-.5.37-.54.77-.54.28-.02.57-.03.85-.02,1.14,0,2.29-.01,3.43.07.05,0,.11,0,.16,0,.21,0,.44,0,.47.24.04.25.05.51.03.76.06-.08.12-.15.17-.21.62-.72,1.62-.98,2.52-1.11,1.53-.2,3.04.4,4.19,1.39.29.24.54.47.77.75.13-.25.36-.53.43-.61.51-.54,1.11-1.05,1.82-1.3,1.02-.31,2.13-.26,3.16-.02.43.09.85.24,1.25.44.28.12.57.25.8.46,1.05.9,1.63,2.22,1.89,3.56.11.65.21,1.3.26,1.96.03.69.05,1.37.09,2.06-.02,1.03-.1,2.02-.07,3.04,0,.81.03,1.62.02,2.42Z"/>
        <path class="cls-1" d="M13.58,12.73c-.11,1.75-1.54,3.25-2.97,4.11-1.29.74-2.8,1.02-4.28,1.02-.11,0-.21,0-.32,0-1.21-.05-2.42-.14-3.6-.37-.51-.09-1.03-.15-1.5-.35-.02-.02-.04-.04-.05-.07-.02,0-.05-.03-.07-.08-.08-.24-.04-.52-.05-.77,0-.49.02-.99.01-1.48,0-.34-.02-.68.03-1.01,0-.05.02-.11.07-.14.04-.02.07,0,.09.02.03,0,.06,0,.08.02.04,0,.08.02.12.03.3.11.58.26.88.39,1.17.49,2.39.97,3.67,1,.55-.01,1.17-.01,1.62-.37.26-.24.29-.64.13-.94-.18-.25-.46-.4-.72-.54-.88-.41-1.83-.63-2.79-.8-1.45-.26-2.99-.52-3.64-2.03-.49-1.1-.31-2.42.13-3.51.49-1.27,1.52-2.25,2.75-2.8.98-.46,2.06-.63,3.13-.61,1.29,0,2.6.02,3.87.3.7.15,1.38.38,2.03.66,0,0,0,0,.01,0,0,0,.01,0,.02,0,.03,0,.05.04.06.07.08.22.07.45.08.68,0,.5-.02.99,0,1.48,0,.23,0,.45,0,.68,0,.08-.05.17-.13.17,0,0,0,0,0,0-.02,0-.05,0-.07,0-.19-.02-.36-.1-.54-.16-.4-.15-.82-.31-1.23-.43-.89-.22-1.84-.54-2.75-.29-.43.13-1.36.44-1.06,1.05.63.62,2.12.58,2.98.79,1.11.27,2.29.67,3.06,1.55.63.77.96,1.77.94,2.75Z"/>
        <path class="cls-1" d="M29.69,10.91c-.16-1.58-.32-3.29-1.3-4.61-1.3-1.87-3.42-2.93-5.7-2.88-1.24.05-2.4.57-3.46,1.18-1.26.78-2.42,1.83-3.1,3.16-.93,2.01-1.15,5.01-.05,6.98,1.12,1.88,3.42,2.49,5.46,2.77,1.05.18,2.11.29,3.17.31.29,0,.58,0,.87,0,.95,0,1.89-.02,2.83-.1.03,0,.07,0,.1,0,.18,0,.35-.02.53-.03,0,0,.01,0,.02,0,.02,0,.03,0,.05,0,.07,0,.13-.04.14-.13.07-.47.07-.95.08-1.42-.03-.84.13-1.69,0-2.52,0,0,0-.02-.01-.04,0-.04-.01-.08-.04-.12-.02-.03-.04-.06-.07-.05-.03,0-.07,0-.1,0h-.05c-.43,0-.85-.01-1.28,0-1.52-.02-3.04,0-4.55-.17-.42-.07-.86-.06-1.28-.19-.13-.04-.29-.12-.37-.24-.03-.08-.04-.17-.06-.25.01,0,.02,0,.04,0,0,0,.01,0,.02,0,1.51-.06,3.03-.08,4.54-.12,1.14.04,2.28.05,3.41.07.16.03.19-.17.11-.26.11-.44.07-.91.03-1.35ZM24.61,9.48c0,.06-.05.12-.11.12-.22,0-.44,0-.66.01-.82.03-1.65.09-2.47.12-.05-.01-.08-.06-.08-.1-.02-.03-.02-.07-.02-.1,0-.24.02-.48.06-.71.18-1.33,1.73-1.51,2.65-.8.35.34.6.81.65,1.3.01.05,0,.1-.03.13,0,0,0,.01,0,.02Z"/>
        <path class="cls-1" d="M41.42,3.93c0,.64-.04,1.28-.07,1.92-.02.97-.07,1.93-.04,2.9.02.34.02.69.01,1.03-.02.07-.07.11-.13.11-.01,0-.02,0-.03,0-.02.02-.04.03-.06.03-.04.01-.08,0-.11-.03-.22-.2-.45-.33-.69-.49-.74-.55-1.81-.39-2.19.5-.26.57-.24,1.21-.26,1.82-.01.54-.03,1.08-.01,1.61.03,1.2.13,2.41.01,3.61-.04.26-.01.67-.37.68-.61.07-1.21.07-1.82.06-.33,0-.65,0-.98,0-.26-.02-.53-.02-.81-.01-.48,0-.96.02-1.41-.12-.56-.27-.5-1.02-.55-1.54-.13-2-.24-4-.28-6.01-.02-.93,0-1.85-.04-2.78-.08-.79-.07-1.55,0-2.34.07-.47,0-1.16.41-1.47.46-.21,1-.13,1.49-.16.46-.02.91-.04,1.37-.04.44-.01.88.01,1.32.02.43,0,1.09.08,1.13.62.03.1.13.54.16.89.06-.09.13-.17.16-.21.82-.81,1.93-1.59,3.14-1.36.52.08.61.25.58.76Z"/>
        <path class="cls-1" d="M65.56,14.55c-.02.47-.04.95-.01,1.41,0,.29.02.54.03.83,0,.04-.01.1-.04.14.03.02.05.05.06.08.05.43-1.03.31-1.32.35-.32.02-.64.04-.95.04-.08,0-.17,0-.25,0-.76,0-1.53,0-2.29-.05-.19-.04-.63.02-.84-.09,0,0,0,0-.01,0-.25-.1-.16-.78-.2-1.02,0-.4-.02-.77-.04-1.17-.1-1.85-.11-3.7-.08-5.56-.01-1.25-.07-2.48-.11-3.72-.02-.68-.06-1.36,0-2.03.02-.19-.01-.4.13-.55.05-.04.11-.07.17-.09.17-.12.63-.11.76-.14.4-.05.8-.05,1.2-.05.29,0,.58,0,.87-.02.56,0,1.12,0,1.68.03.38.03.87-.02,1.11.34.29.55.19,1.2.26,1.8.03,1.1.01,2.21.01,3.31.02.87-.08,1.73-.09,2.6-.03,1.19-.02,2.37-.02,3.56Z"/>
        <path class="cls-1" d="M82.38,10.13c-.02-.58-.18-1.15-.3-1.71-.2-.93-.53-1.84-1.08-2.63-.8-1.19-1.91-2.22-3.25-2.77-.87-.33-1.83-.41-2.75-.39-.23-.04-.46-.04-.69-.04-.15,0-.3,0-.45,0-.31-.01-.62-.03-.93,0-1.23.17-2.42.72-3.39,1.5-1.15,1.09-1.83,2.61-2.1,4.16-.19,1.18-.1,2.38.16,3.55.39,1.59,1.35,3.05,2.67,4.02,1.35.9,2.91,1.51,4.55,1.51h.07c1.55,0,3.15-.39,4.42-1.3.89-.63,1.63-1.48,2.21-2.41.58-1.06.93-2.27.87-3.5ZM75.19,12.33s-.05,0-.08,0c-1.15-.09-1.48-1.38-1.5-2.35-.04-.52-.08-1.06.03-1.58.61-2.46,3.21-2.26,3.38.31.17,1.31-.13,3.61-1.82,3.61Z"/>
        <path class="cls-1" d="M57.88,13.37c-.23-.27-1.31-.56-1.53-.62-.89-.21-1.83-.28-2.75-.22-1.01.11-1.97.48-2.96.73-.8.21-1.81.67-2.52,0-.2-.21-.06-.52.13-.69.35-.33.83-.45,1.29-.55.35-.08.71-.15,1.07-.19,1.05-.12,2.11-.15,3.14-.42,1.26-.37,3.26-1.11,3.7-2.46.58-1.71-.15-3.72-1.7-4.65-.17-.11-.35-.22-.53-.3.08-.11.17-.21.26-.32.26-.34.55-.66.84-.98.15-.18.32-.35.48-.54.08-.09.04-.22-.06-.27-.75-.51-1.44-1.1-2.15-1.66-.11-.08-.22-.15-.34-.22-.2-.09-.42.33-.57.45-.67.72-1.32,1.44-2.05,2.1-.01,0-.02.02-.03.03-.18,0-.35,0-.53,0-.71.02-1.43.06-2.14.09-1.04.06-2.07.29-3.03.7-.91.34-1.8.92-2.22,1.84-.97,1.89-.24,4.48,1.55,5.63-.15.1-.3.21-.44.32-.5.37-.96.81-1.32,1.33-.97,1.24-1.41,3.04-.52,4.45.77,1.21,2.32,1.69,3.67,1.87,1.98.24,3.87-.62,5.84-.68.6,0,1.2.06,1.8.11.67.07,1.21.27,1.83.4.11.02.15-.09.13-.16.02-.01.04-.03.04-.05.09-.21.17-.43.24-.65.16-.47.33-.95.5-1.41.36-.96.68-1.93.96-2.91-.01-.06-.04-.09-.09-.1ZM49.43,5.98c.34-.39.97-.46,1.43-.29.48.19.64.76.69,1.22.08.49,0,.99-.17,1.46-.17.55-.83.7-1.33.54-.62-.19-.86-.86-.91-1.45-.04-.51-.07-1.08.29-1.48Z"/>
      </g>
      <g>
        <path class="cls-1" d="M238.68,10.52c-.02-.55-.17-1.09-.29-1.62-.19-.88-.5-1.75-1.02-2.49-.75-1.13-1.81-2.1-3.07-2.62-.82-.32-1.73-.39-2.61-.37-.21-.04-.43-.04-.66-.03-.14,0-.29,0-.43,0-.29-.01-.59-.03-.88,0-1.17.16-2.3.68-3.21,1.42-1.09,1.03-1.73,2.47-1.99,3.94-.18,1.12-.1,2.25.15,3.36.37,1.51,1.28,2.89,2.53,3.81,1.28.85,2.76,1.43,4.31,1.43h.07c1.47,0,2.98-.37,4.19-1.23.84-.6,1.55-1.4,2.09-2.28.55-1.01.88-2.15.82-3.31ZM231.87,12.6s-.05,0-.08,0c-1.09-.08-1.4-1.31-1.42-2.22-.04-.49-.07-1,.03-1.49.58-2.33,3.04-2.15,3.2.3.16,1.24-.13,3.42-1.73,3.42Z"/>
        <path class="cls-1" d="M225.02,3.75c-.06.25-.19.49-.32.71-.27.45-.56.9-.83,1.35-1.13,1.9-2.2,3.85-3.21,5.82-.42.74-.76,1.52-1.14,2.28-.25.45-.5.9-.74,1.35-.19.34-.37.7-.56,1.05-.05.07-.08.21-.17.25-.02.06-.04.12-.08.17-.1.24-.4.18-.6.2-.3.01-.59.02-.89.02-.06,0-.11,0-.17,0-.78,0-1.56-.03-2.34-.05-.64.01-1.25.01-1.88,0-.13-.02-.16-.12-.14-.2-.03-.1,0-.2.06-.28.14-.23.29-.46.42-.7.68-1.26,1.59-2.43,1.96-3.83.02-.13-.12-.22-.18-.31-.17-.19-.33-.39-.48-.59-.55-.74-1.03-1.53-1.49-2.33-.77-1.29-1.56-2.57-2.29-3.89-.15-.28-.32-.56-.48-.84-.05-.12-.2-.29-.15-.4,0-.35.83-.3,1.09-.33.71-.03,1.42-.08,2.13-.09.71,0,1.41,0,2.12.02.5.01,1.08,0,1.4.46.6.63,1.02,1.38,1.48,2.1.15.26.35.51.49.78.04-.06.08-.11.11-.17.2-.37.42-.73.63-1.1.24-.46.46-.91.76-1.33.12-.16.23-.33.4-.43.43-.19.92-.17,1.38-.17.71.02,1.42.05,2.13.1.45.04.91.04,1.35.11.05,0,.09.04.12.08.07.04.13.12.12.2Z"/>
        <polygon class="cls-1" points="152.02 20.42 152.02 20.42 152.02 20.42 152.02 20.42"/>
        <polygon class="cls-1" points="179.02 20.42 179.01 20.42 179.01 20.42 179.02 20.42"/>
        <polygon class="cls-1" points="206.55 20.42 206.55 20.42 206.55 20.42 206.55 20.42"/>
        <polygon class="cls-1" points="206.55 20.42 206.55 20.42 206.55 20.42 206.55 20.42"/>
        <path class="cls-1" d="M210.13,16.85c-.04-.1-.06-.2-.09-.3-.38-1.27-.8-2.52-1.22-3.78-.8-2.33-1.6-4.65-2.51-6.94-.32-.83-.62-1.68-1.03-2.47-.02-.08-.08-.11-.14-.1-.1,0-.2,0-.3,0-.23,0-.45,0-.69,0-1.04,0-2.1,0-3.14.06-.17.02-.35-.01-.51.03-.21-.01-.47.71-.57.85-.69,1.48-1.43,2.94-2.17,4.41-.67,1.44-1.34,2.9-1.98,4.36-.4.95-.85,1.86-1.29,2.8-.15.35-.32.69-.47,1.04-.02.03-.03.07-.02.11,0,.04.01.07.04.1.04.04.1.02.15.03.73.04,1.47.09,2.21.1.65.02,1.29.03,1.94.03.3,0,.58,0,.89,0,.19.06.22-.3.29-.42.15-.4.3-.81.47-1.2.05-.14.11-.27.16-.41.21,0,.43-.01.64-.01.27,0,.53,0,.8,0,.35,0,.71-.01,1.07-.01.15,0,.31,0,.46,0,.03,0,.06,0,.09,0,.03.07.08.14.1.19.31.62.62,1.25.96,1.86.02.03.07.05.11.04,0,0,0,0,0,0s0,0,0,0c1.88-.03,3.76-.07,5.64-.15.06,0,.09-.05.1-.09.01-.03.02-.06,0-.09ZM202.68,12.66c-.09.03-.21,0-.28.02-.35,0-.71,0-1.06,0-.12-.01-.25,0-.36-.03-.04-.02-.06-.05-.06-.09,0,0,0,0,0,0h0s0-.08.02-.12c.12-.39.29-.78.44-1.16.08-.2.16-.41.24-.61.04-.07.06-.22.12-.3.03-.09.17-.12.22-.01.18.47.38.96.55,1.43.09.25.22.5.29.76,0,.07-.05.12-.11.12Z"/>
        <path class="cls-1" d="M180.43,16.85c-.04-.1-.06-.2-.09-.3-.38-1.27-.8-2.52-1.22-3.78-.8-2.33-1.6-4.65-2.51-6.94-.32-.83-.62-1.68-1.03-2.47-.02-.08-.08-.11-.14-.1-.1,0-.2,0-.3,0-.23,0-.45,0-.69,0-1.04,0-2.1,0-3.14.06-.17.02-.35-.01-.51.03-.21-.01-.47.71-.57.85-.69,1.48-1.43,2.94-2.17,4.41-.67,1.44-1.34,2.9-1.98,4.36-.4.95-.85,1.86-1.29,2.8-.15.35-.32.69-.47,1.04-.02.03-.03.07-.02.11,0,.04.01.07.04.1.04.04.1.02.15.03.73.04,1.47.09,2.21.1.65.02,1.29.03,1.94.03.3,0,.58,0,.89,0,.19.06.22-.3.29-.42.15-.4.3-.81.47-1.2.05-.14.11-.27.16-.41.21,0,.43-.01.64-.01.27,0,.53,0,.8,0,.35,0,.7-.01,1.07-.01.15,0,.31,0,.46,0,.03,0,.06,0,.09,0,.03.07.08.14.1.19.31.62.62,1.25.95,1.86.03.03.07.05.11.04h0s0,0,0,0,0,0,0,0c1.88-.03,3.76-.07,5.64-.15.06,0,.09-.05.1-.09.01-.03.01-.06,0-.09ZM172.98,12.66c-.09.03-.21,0-.28.02-.35,0-.71,0-1.06,0-.12-.01-.25,0-.36-.03-.04-.02-.06-.05-.06-.09,0,0,0,0,0,0s0,0,0,0c0-.04,0-.08.02-.12.12-.39.29-.78.44-1.16.08-.2.16-.41.24-.61.04-.07.06-.22.12-.3.03-.09.17-.12.22-.01.18.47.38.96.55,1.43.09.25.22.5.29.76,0,.07-.05.12-.11.12Z"/>
        <path class="cls-1" d="M165.56,7.19c-.22-.97-.7-1.9-1.44-2.58-.94-.76-2.12-1.17-3.3-1.36-2.22-.36-4.49-.28-6.72-.17-.33.02-.65.03-.98.04-.06,0-.12,0-.18,0-.01,0-.03,0-.04.02,0,0-.02,0-.03.01-.08.03-.11.12-.11.2,0,2.14.03,4.28.07,6.42-.04,1.71-.02,3.43-.05,5.15,0,.5-.01,1,.02,1.51.03.26-.02.64.28.75h0c.06.03.13.02.19.02.26,0,.52,0,.78,0,.82,0,1.65-.01,2.47.01.45,0,.9-.01,1.35-.03.21-.01.57,0,.59-.28.09-.62.08-1.25.1-1.88,0-.27,0-.54,0-.8v-.03c.16,0,.32,0,.49-.01,1.34-.03,2.57-.16,3.73-.9,2.37-1.23,3.39-3.51,2.79-6.1ZM160.08,9.44c-.41.45-1.03.57-1.62.52-.09,0-.23,0-.23-.13-.02-.02-.04-.06-.04-.09,0-.81-.03-1.62,0-2.42,0-.1.01-.19,0-.29,0-.03,0-.06,0-.08-.02-.08.05-.17.17-.15,0,0,0,0,0,0,.62-.02,1.37-.04,1.77.52.49.61.45,1.56-.07,2.13Z"/>
        <path class="cls-1" d="M151.28,16.85c-.04-.1-.06-.2-.09-.3-.38-1.27-.8-2.52-1.22-3.78-.8-2.33-1.6-4.65-2.51-6.94-.32-.83-.62-1.68-1.03-2.47-.02-.08-.08-.11-.14-.1h0c-.33,0-.65,0-.99,0-1.04,0-2.1,0-3.14.06-.17.02-.35-.01-.51.03-.21-.01-.47.71-.57.85-.69,1.48-1.43,2.94-2.16,4.41-.67,1.44-1.34,2.9-1.98,4.36-.4.95-.85,1.86-1.29,2.8-.15.35-.32.69-.47,1.04-.02.03-.03.07-.02.11,0,.04.01.07.04.1.04.04.1.02.15.03.73.04,1.47.09,2.21.1.65.02,1.29.03,1.94.03.3,0,.58,0,.89,0,.19.06.22-.3.29-.42.15-.4.3-.81.47-1.2.06-.14.11-.27.16-.41.21,0,.43-.01.64-.01.27,0,.53,0,.8,0,.35,0,.71-.01,1.07-.01.15,0,.31,0,.46,0,.03,0,.05,0,.09,0,.03.07.08.14.1.19.31.62.62,1.25.95,1.86.03.03.07.05.11.04,0,0,0,0,0,0s0,0,0,0c1.88-.03,3.76-.07,5.64-.15.06,0,.09-.05.1-.09.01-.03.01-.06,0-.09ZM143.82,12.66c-.09.03-.21,0-.28.02-.35,0-.7,0-1.06,0-.12-.01-.25,0-.36-.03-.04-.02-.06-.05-.06-.09h0s0,0,0,0c-.01-.04,0-.08.02-.12.12-.39.29-.78.44-1.16.08-.2.16-.41.24-.61.04-.07.06-.22.12-.3.03-.09.17-.12.22-.01.18.47.38.96.55,1.43.09.25.22.5.29.76,0,.07-.05.12-.11.12Z"/>
        <path class="cls-1" d="M136.29,7.19c-.22-.97-.71-1.9-1.44-2.58-.94-.76-2.12-1.17-3.3-1.36-2.22-.36-4.49-.28-6.72-.17-.33.02-.65.03-.98.04-.06,0-.12,0-.18,0-.02,0-.03,0-.04.02,0,0-.02,0-.03.01-.08.03-.11.12-.11.2,0,2.14.03,4.28.07,6.42-.04,1.71-.02,3.43-.05,5.15,0,.5-.01,1,.02,1.51.03.26-.02.64.28.75h0c.06.03.13.02.19.02.26,0,.52,0,.78,0,.82,0,1.65-.01,2.47.01.45,0,.9-.01,1.35-.03.21-.01.57,0,.59-.28.09-.62.08-1.25.1-1.88,0-.27.01-.54,0-.8,0-.01,0-.02,0-.03.16,0,.32,0,.48-.01,1.34-.03,2.57-.16,3.73-.9,2.37-1.23,3.39-3.51,2.79-6.1ZM130.81,9.44c-.41.45-1.03.57-1.62.52-.09,0-.23,0-.23-.13-.02-.02-.04-.06-.04-.09,0-.81-.03-1.62,0-2.42,0-.1.01-.19,0-.29,0-.03,0-.06,0-.08-.02-.08.05-.17.17-.15,0,0,0,0,0,0,.62-.02,1.37-.04,1.77.52.49.61.45,1.56-.07,2.13Z"/>
        <path class="cls-1" d="M192.47,16.58s-.05.08-.1.1c-.06.13-.39.12-.5.16-.8.14-1.61.19-2.43.16-2.39-.07-5.04-.09-6.97-1.78-1.25-1.12-1.9-2.78-2.12-4.45-.18-1.84.33-3.8,1.52-5.2.89-1.15,2.22-1.79,3.58-2.13.82-.21,1.65-.39,2.49-.49.79-.07,1.6-.05,2.39,0,.48.03.97.04,1.45.07.02,0,.03-.01.06-.01.12.02.27.05.3.19.05.44-.01.89.01,1.33.02.64.04,1.28.07,1.92-.03.19.14,1.21-.09,1.28,0,0,0,0,0,0-.58.13-1.2.01-1.79.04-.85.02-1.7.02-2.54.17-1.22.23-2.21,1.16-2.28,2.49-.06.75.35,1.27.85,1.75.32.28.74.43,1.15.48-.05-.7-.02-1.4-.06-2.1-.02-.27-.04-.54-.05-.81-.01-.2.02-.46.26-.48.71-.11,1.44-.07,2.16-.11.63-.02,1.26-.06,1.89-.07.44,0,.7-.05.66.52-.02,1.75.12,3.51.13,5.26,0,.56.07,1.13.01,1.68Z"/>
      </g>
    </g>
  </g>
</svg>