<?xml version="1.0" encoding="iso-8859-1"?>
<!-- Generator: Adobe Illustrator 30.2.1, SVG Export Plug-In . SVG Version: 9.03 Build 0)  -->
<svg version="1.1" id="Layer_2_00000047054803647833218030000004706172745808339099_"
	 xmlns="http://www.w3.org/2000/svg" xmlns:xlink="http://www.w3.org/1999/xlink" x="0px" y="0px" width="116.366px"
	 height="34.524px" viewBox="0 0 116.366 34.524" enable-background="new 0 0 116.366 34.524" xml:space="preserve">
<path fill="#2F344B" d="M114.33,16.84c0.01,0.05,0,0.13-0.04,0.17c0,0.07-0.04,0.14-0.11,0.15c-0.49,0.06-0.99,0.08-1.49,0.08
	c-0.17,0-0.33,0-0.49,0c-0.86,0-1.72-0.05-2.58-0.07c-0.31,0-0.62,0-0.92-0.04c-0.11-0.01-0.25-0.02-0.33-0.12
	c-0.04-0.06-0.05-0.13-0.05-0.21c-0.06-0.16-0.01-0.46-0.04-0.57c-0.03-0.41-0.05-0.78-0.05-1.19c-0.01-1.71,0.05-3.45-0.28-5.13
	c-0.1-0.51-0.24-1.1-0.67-1.44c-0.19-0.09-0.35-0.28-0.56-0.28c-0.68,0.07-1.13,0.69-1.25,1.32c-0.29,1.89-0.22,3.79-0.17,5.69
	c0.04,0.38,0.05,0.76,0.02,1.14c-0.02,0.14,0.04,0.61-0.13,0.61c-0.01,0-0.02,0-0.03,0c-0.02,0-0.03-0.02-0.03-0.03
	c-0.04,0.02-0.08,0.04-0.13,0.03c-1.01,0-2.01,0-3.02-0.02c-0.73,0.02-1.46,0.11-2.19,0.1l0,0c-0.06,0-0.12-0.05-0.12-0.11
	c-0.08-0.11-0.04-0.39-0.08-0.51c-0.26-2.04-0.06-4.1-0.23-6.14c-0.04-0.47-0.09-0.97-0.27-1.4c-0.35-0.73-1.16-0.8-1.74-0.29
	c-0.68,0.78-0.46,2.55-0.41,3.53c0.03,0.49,0.11,0.99,0.13,1.49c0.03,0.51,0.04,0.99,0.09,1.49c0.08,0.54,0.12,1.09,0.12,1.64
	c0,0.01,0,0.02,0,0.03c0.04,0.09,0,0.23-0.11,0.24c-0.02,0-0.05,0-0.08,0h-0.06c0,0-0.07,0-0.1,0c-0.09,0.05-0.2,0.05-0.3,0.06
	c-0.64,0.04-1.29,0.1-1.93,0.1c-0.22,0-0.44,0-0.66-0.02c-0.59-0.02-1.17,0-1.76-0.03c-0.45-0.02-0.99,0.04-1.02-0.56
	c-0.23-2.2-0.27-4.4-0.19-6.6c0-1.17,0.03-2.37,0.1-3.54c0.06-0.96,0.17-1.93,0.2-2.89c-0.02-0.5,0.37-0.54,0.77-0.54
	c0.28-0.02,0.57-0.03,0.85-0.02c1.14,0,2.29-0.01,3.43,0.07c0.05,0,0.11,0,0.16,0c0.21,0,0.44,0,0.47,0.24
	c0.04,0.25,0.05,0.51,0.03,0.76c0.06-0.08,0.12-0.15,0.17-0.21c0.62-0.72,1.62-0.98,2.52-1.11c1.53-0.2,3.04,0.4,4.19,1.39
	c0.29,0.24,0.54,0.47,0.77,0.75c0.13-0.25,0.36-0.53,0.43-0.61c0.51-0.54,1.11-1.05,1.82-1.3c1.02-0.31,2.13-0.26,3.16-0.02
	c0.43,0.09,0.85,0.24,1.25,0.44c0.28,0.12,0.57,0.25,0.8,0.46c1.05,0.9,1.63,2.22,1.89,3.56c0.11,0.65,0.21,1.3,0.26,1.96
	c0.03,0.69,0.05,1.37,0.09,2.06c-0.02,1.03-0.1,2.02-0.07,3.04c0,0.81,0.03,1.62,0.02,2.42L114.33,16.84z"/>
<path fill="#2F344B" d="M13.58,12.73c-0.11,1.75-1.54,3.25-2.97,4.11c-1.29,0.74-2.8,1.02-4.28,1.02c-0.11,0-0.21,0-0.32,0
	c-1.21-0.05-2.42-0.14-3.6-0.37c-0.51-0.09-1.03-0.15-1.5-0.35c-0.02-0.02-0.04-0.04-0.05-0.07c-0.02,0-0.05-0.03-0.07-0.08
	c-0.08-0.24-0.04-0.52-0.05-0.77c0-0.49,0.02-0.99,0.01-1.48c0-0.34-0.02-0.68,0.03-1.01c0-0.05,0.02-0.11,0.07-0.14
	c0.04-0.02,0.07,0,0.09,0.02c0.03,0,0.06,0,0.08,0.02c0.04,0,0.08,0.02,0.12,0.03c0.3,0.11,0.58,0.26,0.88,0.39
	c1.17,0.49,2.39,0.97,3.67,1c0.55-0.01,1.17-0.01,1.62-0.37c0.26-0.24,0.29-0.64,0.13-0.94c-0.18-0.25-0.46-0.4-0.72-0.54
	c-0.88-0.41-1.83-0.63-2.79-0.8c-1.45-0.26-2.99-0.52-3.64-2.03c-0.49-1.1-0.31-2.42,0.13-3.51c0.49-1.27,1.52-2.25,2.75-2.8
	C4.15,3.6,5.23,3.43,6.3,3.45c1.29,0,2.6,0.02,3.87,0.3c0.7,0.15,1.38,0.38,2.03,0.66c0,0,0,0,0.01,0c0,0,0.01,0,0.02,0
	c0.03,0,0.05,0.04,0.06,0.07c0.08,0.22,0.07,0.45,0.08,0.68c0,0.5-0.02,0.99,0,1.48c0,0.23,0,0.45,0,0.68
	c0,0.08-0.05,0.17-0.13,0.17l0,0c-0.02,0-0.05,0-0.07,0c-0.19-0.02-0.36-0.1-0.54-0.16c-0.4-0.15-0.82-0.31-1.23-0.43
	C9.51,6.68,8.56,6.36,7.65,6.61C7.22,6.74,6.29,7.05,6.59,7.66c0.63,0.62,2.12,0.58,2.98,0.79c1.11,0.27,2.29,0.67,3.06,1.55
	c0.63,0.77,0.96,1.77,0.94,2.75L13.58,12.73z"/>
<path fill="#2F344B" d="M29.69,10.91c-0.16-1.58-0.32-3.29-1.3-4.61c-1.3-1.87-3.42-2.93-5.7-2.88c-1.24,0.05-2.4,0.57-3.46,1.18
	c-1.26,0.78-2.42,1.83-3.1,3.16c-0.93,2.01-1.15,5.01-0.05,6.98c1.12,1.88,3.42,2.49,5.46,2.77c1.05,0.18,2.11,0.29,3.17,0.31
	c0.29,0,0.58,0,0.87,0c0.95,0,1.89-0.02,2.83-0.1c0.03,0,0.07,0,0.1,0c0.18,0,0.35-0.02,0.53-0.03c0,0,0.01,0,0.02,0
	c0.02,0,0.03,0,0.05,0c0.07,0,0.13-0.04,0.14-0.13c0.07-0.47,0.07-0.95,0.08-1.42c-0.03-0.84,0.13-1.69,0-2.52c0,0,0-0.02-0.01-0.04
	c0-0.04-0.01-0.08-0.04-0.12c-0.02-0.03-0.04-0.06-0.07-0.05c-0.03,0-0.07,0-0.1,0h-0.05c-0.43,0-0.85-0.01-1.28,0
	c-1.52-0.02-3.04,0-4.55-0.17c-0.42-0.07-0.86-0.06-1.28-0.19c-0.13-0.04-0.29-0.12-0.37-0.24c-0.03-0.08-0.04-0.17-0.06-0.25
	c0.01,0,0.02,0,0.04,0c0,0,0.01,0,0.02,0c1.51-0.06,3.03-0.08,4.54-0.12c1.14,0.04,2.28,0.05,3.41,0.07
	c0.16,0.03,0.19-0.17,0.11-0.26c0.11-0.44,0.07-0.91,0.03-1.35L29.69,10.91z M24.61,9.48c0,0.06-0.05,0.12-0.11,0.12
	c-0.22,0-0.44,0-0.66,0.01c-0.82,0.03-1.65,0.09-2.47,0.12c-0.05-0.01-0.08-0.06-0.08-0.1c-0.02-0.03-0.02-0.07-0.02-0.1
	c0-0.24,0.02-0.48,0.06-0.71c0.18-1.33,1.73-1.51,2.65-0.8c0.35,0.34,0.6,0.81,0.65,1.3c0.01,0.05,0,0.1-0.03,0.13
	c0,0,0,0.01,0,0.02L24.61,9.48z"/>
<path fill="#2F344B" d="M41.42,3.93c0,0.64-0.04,1.28-0.07,1.92c-0.02,0.97-0.07,1.93-0.04,2.9c0.02,0.34,0.02,0.69,0.01,1.03
	c-0.02,0.07-0.07,0.11-0.13,0.11c-0.01,0-0.02,0-0.03,0c-0.02,0.02-0.04,0.03-0.06,0.03c-0.04,0.01-0.08,0-0.11-0.03
	c-0.22-0.2-0.45-0.33-0.69-0.49c-0.74-0.55-1.81-0.39-2.19,0.5c-0.26,0.57-0.24,1.21-0.26,1.82c-0.01,0.54-0.03,1.08-0.01,1.61
	c0.03,1.2,0.13,2.41,0.01,3.61c-0.04,0.26-0.01,0.67-0.37,0.68c-0.61,0.07-1.21,0.07-1.82,0.06c-0.33,0-0.65,0-0.98,0
	c-0.26-0.02-0.53-0.02-0.81-0.01c-0.48,0-0.96,0.02-1.41-0.12c-0.56-0.27-0.5-1.02-0.55-1.54c-0.13-2-0.24-4-0.28-6.01
	c-0.02-0.93,0-1.85-0.04-2.78c-0.08-0.79-0.07-1.55,0-2.34c0.07-0.47,0-1.16,0.41-1.47c0.46-0.21,1-0.13,1.49-0.16
	c0.46-0.02,0.91-0.04,1.37-0.04c0.44-0.01,0.88,0.01,1.32,0.02c0.43,0,1.09,0.08,1.13,0.62c0.03,0.1,0.13,0.54,0.16,0.89
	c0.06-0.09,0.13-0.17,0.16-0.21c0.82-0.81,1.93-1.59,3.14-1.36c0.52,0.08,0.61,0.25,0.58,0.76L41.42,3.93z"/>
<path fill="#2F344B" d="M65.56,14.55c-0.02,0.47-0.04,0.95-0.01,1.41c0,0.29,0.02,0.54,0.03,0.83c0,0.04-0.01,0.1-0.04,0.14
	c0.03,0.02,0.05,0.05,0.06,0.08c0.05,0.43-1.03,0.31-1.32,0.35c-0.32,0.02-0.64,0.04-0.95,0.04c-0.08,0-0.17,0-0.25,0
	c-0.76,0-1.53,0-2.29-0.05c-0.19-0.04-0.63,0.02-0.84-0.09c0,0,0,0-0.01,0c-0.25-0.1-0.16-0.78-0.2-1.02c0-0.4-0.02-0.77-0.04-1.17
	c-0.1-1.85-0.11-3.7-0.08-5.56c-0.01-1.25-0.07-2.48-0.11-3.72c-0.02-0.68-0.06-1.36,0-2.03c0.02-0.19-0.01-0.4,0.13-0.55
	c0.05-0.04,0.11-0.07,0.17-0.09c0.17-0.12,0.63-0.11,0.76-0.14c0.4-0.05,0.8-0.05,1.2-0.05c0.29,0,0.58,0,0.87-0.02
	c0.56,0,1.12,0,1.68,0.03c0.38,0.03,0.87-0.02,1.11,0.34c0.29,0.55,0.19,1.2,0.26,1.8c0.03,1.1,0.01,2.21,0.01,3.31
	c0.02,0.87-0.08,1.73-0.09,2.6c-0.03,1.19-0.02,2.37-0.02,3.56L65.56,14.55z"/>
<path fill="#2F344B" d="M82.38,10.13c-0.02-0.58-0.18-1.15-0.3-1.71c-0.2-0.93-0.53-1.84-1.08-2.63c-0.8-1.19-1.91-2.22-3.25-2.77
	C76.88,2.69,75.92,2.61,75,2.63c-0.23-0.04-0.46-0.04-0.69-0.04c-0.15,0-0.3,0-0.45,0c-0.31-0.01-0.62-0.03-0.93,0
	c-1.23,0.17-2.42,0.72-3.39,1.5c-1.15,1.09-1.83,2.61-2.1,4.16c-0.19,1.18-0.1,2.38,0.16,3.55c0.39,1.59,1.35,3.05,2.67,4.02
	c1.35,0.9,2.91,1.51,4.55,1.51h0.07c1.55,0,3.15-0.39,4.42-1.3c0.89-0.63,1.63-1.48,2.21-2.41c0.58-1.06,0.93-2.27,0.87-3.5
	L82.38,10.13z M75.19,12.33c0,0-0.05,0-0.08,0c-1.15-0.09-1.48-1.38-1.5-2.35c-0.04-0.52-0.08-1.06,0.03-1.58
	c0.61-2.46,3.21-2.26,3.38,0.31c0.17,1.31-0.13,3.61-1.82,3.61L75.19,12.33z"/>
<path fill="#2F344B" d="M57.88,13.37c-0.23-0.27-1.31-0.56-1.53-0.62c-0.89-0.21-1.83-0.28-2.75-0.22
	c-1.01,0.11-1.97,0.48-2.96,0.73c-0.8,0.21-1.81,0.67-2.52,0c-0.2-0.21-0.06-0.52,0.13-0.69c0.35-0.33,0.83-0.45,1.29-0.55
	c0.35-0.08,0.71-0.15,1.07-0.19c1.05-0.12,2.11-0.15,3.14-0.42c1.26-0.37,3.26-1.11,3.7-2.46c0.58-1.71-0.15-3.72-1.7-4.65
	C55.58,4.19,55.4,4.08,55.22,4c0.08-0.11,0.17-0.21,0.26-0.32c0.26-0.34,0.55-0.66,0.84-0.98c0.15-0.18,0.32-0.35,0.48-0.54
	c0.08-0.09,0.04-0.22-0.06-0.27c-0.75-0.51-1.44-1.1-2.15-1.66c-0.11-0.08-0.22-0.15-0.34-0.22c-0.2-0.09-0.42,0.33-0.57,0.45
	c-0.67,0.72-1.32,1.44-2.05,2.1c-0.01,0-0.02,0.02-0.03,0.03c-0.18,0-0.35,0-0.53,0c-0.71,0.02-1.43,0.06-2.14,0.09
	c-1.04,0.06-2.07,0.29-3.03,0.7c-0.91,0.34-1.8,0.92-2.22,1.84c-0.97,1.89-0.24,4.48,1.55,5.63c-0.15,0.1-0.3,0.21-0.44,0.32
	c-0.5,0.37-0.96,0.81-1.32,1.33c-0.97,1.24-1.41,3.04-0.52,4.45c0.77,1.21,2.32,1.69,3.67,1.87c1.98,0.24,3.87-0.62,5.84-0.68
	c0.6,0,1.2,0.06,1.8,0.11c0.67,0.07,1.21,0.27,1.83,0.4c0.11,0.02,0.15-0.09,0.13-0.16c0.02-0.01,0.04-0.03,0.04-0.05
	c0.09-0.21,0.17-0.43,0.24-0.65c0.16-0.47,0.33-0.95,0.5-1.41c0.36-0.96,0.68-1.93,0.96-2.91c-0.01-0.06-0.04-0.09-0.09-0.1
	L57.88,13.37z M49.43,5.98c0.34-0.39,0.97-0.46,1.43-0.29c0.48,0.19,0.64,0.76,0.69,1.22c0.08,0.49,0,0.99-0.17,1.46
	c-0.17,0.55-0.83,0.7-1.33,0.54c-0.62-0.19-0.86-0.86-0.91-1.45C49.1,6.95,49.07,6.38,49.43,5.98z"/>
<path fill="#2F344B" d="M115.552,27.6c-0.02-0.55-0.17-1.09-0.29-1.62c-0.19-0.88-0.5-1.75-1.02-2.49c-0.75-1.13-1.81-2.1-3.07-2.62
	c-0.82-0.32-1.73-0.39-2.61-0.37c-0.21-0.04-0.43-0.04-0.66-0.03c-0.14,0-0.29,0-0.43,0c-0.29-0.01-0.59-0.03-0.88,0
	c-1.17,0.16-2.3,0.68-3.21,1.42c-1.09,1.03-1.73,2.47-1.99,3.94c-0.18,1.12-0.1,2.25,0.15,3.36c0.37,1.51,1.28,2.89,2.53,3.81
	c1.28,0.85,2.76,1.43,4.31,1.43h0.07c1.47,0,2.98-0.37,4.19-1.23c0.84-0.6,1.55-1.4,2.09-2.28c0.55-1.01,0.88-2.15,0.82-3.31
	L115.552,27.6z M108.742,29.68c0,0-0.05,0-0.08,0c-1.09-0.08-1.4-1.31-1.42-2.22c-0.04-0.49-0.07-1,0.03-1.49
	c0.58-2.33,3.04-2.15,3.2,0.3c0.16,1.24-0.13,3.42-1.73,3.42V29.68z"/>
<path fill="#2F344B" d="M101.892,21.265c-0.06,0.25-0.19,0.49-0.32,0.71c-0.27,0.45-0.56,0.9-0.83,1.35
	c-1.13,1.9-2.2,3.85-3.21,5.82c-0.42,0.74-0.76,1.52-1.14,2.28c-0.25,0.45-0.5,0.9-0.74,1.35c-0.19,0.34-0.37,0.7-0.56,1.05
	c-0.05,0.07-0.08,0.21-0.17,0.25c-0.02,0.06-0.04,0.12-0.08,0.17c-0.1,0.24-0.4,0.18-0.6,0.2c-0.3,0.01-0.59,0.02-0.89,0.02
	c-0.06,0-0.11,0-0.17,0c-0.78,0-1.56-0.03-2.34-0.05c-0.64,0.01-1.25,0.01-1.88,0c-0.13-0.02-0.16-0.12-0.14-0.2
	c-0.03-0.1,0-0.2,0.06-0.28c0.14-0.23,0.29-0.46,0.42-0.7c0.68-1.26,1.59-2.43,1.96-3.83c0.02-0.13-0.12-0.22-0.18-0.31
	c-0.17-0.19-0.33-0.39-0.48-0.59c-0.55-0.74-1.03-1.53-1.49-2.33c-0.77-1.29-1.56-2.57-2.29-3.89c-0.15-0.28-0.32-0.56-0.48-0.84
	c-0.05-0.12-0.2-0.29-0.15-0.4c0-0.35,0.83-0.3,1.09-0.33c0.71-0.03,1.42-0.08,2.13-0.09c0.71,0,1.41,0,2.12,0.02
	c0.5,0.01,1.08,0,1.4,0.46c0.6,0.63,1.02,1.38,1.48,2.1c0.15,0.26,0.35,0.51,0.49,0.78c0.04-0.06,0.08-0.11,0.11-0.17
	c0.2-0.37,0.42-0.73,0.63-1.1c0.24-0.46,0.46-0.91,0.76-1.33c0.12-0.16,0.23-0.33,0.4-0.43c0.43-0.19,0.92-0.17,1.38-0.17
	c0.71,0.02,1.42,0.05,2.13,0.1c0.45,0.04,0.91,0.04,1.35,0.11c0.05,0,0.09,0.04,0.12,0.08c0.07,0.04,0.13,0.12,0.12,0.2
	L101.892,21.265z"/>
<polygon fill="#2F344B" points="28.892,37.935 28.892,37.935 28.892,37.935 "/>
<polygon fill="#2F344B" points="55.892,37.935 55.882,37.935 55.882,37.935 "/>
<polygon fill="#2F344B" points="83.422,37.935 83.422,37.935 83.422,37.935 "/>
<polygon fill="#2F344B" points="83.422,37.935 83.422,37.935 83.422,37.935 "/>
<path fill="#2F344B" d="M87.002,34.151c-0.04-0.1-0.06-0.2-0.09-0.3c-0.38-1.27-0.8-2.52-1.22-3.78c-0.8-2.33-1.6-4.65-2.51-6.94
	c-0.32-0.83-0.62-1.68-1.03-2.47c-0.02-0.08-0.08-0.11-0.14-0.1c-0.1,0-0.2,0-0.3,0c-0.23,0-0.45,0-0.69,0c-1.04,0-2.1,0-3.14,0.06
	c-0.17,0.02-0.35-0.01-0.51,0.03c-0.21-0.01-0.47,0.71-0.57,0.85c-0.69,1.48-1.43,2.94-2.17,4.41c-0.67,1.44-1.34,2.9-1.98,4.36
	c-0.4,0.95-0.85,1.86-1.29,2.8c-0.15,0.35-0.32,0.69-0.47,1.04c-0.02,0.03-0.03,0.07-0.02,0.11c0,0.04,0.01,0.07,0.04,0.1
	c0.04,0.04,0.1,0.02,0.15,0.03c0.73,0.04,1.47,0.09,2.21,0.1c0.65,0.02,1.29,0.03,1.94,0.03c0.3,0,0.58,0,0.89,0
	c0.19,0.06,0.22-0.3,0.29-0.42c0.15-0.4,0.3-0.81,0.47-1.2c0.05-0.14,0.11-0.27,0.16-0.41c0.21,0,0.43-0.01,0.64-0.01
	c0.27,0,0.53,0,0.8,0c0.35,0,0.71-0.01,1.07-0.01c0.15,0,0.31,0,0.46,0c0.03,0,0.06,0,0.09,0c0.03,0.07,0.08,0.14,0.1,0.19
	c0.31,0.62,0.62,1.25,0.96,1.86c0.02,0.03,0.07,0.05,0.11,0.04l0,0l0,0c1.88-0.03,3.76-0.07,5.64-0.15c0.06,0,0.09-0.05,0.1-0.09
	c0.01-0.03,0.02-0.06,0-0.09L87.002,34.151z M79.552,29.961c-0.09,0.03-0.21,0-0.28,0.02c-0.35,0-0.71,0-1.06,0
	c-0.12-0.01-0.25,0-0.36-0.03c-0.04-0.02-0.06-0.05-0.06-0.09l0,0l0,0c0,0,0-0.08,0.02-0.12c0.12-0.39,0.29-0.78,0.44-1.16
	c0.08-0.2,0.16-0.41,0.24-0.61c0.04-0.07,0.06-0.22,0.12-0.3c0.03-0.09,0.17-0.12,0.22-0.01c0.18,0.47,0.38,0.96,0.55,1.43
	c0.09,0.25,0.22,0.5,0.29,0.76c0,0.07-0.05,0.12-0.11,0.12L79.552,29.961z"/>
<path fill="#2F344B" d="M57.302,34.151c-0.04-0.1-0.06-0.2-0.09-0.3c-0.38-1.27-0.8-2.52-1.22-3.78c-0.8-2.33-1.6-4.65-2.51-6.94
	c-0.32-0.83-0.62-1.68-1.03-2.47c-0.02-0.08-0.08-0.11-0.14-0.1c-0.1,0-0.2,0-0.3,0c-0.23,0-0.45,0-0.69,0c-1.04,0-2.1,0-3.14,0.06
	c-0.17,0.02-0.35-0.01-0.51,0.03c-0.21-0.01-0.47,0.71-0.57,0.85c-0.69,1.48-1.43,2.94-2.17,4.41c-0.67,1.44-1.34,2.9-1.98,4.36
	c-0.4,0.95-0.85,1.86-1.29,2.8c-0.15,0.35-0.32,0.69-0.47,1.04c-0.02,0.03-0.03,0.07-0.02,0.11c0,0.04,0.01,0.07,0.04,0.1
	c0.04,0.04,0.1,0.02,0.15,0.03c0.73,0.04,1.47,0.09,2.21,0.1c0.65,0.02,1.29,0.03,1.94,0.03c0.3,0,0.58,0,0.89,0
	c0.19,0.06,0.22-0.3,0.29-0.42c0.15-0.4,0.3-0.81,0.47-1.2c0.05-0.14,0.11-0.27,0.16-0.41c0.21,0,0.43-0.01,0.64-0.01
	c0.27,0,0.53,0,0.8,0c0.35,0,0.7-0.01,1.07-0.01c0.15,0,0.31,0,0.46,0c0.03,0,0.06,0,0.09,0c0.03,0.07,0.08,0.14,0.1,0.19
	c0.31,0.62,0.62,1.25,0.95,1.86c0.03,0.03,0.07,0.05,0.11,0.04l0,0l0,0l0,0c1.88-0.03,3.76-0.07,5.64-0.15
	c0.06,0,0.09-0.05,0.1-0.09c0.01-0.03,0.01-0.06,0-0.09L57.302,34.151z M49.852,29.961c-0.09,0.03-0.21,0-0.28,0.02
	c-0.35,0-0.71,0-1.06,0c-0.12-0.01-0.25,0-0.36-0.03c-0.04-0.02-0.06-0.05-0.06-0.09l0,0l0,0c0-0.04,0-0.08,0.02-0.12
	c0.12-0.39,0.29-0.78,0.44-1.16c0.08-0.2,0.16-0.41,0.24-0.61c0.04-0.07,0.06-0.22,0.12-0.3c0.03-0.09,0.17-0.12,0.22-0.01
	c0.18,0.47,0.38,0.96,0.55,1.43c0.09,0.25,0.22,0.5,0.29,0.76c0,0.07-0.05,0.12-0.11,0.12L49.852,29.961z"/>
<path fill="#2F344B" d="M42.432,24.504c-0.22-0.97-0.7-1.9-1.44-2.58c-0.94-0.76-2.12-1.17-3.3-1.36c-2.22-0.36-4.49-0.28-6.72-0.17
	c-0.33,0.02-0.65,0.03-0.98,0.04c-0.06,0-0.12,0-0.18,0c-0.01,0-0.03,0-0.04,0.02c0,0-0.02,0-0.03,0.01
	c-0.08,0.03-0.11,0.12-0.11,0.2c0,2.14,0.03,4.28,0.07,6.42c-0.04,1.71-0.02,3.43-0.05,5.15c0,0.5-0.01,1,0.02,1.51
	c0.03,0.26-0.02,0.64,0.28,0.75l0,0c0.06,0.03,0.13,0.02,0.19,0.02c0.26,0,0.52,0,0.78,0c0.82,0,1.65-0.01,2.47,0.01
	c0.45,0,0.9-0.01,1.35-0.03c0.21-0.01,0.57,0,0.59-0.28c0.09-0.62,0.08-1.25,0.1-1.88c0-0.27,0-0.54,0-0.8v-0.03
	c0.16,0,0.32,0,0.49-0.01c1.34-0.03,2.57-0.16,3.73-0.9c2.37-1.23,3.39-3.51,2.79-6.1L42.432,24.504z M36.952,26.754
	c-0.41,0.45-1.03,0.57-1.62,0.52c-0.09,0-0.23,0-0.23-0.13c-0.02-0.02-0.04-0.06-0.04-0.09c0-0.81-0.03-1.62,0-2.42
	c0-0.1,0.01-0.19,0-0.29c0-0.03,0-0.06,0-0.08c-0.02-0.08,0.05-0.17,0.17-0.15l0,0c0.62-0.02,1.37-0.04,1.77,0.52
	c0.49,0.61,0.45,1.56-0.07,2.13L36.952,26.754z"/>
<path fill="#2F344B" d="M28.152,34.151c-0.04-0.1-0.06-0.2-0.09-0.3c-0.38-1.27-0.8-2.52-1.22-3.78c-0.8-2.33-1.6-4.65-2.51-6.94
	c-0.32-0.83-0.62-1.68-1.03-2.47c-0.02-0.08-0.08-0.11-0.14-0.1l0,0c-0.33,0-0.65,0-0.99,0c-1.04,0-2.1,0-3.14,0.06
	c-0.17,0.02-0.35-0.01-0.51,0.03c-0.21-0.01-0.47,0.71-0.57,0.85c-0.69,1.48-1.43,2.94-2.16,4.41c-0.67,1.44-1.34,2.9-1.98,4.36
	c-0.4,0.95-0.85,1.86-1.29,2.8c-0.15,0.35-0.32,0.69-0.47,1.04c-0.02,0.03-0.03,0.07-0.02,0.11c0,0.04,0.01,0.07,0.04,0.1
	c0.04,0.04,0.1,0.02,0.15,0.03c0.73,0.04,1.47,0.09,2.21,0.1c0.65,0.02,1.29,0.03,1.94,0.03c0.3,0,0.58,0,0.89,0
	c0.19,0.06,0.22-0.3,0.29-0.42c0.15-0.4,0.3-0.81,0.47-1.2c0.06-0.14,0.11-0.27,0.16-0.41c0.21,0,0.43-0.01,0.64-0.01
	c0.27,0,0.53,0,0.8,0c0.35,0,0.71-0.01,1.07-0.01c0.15,0,0.31,0,0.46,0c0.03,0,0.05,0,0.09,0c0.03,0.07,0.08,0.14,0.1,0.19
	c0.31,0.62,0.62,1.25,0.95,1.86c0.03,0.03,0.07,0.05,0.11,0.04l0,0l0,0c1.88-0.03,3.76-0.07,5.64-0.15c0.06,0,0.09-0.05,0.1-0.09
	c0.01-0.03,0.01-0.06,0-0.09L28.152,34.151z M20.692,29.961c-0.09,0.03-0.21,0-0.28,0.02c-0.35,0-0.7,0-1.06,0
	c-0.12-0.01-0.25,0-0.36-0.03c-0.04-0.02-0.06-0.05-0.06-0.09l0,0l0,0c-0.01-0.04,0-0.08,0.02-0.12c0.12-0.39,0.29-0.78,0.44-1.16
	c0.08-0.2,0.16-0.41,0.24-0.61c0.04-0.07,0.06-0.22,0.12-0.3c0.03-0.09,0.17-0.12,0.22-0.01c0.18,0.47,0.38,0.96,0.55,1.43
	c0.09,0.25,0.22,0.5,0.29,0.76c0,0.07-0.05,0.12-0.11,0.12L20.692,29.961z"/>
<path fill="#2F344B" d="M12.951,24.504c-0.22-0.97-0.71-1.9-1.44-2.58c-0.94-0.76-2.12-1.17-3.3-1.36
	c-2.22-0.36-4.49-0.28-6.72-0.17c-0.33,0.02-0.65,0.03-0.98,0.04c-0.06,0-0.12,0-0.18,0c-0.02,0-0.03,0-0.04,0.02
	c0,0-0.02,0-0.03,0.01c-0.08,0.03-0.11,0.12-0.11,0.2c0,2.14,0.03,4.28,0.07,6.42c-0.04,1.71-0.02,3.43-0.05,5.15
	c0,0.5-0.01,1,0.02,1.51c0.03,0.26-0.02,0.64,0.28,0.75l0,0c0.06,0.03,0.13,0.02,0.19,0.02c0.26,0,0.52,0,0.78,0
	c0.82,0,1.65-0.01,2.47,0.01c0.45,0,0.9-0.01,1.35-0.03c0.21-0.01,0.57,0,0.59-0.28c0.09-0.62,0.08-1.25,0.1-1.88
	c0-0.27,0.01-0.54,0-0.8c0-0.01,0-0.02,0-0.03c0.16,0,0.32,0,0.48-0.01c1.34-0.03,2.57-0.16,3.73-0.9c2.37-1.23,3.39-3.51,2.79-6.1
	L12.951,24.504z M7.471,26.754c-0.41,0.45-1.03,0.57-1.62,0.52c-0.09,0-0.23,0-0.23-0.13c-0.02-0.02-0.04-0.06-0.04-0.09
	c0-0.81-0.03-1.62,0-2.42c0-0.1,0.01-0.19,0-0.29c0-0.03,0-0.06,0-0.08c-0.02-0.08,0.05-0.17,0.17-0.15l0,0
	c0.62-0.02,1.37-0.04,1.77,0.52c0.49,0.61,0.45,1.56-0.07,2.13L7.471,26.754z"/>
<path fill="#2F344B" d="M69.342,33.976c0,0-0.05,0.08-0.1,0.1c-0.06,0.13-0.39,0.12-0.5,0.16c-0.8,0.14-1.61,0.19-2.43,0.16
	c-2.39-0.07-5.04-0.09-6.97-1.78c-1.25-1.12-1.9-2.78-2.12-4.45c-0.18-1.84,0.33-3.8,1.52-5.2c0.89-1.15,2.22-1.79,3.58-2.13
	c0.82-0.21,1.65-0.39,2.49-0.49c0.79-0.07,1.6-0.05,2.39,0c0.48,0.03,0.97,0.04,1.45,0.07c0.02,0,0.03-0.01,0.06-0.01
	c0.12,0.02,0.27,0.05,0.3,0.19c0.05,0.44-0.01,0.89,0.01,1.33c0.02,0.64,0.04,1.28,0.07,1.92c-0.03,0.19,0.14,1.21-0.09,1.28l0,0
	c-0.58,0.13-1.2,0.01-1.79,0.04c-0.85,0.02-1.7,0.02-2.54,0.17c-1.22,0.23-2.21,1.16-2.28,2.49c-0.06,0.75,0.35,1.27,0.85,1.75
	c0.32,0.28,0.74,0.43,1.15,0.48c-0.05-0.7-0.02-1.4-0.06-2.1c-0.02-0.27-0.04-0.54-0.05-0.81c-0.01-0.2,0.02-0.46,0.26-0.48
	c0.71-0.11,1.44-0.07,2.16-0.11c0.63-0.02,1.26-0.06,1.89-0.07c0.44,0,0.7-0.05,0.66,0.52c-0.02,1.75,0.12,3.51,0.13,5.26
	c0,0.56,0.07,1.13,0.01,1.68L69.342,33.976z"/>
</svg>
